<svg width="123" height="115" viewBox="0 0 123 115" fill="none" xmlns="http://www.w3.org/2000/svg">
<ellipse cx="36.5702" cy="35.5" rx="22.5471" ry="21.8478" fill="url(#paint0_linear_489_1120)"/>
<path d="M36.0691 2L36.0691 9.7681" stroke="#E89A43" stroke-width="4" stroke-linecap="round"/>
<path d="M36.0692 61.2319L36.0692 69" stroke="#66450B" stroke-width="4" stroke-linecap="round"/>
<path d="M10.9401 29.2892L3.00003 28.2171" stroke="#C88535" stroke-width="4" stroke-linecap="round"/>
<path d="M69.9999 27.2463L62.1236 28.6942" stroke="#C88535" stroke-width="4" stroke-linecap="round"/>
<path d="M53.1046 14.7478L58.2577 8.79709" stroke="#E89A43" stroke-width="4" stroke-linecap="round"/>
<path d="M14.0231 9.76794L19.1761 15.7187" stroke="#E89A43" stroke-width="4" stroke-linecap="round"/>
<path d="M20.8707 56.3771L16.0272 62.5671" stroke="#66450B" stroke-width="4" stroke-linecap="round"/>
<path d="M52.1027 56.3771L57.036 62.5001" stroke="#66450B" stroke-width="4" stroke-linecap="round"/>
<path d="M11.4619 43.7324L3.64145 45.4409" stroke="#8A5D1B" stroke-width="4" stroke-linecap="round"/>
<path d="M62.2007 43.4641L69.8793 45.6965" stroke="#8A5D1B" stroke-width="4" stroke-linecap="round"/>
<path d="M1.9756 88.1682C-5.22338 60.719 8.97462 54.6192 16.9735 55.0004C16.1736 46.7657 19.3065 43.182 20.9729 42.4195C28.9718 36.9296 36.3041 41.657 38.9704 44.707C41.3701 36.4722 49.3023 33.651 52.9684 33.2697C64.1669 31.4398 68.2996 39.3696 68.9662 43.5632C80.1646 36.2434 86.2971 42.8007 87.9635 46.9944C95.9624 39.6746 105.294 42.4195 108.961 44.707C116.16 51.1118 114.626 62.6252 112.96 67.5813C121.759 66.6663 123.292 76.3498 122.959 81.3059C120.559 95.9455 109.96 95.0306 104.961 92.7431C104.961 100.063 101.628 104.943 99.9618 106.468C83.1642 118.362 70.9659 109.899 66.9665 104.18C48.5691 124.31 33.9711 111.805 28.9718 103.037C12.9741 109.441 4.30861 95.793 1.9756 88.1682Z" fill="url(#paint1_linear_489_1120)"/>
<defs>
<linearGradient id="paint0_linear_489_1120" x1="36.7723" y1="57.5608" x2="35.6157" y2="20.829" gradientUnits="userSpaceOnUse">
<stop stop-color="#4A3400"/>
<stop offset="1" stop-color="#E89A43"/>
</linearGradient>
<linearGradient id="paint1_linear_489_1120" x1="61.9913" y1="33" x2="65.9154" y2="178.227" gradientUnits="userSpaceOnUse">
<stop stop-color="#F4F4F5"/>
<stop offset="1" stop-color="#C4C9CA"/>
</linearGradient>
</defs>
</svg>
