<svg width="123" height="82" viewBox="0 0 123 82" fill="none" xmlns="http://www.w3.org/2000/svg">
<path d="M1.9756 55.1682C-5.22338 27.719 8.97462 21.6192 16.9735 22.0004C16.1736 13.7657 19.3065 10.182 20.9729 9.41948C28.9718 3.92963 36.3041 8.65703 38.9704 11.707C41.3701 3.47223 49.3023 0.650983 52.9684 0.269703C64.1669 -1.56025 68.2996 6.36956 68.9662 10.5632C80.1646 3.2434 86.2971 9.80075 87.9635 13.9944C95.9624 6.6746 105.294 9.41952 108.961 11.707C116.16 18.1118 114.626 29.6252 112.96 34.5813C121.759 33.6663 123.292 43.3498 122.959 48.3059C120.559 62.9455 109.96 62.0306 104.961 59.7431C104.961 67.0629 101.628 71.9428 99.9618 73.4677C83.1642 85.3624 70.9659 76.8989 66.9665 71.1803C48.5691 91.3097 33.9711 78.8051 28.9718 70.0366C12.9741 76.4414 4.30861 62.793 1.9756 55.1682Z" fill="url(#paint0_linear_489_1134)"/>
<defs>
<linearGradient id="paint0_linear_489_1134" x1="61.9913" y1="1.00156e-07" x2="65.9154" y2="145.227" gradientUnits="userSpaceOnUse">
<stop stop-color="#F4F4F5"/>
<stop offset="1" stop-color="#C4C9CA"/>
</linearGradient>
</defs>
</svg>
