<svg width="159" height="91" viewBox="0 0 159 91" fill="none" xmlns="http://www.w3.org/2000/svg">
<path d="M88.1565 32.2936C83.9424 16.2258 92.2534 12.6551 96.9357 12.8783C96.4675 8.05795 98.3014 5.96018 99.2768 5.51384C103.959 2.30027 108.251 5.06753 109.812 6.85286C111.217 2.03252 115.86 0.381063 118.006 0.157875C124.561 -0.913315 126.98 3.72852 127.37 6.18334C133.926 1.89858 137.515 5.73702 138.491 8.19184C143.173 3.90708 148.636 5.51387 150.782 6.85286C154.996 10.602 154.098 17.3416 153.123 20.2427C158.273 19.7071 159.171 25.3755 158.976 28.2766C157.571 36.8462 151.367 36.3106 148.441 34.9716C148.441 39.2563 146.49 42.1128 145.514 43.0055C135.681 49.9682 128.541 45.014 126.2 41.6665C115.431 53.4496 106.886 46.1298 103.959 40.997C94.5946 44.7462 89.5221 36.7569 88.1565 32.2936Z" fill="url(#paint0_linear_489_1135)"/>
<path d="M1.9756 64.1682C-5.22338 36.719 8.97462 30.6192 16.9735 31.0004C16.1736 22.7657 19.3065 19.182 20.9729 18.4195C28.9718 12.9296 36.3041 17.657 38.9704 20.707C41.3701 12.4722 49.3023 9.65098 52.9684 9.2697C64.1669 7.43975 68.2996 15.3696 68.9662 19.5632C80.1646 12.2434 86.2971 18.8007 87.9635 22.9944C95.9624 15.6746 105.294 18.4195 108.961 20.707C116.16 27.1118 114.626 38.6252 112.96 43.5813C121.759 42.6663 123.292 52.3498 122.959 57.3059C120.559 71.9455 109.96 71.0306 104.961 68.7431C104.961 76.0629 101.628 80.9428 99.9618 82.4677C83.1642 94.3624 70.9659 85.8989 66.9665 80.1803C48.5691 100.31 33.9711 87.8051 28.9718 79.0366C12.9741 85.4414 4.30861 71.793 1.9756 64.1682Z" fill="url(#paint1_linear_489_1135)"/>
<defs>
<linearGradient id="paint0_linear_489_1135" x1="123" y1="-16.5" x2="125.69" y2="85.0086" gradientUnits="userSpaceOnUse">
<stop stop-color="#F4F4F5"/>
<stop offset="1" stop-color="#050505"/>
</linearGradient>
<linearGradient id="paint1_linear_489_1135" x1="61.9913" y1="9" x2="65.9154" y2="154.227" gradientUnits="userSpaceOnUse">
<stop stop-color="#F4F4F5"/>
<stop offset="1" stop-color="#C4C9CA"/>
</linearGradient>
</defs>
</svg>
