<svg width="159" height="106" viewBox="0 0 159 106" fill="none" xmlns="http://www.w3.org/2000/svg">
<path d="M88.1565 32.2936C83.9424 16.2258 92.2534 12.6551 96.9357 12.8783C96.4675 8.05795 98.3014 5.96018 99.2768 5.51384C103.959 2.30027 108.251 5.06753 109.812 6.85286C111.217 2.03252 115.86 0.381063 118.006 0.157875C124.561 -0.913315 126.98 3.72852 127.37 6.18334C133.926 1.89858 137.515 5.73702 138.491 8.19184C143.173 3.90708 148.636 5.51387 150.782 6.85286C154.996 10.602 154.098 17.3416 153.123 20.2427C158.273 19.7071 159.171 25.3755 158.976 28.2766C157.571 36.8462 151.367 36.3106 148.441 34.9716C148.441 39.2563 146.49 42.1128 145.514 43.0055C135.681 49.9682 128.541 45.014 126.2 41.6665C115.431 53.4496 106.886 46.1298 103.959 40.997C94.5946 44.7462 89.5221 36.7569 88.1565 32.2936Z" fill="url(#paint0_linear_489_1144)"/>
<path d="M1.9756 64.1682C-5.22338 36.719 8.97462 30.6192 16.9735 31.0004C16.1736 22.7657 19.3065 19.182 20.9729 18.4195C28.9718 12.9296 36.3041 17.657 38.9704 20.707C41.3701 12.4722 49.3023 9.65098 52.9684 9.2697C64.1669 7.43975 68.2996 15.3696 68.9662 19.5632C80.1646 12.2434 86.2971 18.8007 87.9635 22.9944C95.9624 15.6746 105.294 18.4195 108.961 20.707C116.16 27.1118 114.626 38.6252 112.96 43.5813C121.759 42.6663 123.292 52.3498 122.959 57.3059C120.559 71.9455 109.96 71.0306 104.961 68.7431C104.961 76.0629 101.628 80.9428 99.9618 82.4677C83.1642 94.3624 70.9659 85.8989 66.9665 80.1803C48.5691 100.31 33.9711 87.8051 28.9718 79.0366C12.9741 85.4414 4.30861 71.793 1.9756 64.1682Z" fill="url(#paint1_linear_489_1144)"/>
<path d="M80.4831 61.4756C85.0518 58.4155 90.0012 52.5501 91.9048 50C97.9964 74.4813 88 76.7765 84.2903 76.7765C75.5 76.7765 73.9999 65.8181 80.4831 61.4756Z" fill="url(#paint2_linear_489_1144)"/>
<path d="M54.8395 77.7143C60.3721 74.0571 66.3657 67.0476 68.6709 64C76.0476 93.2571 63.9423 96 59.45 96C48.8051 96 46.9886 82.9039 54.8395 77.7143Z" fill="url(#paint3_linear_489_1144)"/>
<path d="M90.2263 83.4286C93.9147 80.9143 97.9104 76.0952 99.4473 74C104.365 94.1143 96.2949 96 93.3 96C86.2034 96 84.9924 86.9964 90.2263 83.4286Z" fill="url(#paint4_linear_489_1144)"/>
<path d="M29.9959 94.5714C33.4208 92.2857 37.1311 87.9048 38.5582 86C43.1247 104.286 35.6309 106 32.85 106C26.2603 106 25.1358 97.8149 29.9959 94.5714Z" fill="url(#paint5_linear_489_1144)"/>
<defs>
<linearGradient id="paint0_linear_489_1144" x1="123" y1="-16.5" x2="125.69" y2="85.0086" gradientUnits="userSpaceOnUse">
<stop stop-color="#F4F4F5"/>
<stop offset="1" stop-color="#050505"/>
</linearGradient>
<linearGradient id="paint1_linear_489_1144" x1="61.9913" y1="9" x2="65.9154" y2="154.227" gradientUnits="userSpaceOnUse">
<stop stop-color="#F4F4F5"/>
<stop offset="1" stop-color="#C4C9CA"/>
</linearGradient>
<linearGradient id="paint2_linear_489_1144" x1="86" y1="88" x2="86" y2="34.5" gradientUnits="userSpaceOnUse">
<stop stop-color="#002378"/>
<stop offset="1" stop-color="#004BFF" stop-opacity="0"/>
</linearGradient>
<linearGradient id="paint3_linear_489_1144" x1="61.5204" y1="109.413" x2="61.5204" y2="45.4763" gradientUnits="userSpaceOnUse">
<stop stop-color="#002378"/>
<stop offset="1" stop-color="#004BFF" stop-opacity="0"/>
</linearGradient>
<linearGradient id="paint4_linear_489_1144" x1="94.6802" y1="105.221" x2="94.6802" y2="61.2649" gradientUnits="userSpaceOnUse">
<stop stop-color="#002378"/>
<stop offset="1" stop-color="#004BFF" stop-opacity="0"/>
</linearGradient>
<linearGradient id="paint5_linear_489_1144" x1="34.1316" y1="114.383" x2="34.1316" y2="74.4227" gradientUnits="userSpaceOnUse">
<stop stop-color="#002378"/>
<stop offset="1" stop-color="#004BFF" stop-opacity="0"/>
</linearGradient>
</defs>
</svg>
