<svg width="127" height="127" viewBox="0 0 127 127" fill="none" xmlns="http://www.w3.org/2000/svg">
<g filter="url(#filter0_d_489_1170)">
<path d="M43.3736 47.1852L55.7507 53.0642V39.3465L43.3736 30.528C38.8728 27.3925 38.4977 24.649 38.8728 23.6692C40.6731 19.7498 44.8738 21.3829 46.7492 22.6893C47.6493 23.4732 53.1253 26.9353 55.7507 28.5683V21.7095C51.2499 18.574 47.8743 15.8305 46.7492 14.8506C44.0487 12.499 46.3741 9.95146 47.8743 8.97162C52.3751 8.18778 55.0006 11.2579 55.7507 12.8909V6.03211C55.7507 2.11277 58.0011 0.479693 59.1263 0.153071C64.5272 -0.630797 65.8774 1.78613 65.8774 3.09258V12.8909L71.5034 9.95142C76.9043 9.16755 76.7543 12.2377 76.0042 13.8708C76.0042 15.4385 69.253 19.7498 65.8774 21.7095V27.5885L73.7538 21.7095C78.2546 17.7901 80.88 18.77 81.6301 19.7498C84.3306 22.8853 81.2551 26.282 79.3798 27.5885L67.0026 39.3465V52.0844C80.505 45.0296 85.3808 33.4675 86.1309 28.5683C87.9312 26.2167 90.6317 26.9353 91.7569 27.5885C94.4574 28.3724 90.6317 36.407 88.3813 40.3264C95.5825 37.9747 98.133 33.4675 98.508 31.5078C99.4082 26.0207 102.634 23.9958 104.134 23.6691C106.573 23.6691 105.524 27.9328 104.469 30.6833C105.085 30.6438 106.307 30.417 108.635 29.5482C114.936 27.1965 119.512 28.5683 121.012 29.5482C124.613 32.6836 122.512 34.7739 121.012 35.4272L109.76 40.3264C116.061 41.1102 117.636 43.2659 117.636 44.2457C118.536 48.165 112.01 47.1852 108.635 46.2054C97.3829 44.2457 94.0073 48.165 96.2577 48.165C98.058 48.165 104.509 50.1247 107.51 51.1045C111.11 51.8884 111.26 54.0441 110.885 55.0239C109.085 58.9432 105.634 58.6166 104.134 57.9634C103.234 57.9634 91.7569 54.0441 86.1309 52.0844L72.6286 59.9231L88.3813 69.7214C93.7822 65.8021 104.884 63.5158 109.76 62.8626C114.261 62.0787 116.136 64.4956 116.511 65.8021C117.411 68.1537 114.636 69.3948 113.136 69.7214C104.134 69.7214 98.133 72.9875 96.2577 74.6206C101.884 79.5198 104.134 76.5803 105.259 76.5803C116.961 73.4448 120.637 75.927 121.012 77.5601C121.912 80.6956 116.136 81.4795 113.136 81.4795L116.511 83.4391C123.712 88.1423 121.012 91.931 118.762 93.2375C116.061 94.8052 111.635 91.931 109.76 90.298C112.46 94.2173 111.635 96.5036 110.885 97.1568C109.085 99.5084 106.384 98.1367 105.259 97.1568C104.359 96.373 101.884 89.6448 100.758 86.3786L92.8821 80.4996C91.9819 81.2835 94.7574 88.0117 96.2577 91.2778C97.1578 97.5488 92.8821 97.8101 90.6317 97.1568C86.1309 96.373 83.5055 83.1125 82.7553 76.5803L67.0026 66.7819V85.3988L82.7553 98.1367C85.4558 101.272 83.8805 103.362 82.7553 104.016C78.2546 105.583 70.3782 97.4834 67.0026 93.2375V102.056C70.6032 103.624 73.0037 105.975 73.7538 106.955C78.2546 113.226 74.879 114.794 72.6286 114.794C69.028 114.794 67.3777 111.528 67.0026 109.895C67.9028 119.301 64.3772 122.306 62.5019 122.633C60.2515 123.612 58.0011 122.633 56.8759 119.693C55.9757 117.341 56.5008 112.181 56.8759 109.895C53.2753 114.598 50.1248 115.12 48.9996 114.794C47.8744 114.141 46.074 112.246 47.8743 109.895C49.6747 107.543 53.8754 103.689 55.7507 102.056V96.177L47.8743 102.056C45.1739 104.408 42.2484 103.036 41.1232 102.056C39.3229 101.272 40.3731 98.4633 41.1232 97.1568L55.7507 85.3988V68.7416L38.8728 77.5601L35.4972 95.1972C33.6969 98.3326 30.2463 97.1568 28.7461 96.177C26.0456 94.6093 28.371 85.7254 29.8713 81.4795C18.6193 85.3988 20.8697 92.2577 20.8697 93.2375C20.8697 97.1568 18.6194 97.4834 17.4942 97.1568C14.7937 97.1568 14.1186 93.2375 14.1186 91.2778C6.91734 95.981 2.11652 93.2375 0.61626 91.2778C-2.0842 86.5746 4.74197 82.7859 8.49261 81.4795C2.19153 82.2633 0.61626 79.1932 0.61626 77.5601C1.51641 73.6408 6.99235 75.2738 9.61781 76.5803C15.9189 78.9319 22.7451 76.2537 25.3705 74.6206C21.6199 73.3142 13.8935 70.7013 12.9934 70.7013C9.39276 69.9174 9.24274 67.7617 9.61781 66.7819C10.518 62.0787 15.2438 62.8626 17.4942 63.8424L33.2469 69.7214L48.9996 60.9029L36.6224 53.0642C33.0218 55.4158 28.371 57.3102 26.4957 57.9634C15.6939 60.315 11.4931 57.6368 10.743 56.0037C9.84287 53.6521 12.6183 53.0642 14.1186 53.0642C18.6194 53.8481 24.9954 50.1247 27.6209 48.165L23.1201 45.2255L15.2438 47.1852C8.04256 48.7529 4.74198 46.532 3.99184 45.2255C2.19153 42.0901 7.74249 40.653 10.743 40.3264C-1.85916 34.8393 0.241206 30.2014 2.86666 28.5683C6.46728 26.2167 12.6183 30.8546 15.2438 33.4675C12.9934 26.6086 17.4942 27.5885 17.4942 26.6086C23.7953 25.0409 26.1207 33.7941 26.4957 38.3667L33.2469 43.2659C35.0472 41.6981 32.4967 36.0804 30.9965 33.4675C26.4957 27.9804 29.1212 25.3022 30.9965 24.6489C39.0979 23.8651 42.6235 39.3465 43.3736 47.1852Z" fill="#88AEE4"/>
</g>
<defs>
<filter id="filter0_d_489_1170" x="0" y="0" width="127" height="127" filterUnits="userSpaceOnUse" color-interpolation-filters="sRGB">
<feFlood flood-opacity="0" result="BackgroundImageFix"/>
<feColorMatrix in="SourceAlpha" type="matrix" values="0 0 0 0 0 0 0 0 0 0 0 0 0 0 0 0 0 0 127 0" result="hardAlpha"/>
<feOffset dx="2" dy="2"/>
<feGaussianBlur stdDeviation="1"/>
<feComposite in2="hardAlpha" operator="out"/>
<feColorMatrix type="matrix" values="0 0 0 0 0 0 0 0 0 0 0 0 0 0 0 0 0 0 0.5 0"/>
<feBlend mode="normal" in2="BackgroundImageFix" result="effect1_dropShadow_489_1170"/>
<feBlend mode="normal" in="SourceGraphic" in2="effect1_dropShadow_489_1170" result="shape"/>
</filter>
</defs>
</svg>
