<svg width="131" height="85" viewBox="0 0 131 85" fill="none" xmlns="http://www.w3.org/2000/svg">
<path d="M4 17.9999C13.7545 10.4999 31.6122 -4.5 58.3716 14.5C63.3009 17.9999 66.7551 18.0916 70.7714 14.5C81.0219 5.33333 105.176 -4.00004 127 17.9999" stroke="#616161" stroke-width="8" stroke-linecap="round"/>
<path d="M4 38.5368C13.7545 31.0368 31.6122 16.0369 58.3716 35.0369C63.3009 38.5368 66.7551 38.6285 70.7714 35.0369C81.0219 25.8702 105.176 16.5368 127 38.5368" stroke="black" stroke-width="8" stroke-linecap="round"/>
<path d="M4 59.5368C13.7545 52.0368 31.6122 37.0369 58.3716 56.0369C63.3009 59.5368 66.7551 59.6285 70.7714 56.0369C81.0219 46.8702 105.176 37.5368 127 59.5368" stroke="black" stroke-width="8" stroke-linecap="round"/>
<path d="M4 80.5368C13.7545 73.0368 31.6122 58.0369 58.3716 77.0369C63.3009 80.5368 66.7551 80.6285 70.7714 77.0369C81.0219 67.8702 105.176 58.5368 127 80.5368" stroke="black" stroke-width="8" stroke-linecap="round"/>
</svg>
