<svg width="284" height="284" viewBox="0 0 284 284" fill="none" xmlns="http://www.w3.org/2000/svg">
<circle cx="142" cy="142" r="142" fill="#3F3F3F"/>
<circle cx="142" cy="142" r="130.392" fill="white"/>
<circle cx="141.613" cy="142.387" r="123.203" stroke="#B0B0B0" stroke-width="2.77112"/>
<path d="M141.924 24.797L141.924 39.5" stroke="#B0B0B0" stroke-width="1.84741"/>
<path d="M259.237 142.924H244.534" stroke="#B0B0B0" stroke-width="1.84741"/>
<line x1="37.9183" y1="142.924" x2="23.2153" y2="142.924" stroke="#B0B0B0" stroke-width="1.84741"/>
<path d="M200.363 242.652L193.011 229.919" stroke="#B0B0B0" stroke-width="1.84741"/>
<line x1="243.392" y1="201.299" x2="230.658" y2="193.948" stroke="#B0B0B0" stroke-width="1.84741"/>
<line x1="91.0741" y1="54.0267" x2="83.7226" y2="41.2936" stroke="#B0B0B0" stroke-width="1.84741"/>
<line x1="51.7999" y1="89.8679" x2="39.0667" y2="82.5164" stroke="#B0B0B0" stroke-width="1.84741"/>
<path d="M198.842 42.6906L191.49 55.4237" stroke="#B0B0B0" stroke-width="1.84741"/>
<path d="M243.327 84.8112L230.594 92.1627" stroke="#B0B0B0" stroke-width="1.84741"/>
<path d="M91.0272 229.636L83.6757 242.37" stroke="#B0B0B0" stroke-width="1.84741"/>
<line x1="53.6513" y1="194.612" x2="40.9181" y2="201.963" stroke="#B0B0B0" stroke-width="1.84741"/>
<path d="M142 245L142 259.703" stroke="#B0B0B0" stroke-width="1.84741"/>
<circle cx="142" cy="142" r="2.70845" fill="#F7CF73"/>
</svg>
