<svg width="46" height="45" viewBox="0 0 46 45" fill="none" xmlns="http://www.w3.org/2000/svg">
<path d="M7.49353 44C11.2852 39.8036 12.0668 18.4387 11.9837 8.28081V1.53662L42.6662 2.03619C43.664 0.437572 44.5787 1.03706 44.9113 1.53662V35.7571C44.9113 40.3531 43.4146 43.1674 42.6662 44H7.49353Z" fill="#B3B3B3" stroke="black"/>
<path d="M2.4978 2.49785C3.09729 1.38769 4.24629 0.370051 4.74586 0H44.2118C45.4108 0.444062 45.211 1.48021 44.9612 1.94277C43.7622 1.94277 42.6299 2.31282 42.2136 2.49785H2.4978Z" fill="#032A7C"/>
<path d="M2.4978 7.99313V2.49786H42.4633V7.99313H2.4978Z" fill="#0000FE"/>
<path d="M2.99744 41.4642C7.59347 37.4677 8.07639 17.4849 7.74334 7.9931H42.2136V29.2248C43.0129 36.4186 41.381 40.5484 40.4651 41.4642H2.99744Z" fill="#BFBFBF" stroke="#919191"/>
<path d="M38.6615 38.9604L1.02686 38.2363C1.2344 37.8977 1.41928 37.5101 1.58564 37.0881C1.92257 36.2333 2.2021 35.1887 2.43464 34.0131C2.89985 31.6611 3.18728 28.7306 3.35113 25.6293C3.66647 19.6611 3.52686 13.0038 3.29161 8.4931H41.9634V30.3299C41.6952 30.4538 41.4969 30.6736 41.362 30.9222C41.1662 31.2829 41.0784 31.739 41.0417 32.1809C40.9738 32.9986 41.0689 33.9444 41.185 34.6272L38.6615 38.9604Z" fill="white" stroke="#C8C8C8"/>
<path d="M3.49695 13.4883H41.9638" stroke="#C3C3C3"/>
<path d="M3.49695 18.484H41.9638" stroke="#C3C3C3"/>
<path d="M2.99744 25.9775H41.9638" stroke="#C3C3C3"/>
<path d="M2.4978 32.4719H41.4642" stroke="#C3C3C3"/>
<path d="M7.99308 7.9931V30.5857L7.11883 31.6365V35.0517L5.66176 35.5771V37.1533L4.49609 38.4668" stroke="#C3C3C3"/>
<path d="M13.9879 7.9931V30.2153L13.1136 31.2489V34.6081L11.6566 35.1249V36.6753L9.99133 38.7166" stroke="#C3C3C3"/>
<path d="M19.4832 7.9931V30.5857L18.6089 31.6365V35.0517L17.1519 35.5771V37.1533L15.9862 38.7166" stroke="#C3C3C3"/>
<path d="M24.9784 7.9931V30.9561L24.1042 32.0241V35.4953L22.6471 36.0293V37.6313L21.4814 38.9664" stroke="#C3C3C3"/>
<path d="M30.9732 7.9931V30.9561L30.0989 32.0241V35.4953L28.6419 36.0293V37.6313L27.4762 38.9664" stroke="#C3C3C3"/>
<path d="M37.4677 7.9931V30.9561L36.5934 32.0241V35.4953L35.1364 36.0293V37.6313L33.9707 38.9664" stroke="#C3C3C3"/>
<path d="M13.9879 18.484V13.4883H19.4832V18.484H13.9879Z" stroke="#C75557" stroke-width="2"/>
</svg>
