<svg width="168" height="101" viewBox="0 0 168 101" fill="none" xmlns="http://www.w3.org/2000/svg">
<path d="M71.4783 0.93026C40.1391 7.8099 30.7681 41.8433 30 58H37.6812C38.2957 24.2272 60.9807 11.0934 72.2464 8.74804C104.814 -0.633285 123.71 29.856 129.087 46.2733L136 44.7098C121.867 1.55568 87.0966 -2.45744 71.4783 0.93026Z" fill="#D67335"/>
<path d="M77.4202 6.66992C48.768 9.7745 36.2708 44.0311 37.0328 61H45.4151C49.6824 27.4706 68.5299 15.9837 77.4202 14.4314C102.415 11.3268 118.824 34.3524 123.904 46.2533L130 42.3725C113.54 7.60129 88.0886 4.08277 77.4202 6.66992Z" fill="#D8E350"/>
<path d="M77.7692 13.6639C56.2308 18.0975 48.2821 45.0686 47 58H55.4615C56.0769 33.2984 72.1282 23.4284 80.0769 21.5811C97.3077 17.4687 114.436 35.7019 120.846 45.3326L127 43.7491C108.538 13.9806 86.4872 11.2888 77.7692 13.6639Z" fill="#8EC2DE"/>
<g filter="url(#filter0_d_419_1752)">
<path d="M53.53 60.474C51.5986 52.7748 55.4078 51.0639 57.5539 51.1708C57.3393 48.8611 58.1798 47.8559 58.6269 47.642C60.7729 46.1022 62.7401 47.4282 63.4555 48.2837C64.0993 45.9739 66.2274 45.1826 67.211 45.0756C70.2155 44.5624 71.3243 46.7866 71.5031 47.9628C74.5076 45.9097 76.1529 47.749 76.6 48.9253C78.746 46.8721 81.2497 47.6421 82.2333 48.2837C84.1648 50.0801 83.7534 53.3095 83.3063 54.6996C85.667 54.443 86.0783 57.1591 85.9889 58.5492C85.3451 62.6555 82.5016 62.3988 81.1603 61.7572C81.1603 63.8103 80.2661 65.1791 79.819 65.6068C75.3123 68.9431 72.0396 66.5692 70.9666 64.9652C66.0307 70.6113 62.1142 67.1039 60.7729 64.6444C56.4808 66.4409 54.156 62.6127 53.53 60.474Z" fill="url(#paint0_linear_419_1752)"/>
</g>
<g filter="url(#filter1_d_419_1752)">
<path d="M5.06008 77.2936C1.19721 61.2258 8.81565 57.6551 13.1077 57.8783C12.6785 53.0579 14.3596 50.9602 15.2538 50.5138C19.5459 47.3003 23.4803 50.0675 24.911 51.8529C26.1986 47.0325 30.4549 45.3811 32.4221 45.1579C38.431 44.0867 40.6486 48.7285 41.0063 51.1833C47.0152 46.8986 50.3058 50.737 51.1999 53.1918C55.492 48.9071 60.4994 50.5139 62.4666 51.8529C66.3295 55.602 65.5069 62.3416 64.6127 65.2427C69.334 64.7071 70.1566 70.3755 69.9778 73.2766C68.6902 81.8462 63.0032 81.3106 60.3206 79.9716C60.3206 84.2563 58.5322 87.1128 57.6381 88.0055C48.6247 94.9682 42.0793 90.014 39.9332 86.6665C30.0614 98.4496 22.2284 91.1298 19.5459 85.997C10.9617 89.7462 6.31194 81.7569 5.06008 77.2936Z" fill="url(#paint1_linear_419_1752)"/>
</g>
<g filter="url(#filter2_d_419_1752)">
<path d="M111.851 59.5474C108.749 47.8313 114.867 45.2277 118.314 45.3904C117.969 41.8756 119.319 40.346 120.037 40.0205C123.484 37.6773 126.643 39.6951 127.792 40.9969C128.826 37.482 132.244 36.2779 133.824 36.1151C138.649 35.334 140.43 38.7187 140.717 40.5087C145.542 37.3844 148.185 40.1832 148.903 41.9732C152.35 38.8489 156.371 40.0205 157.95 40.9969C161.052 43.7306 160.392 48.6449 159.674 50.7603C163.465 50.3698 164.126 54.503 163.982 56.6184C162.948 62.867 158.381 62.4765 156.227 61.5001C156.227 64.6244 154.791 66.7073 154.073 67.3582C146.835 72.4352 141.579 68.8227 139.855 66.3818C131.928 74.9737 125.638 69.6363 123.484 65.8937C116.59 68.6274 112.857 62.8019 111.851 59.5474Z" fill="url(#paint2_linear_419_1752)"/>
</g>
<defs>
<filter id="filter0_d_419_1752" x="49" y="45" width="41" height="31" filterUnits="userSpaceOnUse" color-interpolation-filters="sRGB">
<feFlood flood-opacity="0" result="BackgroundImageFix"/>
<feColorMatrix in="SourceAlpha" type="matrix" values="0 0 0 0 0 0 0 0 0 0 0 0 0 0 0 0 0 0 127 0" result="hardAlpha"/>
<feOffset dy="4"/>
<feGaussianBlur stdDeviation="2"/>
<feComposite in2="hardAlpha" operator="out"/>
<feColorMatrix type="matrix" values="0 0 0 0 0 0 0 0 0 0 0 0 0 0 0 0 0 0 0.25 0"/>
<feBlend mode="normal" in2="BackgroundImageFix" result="effect1_dropShadow_419_1752"/>
<feBlend mode="normal" in="SourceGraphic" in2="effect1_dropShadow_419_1752" result="shape"/>
</filter>
<filter id="filter1_d_419_1752" x="0" y="45" width="74" height="56" filterUnits="userSpaceOnUse" color-interpolation-filters="sRGB">
<feFlood flood-opacity="0" result="BackgroundImageFix"/>
<feColorMatrix in="SourceAlpha" type="matrix" values="0 0 0 0 0 0 0 0 0 0 0 0 0 0 0 0 0 0 127 0" result="hardAlpha"/>
<feOffset dy="4"/>
<feGaussianBlur stdDeviation="2"/>
<feComposite in2="hardAlpha" operator="out"/>
<feColorMatrix type="matrix" values="0 0 0 0 0 0 0 0 0 0 0 0 0 0 0 0 0 0 0.25 0"/>
<feBlend mode="normal" in2="BackgroundImageFix" result="effect1_dropShadow_419_1752"/>
<feBlend mode="normal" in="SourceGraphic" in2="effect1_dropShadow_419_1752" result="shape"/>
</filter>
<filter id="filter2_d_419_1752" x="107" y="36" width="61" height="43" filterUnits="userSpaceOnUse" color-interpolation-filters="sRGB">
<feFlood flood-opacity="0" result="BackgroundImageFix"/>
<feColorMatrix in="SourceAlpha" type="matrix" values="0 0 0 0 0 0 0 0 0 0 0 0 0 0 0 0 0 0 127 0" result="hardAlpha"/>
<feOffset dy="4"/>
<feGaussianBlur stdDeviation="2"/>
<feComposite in2="hardAlpha" operator="out"/>
<feColorMatrix type="matrix" values="0 0 0 0 0 0 0 0 0 0 0 0 0 0 0 0 0 0 0.25 0"/>
<feBlend mode="normal" in2="BackgroundImageFix" result="effect1_dropShadow_419_1752"/>
<feBlend mode="normal" in="SourceGraphic" in2="effect1_dropShadow_419_1752" result="shape"/>
</filter>
<linearGradient id="paint0_linear_419_1752" x1="69.7895" y1="40.4605" x2="70.007" y2="73.1433" gradientUnits="userSpaceOnUse">
<stop stop-color="#F4F4F5"/>
<stop offset="1" stop-color="#C4C9CA"/>
</linearGradient>
<linearGradient id="paint1_linear_419_1752" x1="37.2636" y1="45" x2="39.7692" y2="129.999" gradientUnits="userSpaceOnUse">
<stop stop-color="#F4F4F5"/>
<stop offset="1" stop-color="#C4C9CA"/>
</linearGradient>
<linearGradient id="paint2_linear_419_1752" x1="137.712" y1="36" x2="139.371" y2="97.9881" gradientUnits="userSpaceOnUse">
<stop stop-color="#F4F4F5"/>
<stop offset="1" stop-color="#C4C9CA"/>
</linearGradient>
</defs>
</svg>
