<svg width="47" height="53" viewBox="0 0 47 53" fill="none" xmlns="http://www.w3.org/2000/svg">
<path fill-rule="evenodd" clip-rule="evenodd" d="M23.4061 13.2547C35.2865 13.2547 45.0078 16.3845 45.7698 20.3417H40.5256C39.5127 18.2496 32.2343 16.627 23.4062 16.627C14.578 16.627 7.29961 18.2496 6.28671 20.3417H1.04236C1.80438 16.3845 11.5257 13.2547 23.4061 13.2547Z" fill="white"/>
<path fill-rule="evenodd" clip-rule="evenodd" d="M43.9059 23.9507C40.3993 26.5918 32.5611 28.4308 23.4543 28.4308C14.3508 28.4308 6.51499 26.5931 3.00647 23.9536L5.15347 44.2337C7.49549 47.1244 15.053 52.0386 25.0456 52.0386C29.7297 52.0386 36.7587 49.0901 41.7551 44.2337C41.7551 43.4104 42.3153 38.3742 42.9371 32.7839C43.2676 29.8129 43.6155 26.6855 43.9059 23.9507Z" fill="#FFFF40"/>
<path d="M26.5815 10.196L20.8483 25.9997C21.6822 28.0389 23.628 27.5291 24.4967 27.0193L30.23 11.2156C28.1451 12.0313 26.929 10.8757 26.5815 10.196Z" fill="#FF0000"/>
<path d="M26.1039 8.6666C25.687 11.9293 28.3625 12.4051 29.7524 12.2352C34.3389 11.0117 32.7059 4.24836 31.316 1.01965C31.316 3.56864 27.6711 5.34777 27.1464 6.11762C26.3124 7.34113 26.1039 8.32674 26.1039 8.6666Z" fill="white"/>
<path d="M10.5086 10.8881L16.9114 26.4438C18.9169 27.4318 20.0298 25.7895 20.3356 24.8448L13.9328 9.28906C12.9228 11.2506 11.2292 11.1724 10.5086 10.8881Z" fill="#00FF00"/>
<path d="M9.11527 10.0512C11.0117 12.7661 13.3387 11.3898 14.2651 10.3622C16.8738 6.47476 11.0713 2.4644 7.84399 0.945162C9.56964 2.85524 8.04279 6.54918 8.17077 7.46591C8.37418 8.92287 8.88519 9.79648 9.11527 10.0512Z" fill="white"/>
<path d="M33.8238 12.0849L24.3416 26.0558C24.6448 28.2319 26.6589 28.1991 27.6281 27.9107L37.1103 13.9399C34.8854 14.2364 33.9923 12.8268 33.8238 12.0849Z" fill="#0000FF"/>
<path d="M33.7397 10.4878C32.5258 13.554 35.0034 14.6506 36.3939 14.8155C41.1469 14.7171 41.2403 7.76831 40.6929 4.30623C40.0606 6.77905 36.0833 7.64001 35.3832 8.26233C34.2707 9.25138 33.824 10.1581 33.7397 10.4878Z" fill="white"/>
<path d="M3.1272 23.684C3.70338 32.3582 26.4625 48.661 41.155 40.7613C47.2049 37.5085 46.8873 32.471 42.7388 21.4114" stroke="#606367" stroke-linecap="round"/>
<path fill-rule="evenodd" clip-rule="evenodd" d="M23.4543 28.38C35.832 28.38 45.8662 24.9826 45.8662 20.7918C45.8662 20.6573 45.8558 20.5235 45.8354 20.3907H40.6173C40.6682 20.5226 40.6943 20.6564 40.6943 20.7916C40.6943 23.1198 32.9757 25.0072 23.4544 25.0072C13.9331 25.0072 6.21451 23.1198 6.21451 20.7916C6.21451 20.6564 6.24054 20.5226 6.29145 20.3907H1.07326C1.05283 20.5235 1.04248 20.6573 1.04248 20.7918C1.04248 24.9826 11.0766 28.38 23.4543 28.38Z" fill="white"/>
<path d="M8.33932 6.11756C8.33932 5.60776 8.16559 2.37905 7.81812 1.01959C9.48597 1.42743 11.2928 2.88885 11.9878 3.56857C11.5708 4.79209 9.38173 5.94763 8.33932 6.11756Z" fill="#00FF00"/>
<path d="M8.33932 6.11756C8.33932 5.60776 8.16559 2.37905 7.81812 1.01959C9.48597 1.42743 11.2928 2.88885 11.9878 3.56857C11.5708 4.79209 9.38173 5.94763 8.33932 6.11756Z" fill="#00FF00"/>
<path d="M8.33932 6.11756C8.33932 5.60776 8.16559 2.37905 7.81812 1.01959C9.48597 1.42743 11.2928 2.88885 11.9878 3.56857C11.5708 4.79209 9.38173 5.94763 8.33932 6.11756Z" fill="#00FF00"/>
<path d="M29.0536 4.41164C29.4687 4.45052 30.842 2.18919 31.4767 1.05367L32.6358 5.25925C31.7659 5.58748 29.8852 4.83094 29.0536 4.41164Z" fill="#FF0000"/>
<path d="M40.6541 9.68616C40.2371 9.68616 38.9167 9.00643 38.5693 8.66657C38.1523 8.25873 37.7006 7.47704 37.5269 7.13718C37.9438 7.13718 39.9591 5.43786 40.6541 4.5882C41.1753 6.11759 41.0711 9.68616 40.6541 9.68616Z" fill="#0000FF"/>
</svg>
