<svg width="21" height="21" viewBox="0 0 21 21" fill="none" xmlns="http://www.w3.org/2000/svg">
<path d="M0 21V0H21L0 21Z" fill="#E9E9F1"/>
<path d="M21 21H0L21 0V21Z" fill="#3F4045"/>
<rect x="3" y="3" width="15" height="15" fill="#BFBFC1"/>
<path d="M9.6246 12.3409V12.2855C9.63076 11.6977 9.69231 11.2299 9.80926 10.8821C9.92621 10.5343 10.0924 10.2527 10.3078 10.0373C10.5233 9.82185 10.7818 9.62334 11.0834 9.44176C11.265 9.33097 11.4281 9.20017 11.5728 9.04936C11.7174 8.89548 11.8313 8.71851 11.9144 8.51847C12.0005 8.31842 12.0436 8.09683 12.0436 7.85369C12.0436 7.55208 11.9728 7.29048 11.8313 7.06889C11.6897 6.8473 11.5004 6.67649 11.2635 6.55646C11.0265 6.43643 10.7633 6.37642 10.474 6.37642C10.2217 6.37642 9.97853 6.42874 9.74463 6.53338C9.51073 6.63802 9.3153 6.80268 9.15834 7.02734C9.00138 7.25201 8.91059 7.54593 8.88596 7.90909H7.72261C7.74723 7.38589 7.88265 6.93809 8.12886 6.5657C8.37815 6.1933 8.70592 5.90862 9.11217 5.71165C9.5215 5.51468 9.97545 5.41619 10.474 5.41619C11.0157 5.41619 11.4866 5.52391 11.8867 5.73935C12.2898 5.95478 12.6007 6.25024 12.8192 6.62571C13.0408 7.00118 13.1516 7.42898 13.1516 7.90909C13.1516 8.24763 13.0993 8.55386 12.9946 8.82777C12.8931 9.10168 12.7453 9.34635 12.5514 9.56179C12.3606 9.77723 12.1298 9.96804 11.859 10.1342C11.5881 10.3035 11.3712 10.482 11.2081 10.6697C11.0449 10.8544 10.9264 11.0745 10.8526 11.3299C10.7787 11.5853 10.7387 11.9039 10.7326 12.2855V12.3409H9.6246ZM10.2155 15.0739C9.98776 15.0739 9.79233 14.9923 9.62922 14.8292C9.4661 14.6661 9.38454 14.4706 9.38454 14.2429C9.38454 14.0152 9.4661 13.8197 9.62922 13.6566C9.79233 13.4935 9.98776 13.4119 10.2155 13.4119C10.4433 13.4119 10.6387 13.4935 10.8018 13.6566C10.9649 13.8197 11.0465 14.0152 11.0465 14.2429C11.0465 14.3937 11.008 14.5322 10.9311 14.6584C10.8572 14.7846 10.7572 14.8861 10.631 14.9631C10.5079 15.0369 10.3694 15.0739 10.2155 15.0739Z" fill="black"/>
</svg>
