<svg width="92" height="187" viewBox="0 0 92 187" fill="none" xmlns="http://www.w3.org/2000/svg">
<path d="M14.546 15.2103C10.946 4.41031 24.046 0.710312 31.046 0.210312C53.446 -2.18969 52.046 16.5436 48.546 26.2103C47.346 29.0103 48.3794 34.377 49.046 36.7103L45.546 35.7103V41.2103C59.146 45.6103 59.546 86.377 58.046 106.21C60.046 111.81 53.8794 126.544 50.546 133.21C59.746 138.01 76.3794 150.21 83.546 155.71C89.546 155.71 91.3794 159.377 91.546 161.21C87.946 177.61 77.3794 181.71 72.546 181.71C67.746 176.51 72.8794 172.21 76.046 170.71C78.846 168.71 77.2127 166.877 76.046 166.21L53.546 155.71C39.146 148.51 34.546 141.044 34.046 138.21C33.246 135.41 34.3794 127.377 35.046 123.71C26.646 127.31 25.8794 132.877 26.546 135.21C28.946 140.81 29.8794 161.877 30.046 171.71H27.546C27.546 174.51 28.546 176.21 29.046 176.71C30.246 178.71 30.2127 181.877 30.046 183.21C28.446 187.21 10.3794 187.21 1.54602 186.71C-1.25398 181.51 0.379358 179.21 1.54602 178.71C12.746 177.11 14.8794 173.377 14.546 171.71C13.346 159.71 10.7127 146.71 9.54603 141.71C5.54602 130.51 11.2127 119.71 14.546 115.71C11.746 111.31 14.3794 105.21 16.046 102.71C21.246 93.1103 25.8794 78.7103 27.546 72.7103C24.746 63.5103 30.3794 52.877 33.546 48.7103C34.746 44.3103 32.3794 41.877 31.046 41.2103H24.546C20.946 43.2103 19.7127 38.377 19.546 35.7103C18.346 36.5103 18.3794 33.377 18.546 31.7103H16.046C17.246 24.1103 15.546 17.5436 14.546 15.2103Z" fill="#B5B5B5" fill-opacity="0.7"/>
</svg>
