<svg width="498" height="94" viewBox="0 0 498 94" fill="none" xmlns="http://www.w3.org/2000/svg">
<path d="M0 93.0002V4.00024H28V70.5002H57.5V93.0002H0Z" fill="#0DAA5B"/>
<path d="M64 93.0002V4.00024H126L123.5 26.5002H91.5V39.0002H121V59.5002H91.5V71.0002H127.5V93.0002H64Z" fill="#FBF23B"/>
<path d="M134 19.0002H141.5V7.00024L169 0.000244141V19.0002H179.5V38.0002H169L168.5 67.0002C167.3 71.8002 174 72.3336 177.5 72.0002L177 92.5002C146.6 94.9002 140.667 84.1669 141.5 78.5002V38.0002H134V19.0002Z" fill="#F84A34"/>
<path d="M193 22.5002L195 0.000244141H214L211.5 22.5002H193Z" fill="#F84A34"/>
<path d="M229.5 22.7286C245.1 13.1286 272.667 17.7286 284.5 21.2286C283.5 27.2287 281.5 39.3288 281.5 39.7288C262.7 37.7288 254.667 37.5621 253 37.7288C248.2 38.1288 248.333 41.2288 249 42.7288C265 42.3288 276.667 47.2288 280.5 49.7288C288.5 54.5288 289.167 67.3954 288.5 73.2288C286.1 86.0288 273.5 90.8954 267.5 91.7288C251.1 94.5288 229 90.5621 220 88.2288L223.5 68.2288C229.9 71.4288 247.833 71.8954 256 71.7288C263.2 72.1288 262.667 68.2288 261.5 66.2288C244.3 68.2288 231.333 62.3954 227 59.2288C220.6 53.2288 220.333 42.7288 221 38.2288C221.4 30.2288 226.833 24.562 229.5 22.7286Z" fill="#F84A34"/>
<path d="M393.319 25.2273L396.819 3.72733C387.219 -0.272666 367.819 -0.272666 359.319 0.227334C340.919 1.42733 330.652 15.394 327.819 22.2273C321.419 42.6273 324.486 63.394 326.819 71.2273C334.419 90.0273 356.986 93.7273 367.319 93.2273C383.319 93.6273 396.652 89.7273 401.319 87.7273V39.7273H367.319V61.7273H375.319C376.119 69.3273 372.986 71.2273 371.319 71.2273H354.819V30.2273C352.819 21.4273 379.653 23.2273 393.319 25.2273Z" fill="#3661CC"/>
<path fill-rule="evenodd" clip-rule="evenodd" d="M456.4 0.0654479C444.4 -0.601219 419.6 3.56545 416.4 25.5654C415.067 32.8989 413.5 52.9657 417.9 74.5657C421.067 81.7323 433.5 95.5657 457.9 93.5657C467.567 93.7323 488.1 90.6657 492.9 77.0657C494.4 73.899 497.5 62.0657 497.9 40.0657C497.734 30.2323 493.7 9.36567 478.9 4.56567C475.734 3.0656 466.8 0.0654479 456.4 0.0654479ZM468.084 27.0002H451.084C448.417 27.0002 443.284 28.2002 444.084 33.0002V70.5002H460.584C463.084 70.8336 468.084 69.7002 468.084 62.5002V27.0002Z" fill="#FBF23B"/>
</svg>
