<svg width="129" height="151" viewBox="0 0 129 151" fill="none" xmlns="http://www.w3.org/2000/svg">
<path d="M0 9V0L22.5 18.262V24.5L14 18.262V60L7 54.5V14.5L0 9Z" fill="white"/>
<path d="M27 70.5V22L33.5 27V76L27 70.5Z" fill="white"/>
<path d="M40 81V32.5L51.5 42L56 74L60.5 49L71.5 57.5V106.752L64.5 101V61.0312L57.5 95.5L51 90L47 46.5V86.7696L40 81Z" fill="white"/>
<path d="M78.5 112.249V68.1429V63.5L99.5 80.2143V90.5L85.3372 80.2143V86.7143L99.5 96.9286V108.536L85.3372 98.3214V106.679L99.5 117.821V129.5L78.5 112.249Z" fill="white"/>
<path fill-rule="evenodd" clip-rule="evenodd" d="M106 86V134.5L112.425 140V122L117 124.5L119.5 145.5L127 151L123.5 124C127.5 119.5 128.191 115.135 128 111.5C127.58 103.513 124.575 100.54 121.577 97.5728C121.384 97.3823 121.192 97.1918 121 97C119.531 95.5306 115.158 92.4576 110.712 89.3327C109.107 88.2042 107.492 87.0689 106 86ZM112 99.5V113C114.722 116.147 119.66 118.018 121.5 113.5C124.203 106.866 113.711 100.473 112 99.5Z" fill="white"/>
</svg>
