<svg width="1920" height="963" viewBox="0 0 1920 963" fill="none" xmlns="http://www.w3.org/2000/svg">
<path d="M0 0H1920V963H0V0Z" fill="#8AD3F3"/>
<path d="M386.14 325.986C423.004 314.512 445.962 338.858 452.834 352.465C493.578 344.522 505.38 375.633 506.188 392.182C539.171 395.713 536.099 412.041 530.44 419.764C518.799 433.886 488.403 427.12 474.661 421.971C453.319 435.21 427.773 426.752 417.668 420.868C414.758 423.515 411.605 424.913 410.392 425.281C394.871 429.694 383.715 423.442 380.077 419.764C379.107 421.53 372.397 422.706 369.164 423.074C349.762 423.957 340.061 415.351 337.635 410.938C327.935 388.872 347.337 376.001 358.25 372.323C355.34 344.962 375.631 330.031 386.14 325.986Z" fill="white" fill-opacity="0.8"/>
<path d="M167.14 561.986C204.004 550.512 226.962 574.858 233.834 588.465C274.578 580.522 286.38 611.633 287.188 628.182C320.171 631.713 317.099 648.041 311.44 655.764C299.799 669.886 269.403 663.12 255.661 657.971C234.319 671.21 208.773 662.752 198.668 656.868C195.758 659.515 192.605 660.913 191.392 661.281C175.871 665.694 164.715 659.442 161.077 655.764C160.107 657.53 153.397 658.706 150.164 659.074C130.762 659.957 121.061 651.351 118.635 646.938C108.935 624.872 128.337 612.001 139.25 608.323C136.34 580.962 156.631 566.031 167.14 561.986Z" fill="white" fill-opacity="0.8"/>
<path d="M964.14 783.986C1001 772.512 1023.96 796.858 1030.83 810.465C1071.58 802.522 1083.38 833.633 1084.19 850.182C1117.17 853.713 1114.1 870.041 1108.44 877.764C1096.8 891.886 1066.4 885.12 1052.66 879.971C1031.32 893.21 1005.77 884.752 995.668 878.868C992.758 881.515 989.605 882.913 988.392 883.281C972.871 887.694 961.715 881.442 958.077 877.764C957.107 879.53 950.397 880.706 947.164 881.074C927.762 881.957 918.061 873.351 915.635 868.938C905.935 846.872 925.337 834.001 936.25 830.323C933.34 802.962 953.631 788.031 964.14 783.986Z" fill="white" fill-opacity="0.8"/>
<path d="M992.14 349.986C1029 338.512 1051.96 362.858 1058.83 376.465C1099.58 368.522 1111.38 399.633 1112.19 416.182C1145.17 419.713 1142.1 436.041 1136.44 443.764C1124.8 457.886 1094.4 451.12 1080.66 445.971C1059.32 459.21 1033.77 450.752 1023.67 444.868C1020.76 447.515 1017.61 448.913 1016.39 449.281C1000.87 453.694 989.715 447.442 986.077 443.764C985.107 445.53 978.397 446.706 975.164 447.074C955.762 447.957 946.061 439.351 943.635 434.938C933.935 412.872 953.337 400.001 964.25 396.323C961.34 368.962 981.631 354.031 992.14 349.986Z" fill="white" fill-opacity="0.8"/>
<path d="M1587.14 783.986C1624 772.512 1646.96 796.858 1653.83 810.465C1694.58 802.522 1706.38 833.633 1707.19 850.182C1740.17 853.713 1737.1 870.041 1731.44 877.764C1719.8 891.886 1689.4 885.12 1675.66 879.971C1654.32 893.21 1628.77 884.752 1618.67 878.868C1615.76 881.515 1612.61 882.913 1611.39 883.281C1595.87 887.694 1584.72 881.442 1581.08 877.764C1580.11 879.53 1573.4 880.706 1570.16 881.074C1550.76 881.957 1541.06 873.351 1538.64 868.938C1528.93 846.872 1548.34 834.001 1559.25 830.323C1556.34 802.962 1576.63 788.031 1587.14 783.986Z" fill="white" fill-opacity="0.8"/>
<path d="M1622.14 455.986C1659 444.512 1681.96 468.858 1688.83 482.465C1729.58 474.522 1741.38 505.633 1742.19 522.182C1775.17 525.713 1772.1 542.041 1766.44 549.764C1754.8 563.886 1724.4 557.12 1710.66 551.971C1689.32 565.21 1663.77 556.752 1653.67 550.868C1650.76 553.515 1647.61 554.913 1646.39 555.281C1630.87 559.694 1619.72 553.442 1616.08 549.764C1615.11 551.53 1608.4 552.706 1605.16 553.074C1585.76 553.957 1576.06 545.351 1573.64 540.938C1563.93 518.872 1583.34 506.001 1594.25 502.323C1591.34 474.962 1611.63 460.031 1622.14 455.986Z" fill="white" fill-opacity="0.8"/>
<path d="M1423.14 186.986C1460 175.512 1482.96 199.858 1489.83 213.465C1530.58 205.522 1542.38 236.633 1543.19 253.182C1576.17 256.713 1573.1 273.041 1567.44 280.764C1555.8 294.886 1525.4 288.12 1511.66 282.971C1490.32 296.21 1464.77 287.752 1454.67 281.868C1451.76 284.515 1448.61 285.913 1447.39 286.281C1431.87 290.694 1420.72 284.442 1417.08 280.764C1416.11 282.53 1409.4 283.706 1406.16 284.074C1386.76 284.957 1377.06 276.351 1374.64 271.938C1364.93 249.872 1384.34 237.001 1395.25 233.323C1392.34 205.962 1412.63 191.031 1423.14 186.986Z" fill="white" fill-opacity="0.8"/>
<path d="M1242.14 561.986C1279 550.512 1301.96 574.858 1308.83 588.465C1349.58 580.522 1361.38 611.633 1362.19 628.182C1395.17 631.713 1392.1 648.041 1386.44 655.764C1374.8 669.886 1344.4 663.12 1330.66 657.971C1309.32 671.21 1283.77 662.752 1273.67 656.868C1270.76 659.515 1267.61 660.913 1266.39 661.281C1250.87 665.694 1239.72 659.442 1236.08 655.764C1235.11 657.53 1228.4 658.706 1225.16 659.074C1205.76 659.957 1196.06 651.351 1193.64 646.938C1183.93 624.872 1203.34 612.001 1214.25 608.323C1211.34 580.962 1231.63 566.031 1242.14 561.986Z" fill="white" fill-opacity="0.8"/>
<path d="M668.14 561.986C705.004 550.512 727.962 574.858 734.834 588.465C775.578 580.522 787.38 611.633 788.188 628.182C821.171 631.713 818.099 648.041 812.44 655.764C800.799 669.886 770.403 663.12 756.661 657.971C735.319 671.21 709.773 662.752 699.668 656.868C696.758 659.515 693.605 660.913 692.392 661.281C676.871 665.694 665.715 659.442 662.077 655.764C661.107 657.53 654.397 658.706 651.164 659.074C631.762 659.957 622.061 651.351 619.635 646.938C609.935 624.872 629.337 612.001 640.25 608.323C637.34 580.962 657.631 566.031 668.14 561.986Z" fill="white" fill-opacity="0.8"/>
<path d="M447.14 803.986C484.004 792.512 506.962 816.858 513.834 830.465C554.578 822.522 566.38 853.633 567.188 870.182C600.171 873.713 597.099 890.041 591.44 897.764C579.799 911.886 549.403 905.12 535.661 899.971C514.319 913.21 488.773 904.752 478.668 898.868C475.758 901.515 472.605 902.913 471.392 903.281C455.871 907.694 444.715 901.442 441.077 897.764C440.107 899.53 433.397 900.706 430.164 901.074C410.762 901.957 401.061 893.351 398.635 888.938C388.935 866.872 408.337 854.001 419.25 850.323C416.34 822.962 436.631 808.031 447.14 803.986Z" fill="white" fill-opacity="0.8"/>
<path d="M747.14 133.986C784.004 122.512 806.962 146.858 813.834 160.465C854.578 152.522 866.38 183.633 867.188 200.182C900.171 203.713 897.099 220.041 891.44 227.764C879.799 241.886 849.403 235.12 835.661 229.971C814.319 243.21 788.773 234.752 778.668 228.868C775.758 231.515 772.605 232.913 771.392 233.281C755.871 237.694 744.715 231.442 741.077 227.764C740.107 229.53 733.397 230.706 730.164 231.074C710.762 231.957 701.061 223.351 698.635 218.938C688.935 196.872 708.337 184.001 719.25 180.323C716.34 152.962 736.631 138.031 747.14 133.986Z" fill="white"/>
<path fill-rule="evenodd" clip-rule="evenodd" d="M343.414 0C339.485 6.96349 337.121 15.7078 338.25 26.3233C327.337 30.0009 307.935 42.8725 317.635 64.9381C320.061 69.3512 329.762 77.9568 349.164 77.0742C352.397 76.7064 359.107 75.5296 360.077 73.7643C363.715 77.4419 374.871 83.6938 390.392 79.2807C391.605 78.9129 394.758 77.5155 397.668 74.8676C407.773 80.7517 433.319 89.2102 454.661 75.9709C468.403 81.1195 498.799 87.8863 510.44 73.7643C516.099 66.0414 519.171 49.7128 486.188 46.1823C485.38 29.6335 473.578 -1.4784 432.834 6.46478C431.836 4.48879 430.499 2.28633 428.829 0H343.414Z" fill="white" fill-opacity="0.8"/>
<path fill-rule="evenodd" clip-rule="evenodd" d="M1141 -1C1136.72 6.12023 1134.07 15.1933 1135.25 26.3233C1124.34 30.0009 1104.93 42.8725 1114.64 64.9381C1117.06 69.3512 1126.76 77.9568 1146.16 77.0742C1149.4 76.7064 1156.11 75.5296 1157.08 73.7643C1160.72 77.4419 1171.87 83.6938 1187.39 79.2807C1188.61 78.9129 1191.76 77.5155 1194.67 74.8676C1204.77 80.7517 1230.32 89.2102 1251.66 75.9709C1265.4 81.1195 1295.8 87.8863 1307.44 73.7643C1313.1 66.0414 1316.17 49.7128 1283.19 46.1823C1282.38 29.6335 1270.58 -1.4784 1229.83 6.46478C1228.69 4.2021 1227.1 1.64248 1225.08 -1H1141Z" fill="white" fill-opacity="0.8"/>
<path fill-rule="evenodd" clip-rule="evenodd" d="M1920 695.03C1914.75 695.203 1909.13 696.122 1903.14 697.986C1892.63 702.031 1872.34 716.962 1875.25 744.323C1864.34 748.001 1844.93 760.872 1854.64 782.938C1857.06 787.351 1866.76 795.957 1886.16 795.074C1889.4 794.706 1896.11 793.53 1897.08 791.764C1900.11 794.828 1908.36 799.679 1920 798.661V695.03Z" fill="white" fill-opacity="0.8"/>
<path fill-rule="evenodd" clip-rule="evenodd" d="M1920 149.971C1916.32 148.744 1911.77 147.78 1906.19 147.182C1905.38 130.633 1893.58 99.5216 1852.83 107.465C1845.96 93.8577 1823 69.512 1786.14 80.9861C1775.63 85.0313 1755.34 99.9619 1758.25 127.323C1747.34 131.001 1727.93 143.872 1737.64 165.938C1740.06 170.351 1749.76 178.957 1769.16 178.074C1772.4 177.706 1779.11 176.53 1780.08 174.764C1783.72 178.442 1794.87 184.694 1810.39 180.281C1811.61 179.913 1814.76 178.515 1817.67 175.868C1827.77 181.752 1853.32 190.21 1874.66 176.971C1885.28 180.948 1905.83 185.891 1920 181.424V149.971Z" fill="white" fill-opacity="0.8"/>
<path fill-rule="evenodd" clip-rule="evenodd" d="M0 227.902C4.98517 230.018 11.6378 231.462 20.1638 231.074C23.3974 230.706 30.1072 229.53 31.0772 227.764C34.7151 231.442 45.871 237.694 61.3924 233.281C62.605 232.913 65.7578 231.515 68.6681 228.868C78.7731 234.752 104.319 243.21 125.661 229.971C139.403 235.12 169.799 241.886 181.44 227.764C187.099 220.041 190.171 203.713 157.188 200.182C156.38 183.633 144.578 152.522 103.834 160.465C96.9624 146.858 74.0037 122.512 37.1404 133.986C26.6312 138.031 6.34022 152.962 9.25047 180.323C6.50473 181.249 3.22169 182.756 0 184.845V227.902Z" fill="white" fill-opacity="0.8"/>
<path fill-rule="evenodd" clip-rule="evenodd" d="M0 904.749C3.70701 904.948 7.86391 904.568 12.3924 903.281C13.605 902.913 16.7578 901.515 19.6681 898.868C29.7731 904.752 55.3187 913.21 76.6606 899.971C90.4035 905.12 120.799 911.886 132.44 897.764C138.099 890.041 141.171 873.713 108.188 870.182C107.38 853.633 95.5775 822.522 54.8338 830.465C48.732 818.382 29.9446 797.831 0 801.413V904.749Z" fill="white" fill-opacity="0.8"/>
</svg>
