<svg width="816" height="174" viewBox="0 0 816 174" fill="none" xmlns="http://www.w3.org/2000/svg">
<path d="M168.843 174L0 39H650.798L816 174H168.843Z" fill="#A1E954"/>
<ellipse cx="203.202" cy="41.9163" rx="107.069" ry="32.804" fill="#B1ED62"/>
<path d="M206.847 70.6198C125.202 72.0778 97.5006 50.7248 96.1338 39.1826V71.9866C108.891 94.3116 184.522 97.349 206.847 96.134C284.848 93.5826 306.474 79.8839 309.816 71.9866V39.1826C308.358 64.6969 242.081 70.3161 206.847 70.6198Z" fill="#51BD0E"/>
<ellipse cx="324.395" cy="115.725" rx="107.069" ry="32.804" fill="#B1ED62"/>
<path d="M328.04 144.428C246.394 145.886 218.693 124.533 217.326 112.991V145.795C230.083 168.12 305.715 171.158 328.04 169.943C406.04 167.391 427.667 153.692 431.008 145.795V112.991C429.55 138.505 363.274 144.125 328.04 144.428Z" fill="#51BD0E"/>
<ellipse cx="523.041" cy="32.804" rx="107.069" ry="32.804" fill="#B1ED62"/>
<path d="M526.686 61.5075C445.041 62.9655 417.339 41.6125 415.973 30.0703V62.8743C428.73 85.1993 504.361 88.2367 526.686 87.0217C604.687 84.4703 626.313 70.7716 629.654 62.8743V30.0703C628.196 55.5845 561.92 61.2038 526.686 61.5075Z" fill="#51BD0E"/>
<ellipse cx="630.566" cy="104.79" rx="107.069" ry="32.804" fill="#B1ED62"/>
<path d="M634.211 133.494C552.565 134.952 524.864 113.599 523.497 102.057V134.861C536.254 157.186 611.886 160.223 634.211 159.008C712.211 156.457 733.838 142.758 737.179 134.861V102.057C735.721 127.571 669.445 133.19 634.211 133.494Z" fill="#51BD0E"/>
</svg>
