<svg width="19" height="25" viewBox="0 0 19 25" fill="none" xmlns="http://www.w3.org/2000/svg">
<path d="M4.75028 0.625H1.69671C0.853487 0.625 0.169922 1.35254 0.169922 2.25V23.375C0.169922 24.2725 0.853487 25 1.69671 25H4.75028C5.5935 25 6.27706 24.2725 6.27706 23.375V2.25C6.27706 1.35254 5.5935 0.625 4.75028 0.625Z" fill="white"/>
<path d="M16.9641 0.625H13.9106C13.0674 0.625 12.3838 1.35254 12.3838 2.25V23.375C12.3838 24.2725 13.0674 25 13.9106 25H16.9641C17.8074 25 18.4909 24.2725 18.4909 23.375V2.25C18.4909 1.35254 17.8074 0.625 16.9641 0.625Z" fill="white"/>
</svg>
