<svg width="26" height="27" viewBox="0 0 26 27" fill="none" xmlns="http://www.w3.org/2000/svg">
<mask id="mask0_172_2149" style="mask-type:luminance" maskUnits="userSpaceOnUse" x="0" y="0" width="26" height="27">
<path d="M25.3085 0.8125H0.879883V26.8125H25.3085V0.8125Z" fill="white"/>
</mask>
<g mask="url(#mask0_172_2149)">
<path d="M3.53613 2.4375V9.62162M3.53613 9.62162H10.2861M3.53613 9.62162L6.50649 6.7847C8.06015 5.13402 10.0758 4.06543 12.2497 3.73994C14.4235 3.41445 16.6379 3.84963 18.5592 4.97997C20.4806 6.11032 22.0046 7.87459 22.9019 10.0069C23.799 12.1392 24.0209 14.5241 23.5337 16.8023C23.0466 19.0804 21.877 21.1284 20.2012 22.6375C18.5252 24.1467 16.434 25.0354 14.2423 25.1696C12.0506 25.3039 9.87718 24.6764 8.04977 23.3818C6.22221 22.0873 4.83955 20.1957 4.11005 17.992" stroke="#568037" stroke-width="2" stroke-linecap="round" stroke-linejoin="round"/>
</g>
</svg>
