<svg width="1743" height="1216" viewBox="0 0 1743 1216" fill="none" xmlns="http://www.w3.org/2000/svg">
<g filter="url(#filter0_d_912_2770)">
<path d="M106.978 553.9C222.423 652.26 202.395 680.854 177.951 682.856L81.8091 647.151C65.0466 645.017 69.3824 652.338 73.6456 656.265L186.739 707.214L944.567 1026.05C965.459 1028.44 1050.23 1015.32 1090 1008.46L1599.01 571.358L1658.85 496.735C1650.78 478.649 1590.28 531.889 1561.04 560.769C1548.15 533.227 1575.78 456.188 1591.2 421.111C1619.24 382.172 1605.03 363.494 1594.43 359.023L814.21 176.663C778.404 168.224 773.262 213.981 775.167 237.914C776.844 300.671 734.639 318.004 713.327 318.826C651.393 315.002 628.402 269.92 624.649 247.857C618.355 207.165 581.504 216.493 563.866 226.243L105.121 514.856C84.8488 527.527 97.912 546.165 106.978 553.9Z" fill="#C3884C"/>
<path d="M106.978 553.9C222.423 652.26 202.395 680.854 177.951 682.856L81.8091 647.151C65.0466 645.017 69.3824 652.338 73.6456 656.265L186.739 707.214L944.567 1026.05C965.459 1028.44 1050.23 1015.32 1090 1008.46L1599.01 571.358L1658.85 496.735C1650.78 478.649 1590.28 531.889 1561.04 560.769C1548.15 533.227 1575.78 456.188 1591.2 421.111C1619.24 382.172 1605.03 363.494 1594.43 359.023L814.21 176.663C778.404 168.224 773.262 213.981 775.167 237.914C776.844 300.671 734.639 318.004 713.327 318.826C651.393 315.002 628.402 269.92 624.649 247.857C618.355 207.165 581.504 216.493 563.866 226.243L105.121 514.856C84.8488 527.527 97.912 546.165 106.978 553.9Z" stroke="#C3884C"/>
</g>
<path d="M1141.12 929.068L1126.72 979.017L1603.85 566.507L1640.66 502.828L1141.12 929.068Z" fill="url(#paint0_linear_912_2770)" fill-opacity="0.5"/>
<path d="M1094.09 967.155L190.065 644.334" stroke="#A97742"/>
<path d="M1093.52 974.677L199.423 661.17" stroke="#A97742"/>
<path d="M1081.2 980.328L201.273 669.528" stroke="#A97742"/>
<path d="M1083.05 988.686L199.89 678.602" stroke="#A97742"/>
<path d="M1074.58 996.407L162.452 678.123" stroke="#A97742"/>
<path d="M1058.4 999.989L449.264 785.597M1047.08 1002.5L470.758 798.374M1035.75 1005L471.992 803.946M1006.4 1002.73L558.738 843.193M993.462 1005.6L685.389 894.063M977.286 1009.18L788.852 939.838" stroke="#A97742"/>
<path d="M908.798 228.737C908.361 228.398 907.733 228.477 907.394 228.913C907.056 229.349 907.134 229.977 907.571 230.316L908.798 228.737ZM974.978 262.962L975.713 262.284L975.441 261.988L975.039 261.964L974.978 262.962ZM1050.78 298.785L1051.04 297.819L1050.81 297.756L1050.57 297.809L1050.78 298.785ZM1156.56 339.665L1156.16 340.584L1156.22 340.606L1156.27 340.622L1156.56 339.665ZM1377.04 400.45L1377.39 399.515L1377.35 399.501L1377.31 399.489L1377.04 400.45ZM1440.05 424.492L1439.7 425.426L1439.71 425.43L1439.72 425.434L1440.05 424.492ZM907.571 230.316C914.436 235.65 926.016 243.72 938.478 250.621C950.901 257.501 964.353 263.308 974.916 263.96L975.039 261.964C964.957 261.341 951.844 255.737 939.447 248.872C927.089 242.027 915.594 234.017 908.798 228.737L907.571 230.316ZM974.242 263.639C981.001 270.984 992.913 281.584 1006.73 289.566C1020.52 297.532 1036.4 302.995 1051 299.762L1050.57 297.809C1036.7 300.879 1021.38 295.714 1007.73 287.834C994.118 279.97 982.361 269.507 975.713 262.284L974.242 263.639ZM1050.53 299.752C1059.47 302.12 1093.18 313.615 1156.16 340.584L1156.95 338.746C1093.96 311.772 1060.13 300.227 1051.04 297.819L1050.53 299.752ZM1156.27 340.622C1169.3 344.557 1189.2 350.458 1206.51 355.372C1215.17 357.829 1223.18 360.04 1229.38 361.637C1232.48 362.434 1235.13 363.08 1237.18 363.527C1239.18 363.963 1240.72 364.235 1241.53 364.23L1241.52 362.23C1240.98 362.234 1239.66 362.021 1237.6 361.573C1235.59 361.134 1232.97 360.495 1229.88 359.7C1223.71 358.11 1215.71 355.903 1207.06 353.448C1189.76 348.538 1169.88 342.641 1156.85 338.708L1156.27 340.622ZM1241.53 364.23C1241.76 364.229 1242.32 364.302 1243.28 364.489C1244.21 364.668 1245.43 364.936 1246.92 365.285C1249.89 365.982 1253.9 366.995 1258.7 368.253C1268.3 370.769 1281.04 374.256 1294.96 378.134C1322.79 385.889 1355.3 395.201 1376.76 401.41L1377.31 399.489C1355.86 393.279 1323.33 383.965 1295.49 376.208C1281.57 372.329 1268.82 368.838 1259.21 366.319C1254.4 365.059 1250.38 364.041 1247.38 363.338C1245.88 362.986 1244.63 362.712 1243.66 362.525C1242.73 362.345 1241.98 362.228 1241.52 362.23L1241.53 364.23ZM1376.68 401.384L1439.7 425.426L1440.41 423.558L1377.39 399.515L1376.68 401.384ZM1439.72 425.434L1568.68 471.409L1569.35 469.525L1440.39 423.55L1439.72 425.434Z" fill="#A97742"/>
<path d="M1327.27 374.936L1326.51 376.789L1326.81 376.909L1327.13 376.931L1327.27 374.936ZM1051.66 277.602C1050.56 277.581 1049.65 278.46 1049.63 279.564C1049.61 280.668 1050.49 281.581 1051.59 281.601L1051.66 277.602ZM1572.19 456.411C1541.53 443.211 1492.52 423.204 1445.13 406.074C1421.44 397.51 1398.13 389.658 1377.71 383.734C1357.33 377.823 1339.7 373.792 1327.41 372.94L1327.13 376.931C1338.96 377.751 1356.25 381.674 1376.6 387.576C1396.9 393.466 1420.12 401.288 1443.77 409.836C1491.07 426.932 1540 446.909 1570.61 460.085L1572.19 456.411ZM1328.02 373.082C1289.16 357.32 1228.75 333.636 1173.77 313.81C1146.29 303.897 1120.15 294.942 1098.73 288.422C1088.02 285.163 1078.48 282.505 1070.53 280.641C1062.61 278.786 1056.15 277.686 1051.66 277.602L1051.59 281.601C1055.63 281.677 1061.74 282.691 1069.61 284.536C1077.45 286.373 1086.9 289.003 1097.57 292.249C1118.89 298.74 1144.96 307.67 1172.42 317.572C1227.33 337.376 1287.69 361.039 1326.51 376.789L1328.02 373.082Z" fill="#A97742"/>
<path d="M1233.42 303.963C1231.86 303.413 1230.15 304.236 1229.6 305.799C1229.05 307.362 1229.87 309.074 1231.43 309.623L1233.42 303.963ZM1583.02 426.762L1233.42 303.963L1231.43 309.623L1581.03 432.423L1583.02 426.762Z" fill="#A97742"/>
<path d="M637.352 616.349C452.006 611.942 895.717 773.324 1157.87 869.83L1432.73 682.654L1422.91 677.151C710.122 341.237 750.911 402.212 860.404 474.689C496.306 346.51 623.295 391.301 696.924 433.85C211.442 304.298 424.484 514.562 637.352 616.349Z" fill="#C39F72" fill-opacity="0.4"/>
<path d="M548.683 749.645C362.383 759.523 824.841 887.137 1098.19 963.695L1353.33 754.784L1342.88 750.023C591.615 468.138 639.162 526.139 756.845 590.376C377.828 489.92 510.03 525.042 588.49 562.032C87.6288 469.561 324.162 663.989 548.683 749.645Z" fill="#C39F72" fill-opacity="0.2"/>
<path d="M739.325 531.309C553.026 531.302 995.752 668.974 1257.29 751.37L1537.76 574.595L1528.01 569.786C818.465 278.658 858.164 333.422 966.707 397.195C603.325 288.102 730.063 326.229 803.186 363.465C317.764 255.747 527.457 443.026 739.325 531.309Z" fill="#C39F72" fill-opacity="0.4"/>
<path d="M1308.12 772.718C1273.35 753.625 1223.87 723.274 1304.11 754.608C1286 746.926 1266.48 734.882 1333.23 748.162C1246.22 712.869 1123.93 661.229 1330.76 737.018C1287.26 719.371 1231.86 693.448 1358.26 730.93" stroke="#A97742" stroke-width="2"/>
<path d="M1282.7 795.881C1208.74 768.415 1081.68 720.267 1165.06 747.399C1008.49 676.362 745.66 551.499 946.881 620.347C922.563 610.143 889.056 593.694 949.576 609.521C894.724 586.594 832.63 556.502 1023.07 619.554C982.672 603.168 939.54 581.055 1090.16 623.696L1312.64 678.193C1301.73 672.328 1304.49 667.43 1402.85 694.754" stroke="#A97742" stroke-width="2"/>
<path d="M1261.22 813.789L1153.67 757.228L1003.52 699.869L923.554 660.583C864.055 639.658 749.063 597.507 765.086 596.298C785.114 594.787 669.106 607.319 723.405 568.993C712.619 561.152 699.552 547.094 733.571 553.591C687.758 530.611 624.929 496.688 740.117 544.835C724.22 531.793 718.541 514.833 823.004 551.326C825.417 546.895 844.711 543.598 902.581 565.857C909.41 560.935 937.721 557.493 996.332 583.095C1016.64 585.417 1071.93 594.998 1130.61 614.742C1210.36 632.642 1378.51 670.625 1413.02 679.35" stroke="#A97742" stroke-width="2"/>
<path d="M1244.34 821.909L1003.67 715.91L822.326 647.923L747.212 607.562C730.522 608.822 694.506 604.034 683.962 574.804C645.314 556.083 583.332 523.433 644.592 542.604C643.7 540.423 642.188 537.778 639.976 534.857M634.629 528.735C622.354 516.342 598.84 501.688 559.539 495.675C503.334 487.076 586.18 514.132 634.629 528.735ZM634.629 528.735C636.734 530.861 638.509 532.92 639.976 534.857M639.976 534.857L540.36 508.689C521.618 498.713 494.577 481.124 536.351 490.58C521.174 480.788 506.088 464.254 567.162 476.452C643.503 491.699 526.413 484.012 670.851 500.257L712.141 502.806C716.713 508.126 731.603 518.663 754.589 518.25" stroke="#A97742" stroke-width="2"/>
<path d="M820.379 524.143L860.668 529.836L923.452 545.162C935.984 550.668 963.25 560.901 972.062 557.781C1006.62 565.716 1079.68 582.47 1095.4 586.005C1111.11 589.54 1217.4 618.421 1268.57 632.42L1366.79 654.513L1431.19 669.481" stroke="#A97742" stroke-width="2"/>
<path d="M1239.73 831.699L969.166 713.321L838.279 666.311L724.185 618.506L640.441 569.826C601.766 543.317 518.531 497.448 494.996 526.039C489.732 525.256 481.807 521.653 492.22 513.502C468.208 494.463 431.617 462.038 477.348 484.646C460.167 470.914 431.336 445.441 453.461 453.402C475.586 461.363 462.269 454.862 452.845 450.616L450.069 438.079C457.49 438.384 472.763 440.945 474.49 448.746C463.574 432.653 457.381 411.325 519.94 454.758C487.479 430.77 451.447 398.318 567.008 460.412" stroke="#A97742" stroke-width="2"/>
<path d="M1231.26 839.42L1079.95 769.165L943.286 719.051L831.426 673.673L681.587 617.707L597.844 569.028C570.879 554.539 512.792 528.237 496.155 538.934C479.519 549.632 479.157 538.801 481.056 532.048C456.017 518.595 407.28 487.007 412.638 468.285" stroke="#A97742" stroke-width="2"/>
<path d="M1223.99 843.501C935.297 734.615 360.296 508.913 369.801 477.186L302.899 392.761" stroke="#A97742"/>
<path d="M1218.13 847.719C929.442 738.834 354.441 513.132 363.946 481.404L297.045 396.979" stroke="#A97742"/>
<path d="M1216.75 856.794C926.853 747.404 349.451 520.657 358.993 488.789L291.809 403.984" stroke="#A97742"/>
<path d="M1208.66 858.584C919.97 749.699 344.969 523.997 354.474 492.269L266.544 412.5" stroke="#A97742"/>
<path d="M1171.92 884.254C878.738 774.821 294.798 547.946 304.508 515.909L236.66 430.807" stroke="#A97742"/>
<path d="M1160.21 892.691C868.952 782.061 288.817 552.768 298.368 520.634L230.807 435.026" stroke="#A97742"/>
<path d="M1193.49 859.022C904.797 750.136 329.796 524.434 339.3 492.707L241.13 435.663" stroke="#A97742"/>
<path d="M1186.94 867.777C881.947 749.715 282.698 511.508 325.649 503.167" stroke="#A97742"/>
<path d="M1193.19 876.626C888.194 758.564 288.945 520.357 331.896 512.016" stroke="#A97742"/>
<path d="M1180.25 879.491C875.254 761.429 276.005 523.222 318.956 514.881" stroke="#A97742"/>
<path d="M1154.98 899.696C864.094 788.169 284.699 557.05 294.186 524.791L213.863 450.468" stroke="#A97742"/>
<path d="M1128.94 920.073C835.761 810.64 251.822 583.764 261.531 551.727L193.684 466.626" stroke="#A97742"/>
<path d="M1120.47 927.793C826.964 816.89 242.36 587.01 252.013 554.72L183.979 468.774" stroke="#A97742"/>
<path d="M1107.53 930.658C815.065 819.524 232.529 589.186 242.117 556.911L174.272 470.923" stroke="#A97742"/>
<path d="M1111.79 942.861C811.417 831.562 213.203 600.821 223.349 568.247L154.169 481.71" stroke="#A97742"/>
<path d="M1100.91 946.737C798.425 841.431 195.548 622.498 203.916 589.209L131.15 503.195" stroke="#A97742"/>
<path d="M1102.14 952.309C794.738 847.976 181.926 630.847 189.922 596.998L115.12 510.323" stroke="#A97742"/>
<path d="M1137.42 912.352C845.113 801.952 262.909 573.117 272.526 540.968L204.774 455.402" stroke="#A97742"/>
<path d="M1093.06 957.245C785.495 854.255 172.193 639.736 179.468 605.574L103.413 518.76" stroke="#A97742"/>
<path d="M454.94 297.724C477.788 333.521 530.69 404.996 559.512 404.521L1466.28 634.958" stroke="#A97742" stroke-width="2"/>
<path d="M446.47 305.445C469.318 341.242 522.219 412.717 551.041 412.242L1457.81 642.679" stroke="#A97742" stroke-width="1.5"/>
<path d="M430.294 309.027C453.142 344.823 506.043 416.298 534.865 415.824L1441.64 646.26" stroke="#A97742" stroke-width="2"/>
<path d="M433.378 322.957C456.226 358.753 509.127 430.228 537.949 429.754L1444.72 660.19" stroke="#A97742" stroke-width="2"/>
<path d="M460.178 290.719C483.026 326.516 535.927 397.991 564.749 397.516L1471.52 627.953" stroke="#A97742"/>
<path d="M469.267 285.785C492.115 321.582 545.016 393.056 573.838 392.582L1480.61 623.018" stroke="#A97742"/>
<path d="M486.827 273.129C509.675 308.926 562.576 380.4 591.398 379.926L1498.17 610.362" stroke="#A97742"/>
<path d="M478.356 280.85C501.063 316.252 553.653 386.929 582.362 386.418L1485.23 613.227" stroke="#A97742"/>
<path d="M496.533 270.98C519.381 306.777 572.282 378.252 601.104 377.777L1507.88 608.214" stroke="#A97742"/>
<path d="M505.005 263.259C527.853 299.056 580.754 370.531 609.576 370.056L1505.41 597.069" stroke="#A97742"/>
<path d="M514.711 261.111C537.559 296.907 590.46 368.382 619.282 367.908L1512.19 597.03" stroke="#A97742"/>
<path d="M519.947 254.106C542.795 289.903 595.696 361.377 624.518 360.903L1531.29 591.339" stroke="#A97742"/>
<path d="M529.653 251.957C552.501 287.754 605.403 359.228 634.224 358.754L1528.13 584.732" stroke="#A97742"/>
<path d="M539.359 249.808C561.77 284.851 613.665 354.815 641.962 354.334L1532.06 579.479" stroke="#A97742"/>
<path d="M543.979 240.018C566.48 275.466 618.558 346.256 646.867 345.834L1537.91 575.26" stroke="#A97742"/>
<path d="M550.449 238.585C572.949 274.033 625.027 344.824 653.337 344.401L1544.38 573.828" stroke="#A97742" stroke-width="0.5"/>
<path d="M555.069 228.795C577.569 264.243 629.647 335.033 657.957 334.611L1549 564.037" stroke="#A97742" stroke-width="0.5"/>
<path d="M558.304 228.078C580.804 263.526 632.882 334.317 661.192 333.894L1552.24 563.321" stroke="#A97742" stroke-width="0.5"/>
<path d="M567.394 223.143C589.894 258.591 641.972 329.382 670.281 328.959L1561.33 558.386" stroke="#A97742" stroke-width="0.5"/>
<path d="M574.481 224.497C596.744 259.359 641.237 323.791 669.327 323.325L1560.09 552.814" stroke="#A97742" stroke-width="0.5"/>
<path d="M580.95 223.064C603.264 257.915 648.607 319.237 676.797 318.749L1557.55 548.993" stroke="#A97742" stroke-width="0.5"/>
<path d="M588.003 220.465C610.103 255.213 655.04 316.37 683.094 315.95L1558.86 547.242" stroke="#A97742" stroke-width="0.5"/>
<path d="M782.464 213.521C791.155 222.119 799.903 233.528 803.19 238.159C813.998 223.101 852.777 206.137 921.439 258.741C990.1 311.344 952.616 282.038 925.291 260.81L966.121 276.613C976.215 288.991 1005.06 313 1039.69 310.009C1096.39 331.066 1212.18 373.235 1221.73 373.458L1321.88 396.587C1334.62 403.022 1363.25 416.362 1375.88 418.241C1388.52 420.12 1416.74 431.602 1429.27 437.108L1557.31 478.904" stroke="#A97742" stroke-width="2"/>
<path d="M781.696 225.382C790.387 233.979 799.135 245.389 802.423 250.019C813.23 234.962 852.01 217.998 920.671 270.601C989.333 323.204 951.848 293.899 924.523 272.671L965.353 288.473C975.447 300.852 1004.29 324.86 1038.93 321.869C1095.63 342.926 1211.41 385.095 1220.97 385.319L1321.11 408.447C1333.85 414.882 1362.48 428.222 1375.12 430.101C1387.75 431.98 1415.97 443.462 1428.5 448.969L1556.54 490.765" stroke="#A97742"/>
<path d="M781.085 253.282L801.655 261.88L1331.59 425.124" stroke="#A97742"/>
<path d="M779.392 260.963L901.265 305.585L1020.98 340.455L1238.22 401.956L1561.01 495.621" stroke="#A97742"/>
<path d="M776.773 264.465L898.647 309.087L1018.36 343.957L1235.6 405.458L1558.39 499.123" stroke="#A97742" stroke-width="0.5"/>
<path d="M778.007 270.038L899.881 314.659L1019.6 349.53L1236.84 411.031L1559.62 504.695" stroke="#A97742" stroke-width="0.5"/>
<path d="M779.241 275.61L901.115 320.231L1020.83 355.102L1238.07 416.603L1560.86 510.267" stroke="#A97742" stroke-width="0.5"/>
<path d="M769.536 277.758L893.115 323.031L1014.5 358.412L1234.79 420.815L1562.08 515.853" stroke="#A97742"/>
<path d="M767.535 284.047L890.564 329.182L1011.41 364.462L1230.71 426.687L1556.54 521.451" stroke="#A97742"/>
<path d="M757.061 298.056L881.192 343.461L1003.12 378.94L1224.39 441.514L1553.16 536.814" stroke="#A97742"/>
<path d="M768.769 289.619L891.906 335.244L1012.85 370.943L1232.31 433.916L1558.4 529.809" stroke="#A97742"/>
<path d="M759.68 294.554L883.919 340.448L1005.94 376.347L1227.38 439.67L1556.39 536.097" stroke="#A97742"/>
<path d="M754.442 301.558L879.783 347.722L1002.89 383.82L1226.3 447.492L1558.24 544.456" stroke="#A97742"/>
<path d="M733.647 314.93L858.166 359.736L980.503 394.686L1202.51 456.311L1532.36 550.186" stroke="#A97742"/>
<path d="M749.205 308.563L871.079 353.185L990.794 388.055L1208.04 449.556L1530.82 543.221" stroke="#A97742"/>
<path d="M1591.34 400.866L1591.34 400.857C1598.25 385.802 1596.9 376.03 1592.19 369.964C1587.53 363.958 1579.7 361.756 1573.92 361.543L816.025 180.143C816.024 180.143 816.024 180.142 816.024 180.142C809.654 178.588 803.011 178.954 797.335 180.027C792.874 180.87 788.989 182.153 786.274 183.303C793.209 175.258 802.398 173.473 811.371 174.25C819.909 174.99 828.184 178.044 834.037 180.205C834.75 180.468 835.428 180.718 836.065 180.949L836.093 180.959L836.122 180.966L1315.59 292.546L1315.59 292.548L1572.19 355.562L1572.22 355.568L1572.25 355.572C1590.33 357.963 1599.03 364.825 1602.65 372.297C1606.28 379.79 1604.89 388.047 1602.45 393.379C1575.05 442.69 1565.22 493.476 1562.02 514.782C1560.25 509.9 1560.04 502.829 1561 494.398C1562.06 485.012 1564.56 474.034 1567.83 462.713C1574.37 440.071 1583.98 416.112 1591.34 400.866Z" fill="#EFE3D0" stroke="#EFE3D0"/>
<path d="M776.373 216.662C782.345 188.452 802.893 190.82 812.42 195.53L1555.27 370.087C1587.32 367.668 1592.1 388.237 1590.48 398.824C1576.81 422.895 1555.22 500.154 1546.14 535.775L746.967 313.774C763.11 300.847 773.297 243.647 776.373 216.662Z" fill="#82592E" fill-opacity="0.25"/>
<path d="M1416.77 337.322C1415.73 336.94 1414.58 337.472 1414.2 338.509C1413.82 339.545 1414.35 340.695 1415.39 341.076L1416.77 337.322ZM1590.41 401.169L1416.77 337.322L1415.39 341.076L1589.03 404.923L1590.41 401.169Z" fill="#A97742"/>
<path d="M107.663 545.491C115.153 548.58 164.322 604.155 187.971 631.557L674.889 310.129C640.581 290.428 622.081 256.052 617.12 241.326C609.355 206.254 580.268 218.331 566.695 228.754L120.239 510.07C97.8842 519.766 102.541 537.724 107.663 545.491Z" fill="url(#paint1_linear_912_2770)" fill-opacity="0.18"/>
<path d="M217.389 633.048C229.348 650.274 208.969 646.115 197.285 641.883C198.333 640.482 194.793 633.18 192.892 629.704C187.096 615.789 198.693 620.139 205.216 624.053C197.326 612.94 209.888 619.609 217.156 624.332C194.225 594.337 213.917 604.591 226.629 613.467C220.975 606.327 230.999 605.106 236.718 605.388C231.909 595.931 242.519 595.823 248.425 596.951C236.96 581.953 250.786 587.173 259.132 591.658C252.228 585.003 264.06 583.26 270.839 583.22C264.489 572.936 276.203 574.239 282.854 576.176C277.684 565.088 285.27 566.648 289.709 568.814C273.434 544.359 288.781 554.406 298.489 562.486C295.961 557.2 303.701 557.922 307.886 558.944C302.891 542.514 315.305 549.021 322.136 554.328C318.375 543.47 330.736 544.63 337.387 546.567C330.237 538.798 340.312 534.229 346.243 532.916C337.058 522.09 353.045 520.207 362.186 520.618C355.343 508.105 370.58 509.992 379.054 512.5C373.505 499.7 384.547 501.542 390.761 504.063C388.848 489.289 396.023 494.617 399.85 499.128C394.115 479.355 406.344 485.026 413.175 490.333C403.99 479.506 418.026 479.03 426.191 480.144C415.466 468.49 428.86 471.76 436.897 474.851C429.621 454.25 442.749 460.404 450.222 466.056C439.064 446.315 455.74 452.657 465.473 458.296C455.856 439.382 466.497 442.482 473.02 446.396C467.471 433.596 479.335 439.152 485.96 443.531C479.364 432.132 489.733 432.466 495.742 434.059C489.392 423.774 500.234 426.245 506.448 428.766C485.798 402.942 506.933 413.071 520.081 421.363C513.978 412.193 523.392 413.324 528.861 415.035C514.007 403.126 527.242 405.165 535.716 407.673C527.81 401.24 543.462 398.651 552.276 398.161C542.327 390.015 560.454 389.116 570.762 389.684C564.966 375.77 578.103 376.856 585.396 379.138C580.093 367.452 593.815 366.071 601.339 366.84C596.366 358.589 602.964 359.661 606.884 361.229C606.196 351.989 615.48 351.515 620.208 352.433C615.452 343.213 625.826 342.038 631.607 342.603C626.858 333.416 638.306 331.983 644.624 332.415C640.308 325.187 649.346 323.089 654.405 322.943C651.383 315.429 661.362 316.044 666.729 317.292C667.001 306.257 678.243 313.093 683.83 317.89C692.521 326.487 679.235 325.239 671.506 323.541C673.726 333.57 664.215 331.487 659.182 329.192C659.862 338.394 654.228 340.031 651.327 339.699C655.149 344.698 647.938 344.833 643.856 344.275C650.512 349.816 642.727 349.396 638.002 348.494C649.835 352.888 634.922 355.021 625.987 355.538C634.924 365.25 622.984 364.971 615.897 363.617C623.787 374.73 611.38 373.872 604.19 372.054C614.668 382.594 598.8 383.477 589.556 382.601C601.882 389.224 584.936 392.391 574.922 393.147C584.046 409.832 568.762 406.201 559.98 402.301C574.094 410.866 554.821 412.211 543.42 411.812C552.851 423.753 532.202 425.012 520.698 424.149C526.247 436.949 512.381 437.681 504.755 436.447C513.385 450.903 496.849 451.836 487.502 450.496C497.734 459.921 485.039 459.809 477.413 458.575C479.634 468.605 464.269 470.74 456.309 470.554C467.527 484.437 449.482 485.704 439.056 484.602C448.488 496.543 429.378 494.539 418.644 492.044C434.299 501.438 418.852 503.202 409.172 502.909C423.965 520.677 400.599 520.395 387.067 518.032C400.627 530.228 383.372 532.002 373.05 531.365C390.925 550.788 357.339 552.379 338.312 550.746C342.935 553.23 327.658 561.386 319.442 565.153C331.462 576.521 309.302 578.114 296.72 577.49C311.328 588.285 287.864 591.141 274.307 591.22C278.995 612.394 261.523 610.125 252.202 606.344C265.762 618.539 244.193 621.268 231.714 621.109C253.779 634.928 231.358 634.826 217.389 633.048Z" fill="url(#paint2_linear_912_2770)" fill-opacity="0.1"/>
<path d="M542.405 830.735L180.479 682.9C203.893 666.026 195.878 650.264 188.944 644.493L211.049 629.37L715.261 814.384L542.405 830.735Z" fill="url(#paint3_linear_912_2770)" fill-opacity="0.08"/>
<path d="M1294.62 784.639C1224.31 748.086 1109.46 685.64 1212.57 728.278C1129.29 697.031 1006 646.002 1179.06 691.859C1151.48 684.813 1138.33 678.079 1306.39 707.506C1264.13 695.432 1209.48 677.524 1329.04 702.493C1306.54 692.86 1286.27 680.983 1385.12 710.535" stroke="#A97742" stroke-width="2"/>
<path d="M1635.8 494.55C1641.45 491.893 1647.64 490.385 1652.58 492.177L1144.37 921.842L1144.36 921.853L1144.34 921.865C1139.44 926.617 1131.68 934.998 1124.35 944.713C1117.04 954.4 1110.12 965.452 1106.89 975.577C1103.72 980.407 1098.58 987.639 1093.4 993.707C1090.79 996.753 1088.19 999.494 1085.83 1001.49C1084.65 1002.49 1083.54 1003.29 1082.53 1003.85C1081.51 1004.41 1080.63 1004.71 1079.9 1004.75L1079.82 1004.75L1079.74 1004.78C1072.02 1007.94 1050.16 1014.68 1017.45 1013.76L1017.43 1013.76L1017.41 1013.76C1014.59 1013.89 1006.46 1014.85 997.815 1016.34C989.23 1017.81 980.048 1019.83 975.033 1022.1C965.117 1023.08 952.305 1023.08 940.419 1021.15C928.477 1019.21 917.578 1015.35 911.44 1008.68L911.369 1008.6L911.273 1008.56L625.613 883.296L625.605 883.293L68.559 649.843C68.9283 647.406 71.4755 645.527 75.2985 644.732C79.2498 643.911 84.3274 644.321 88.9401 646.38L88.9401 646.38L88.9521 646.385L832.651 955.176C850.845 965.769 879.654 981.31 906.998 993.526C920.676 999.638 933.999 1004.92 945.448 1008.34C951.173 1010.05 956.439 1011.29 961.053 1011.94C965.661 1012.58 969.65 1012.64 972.806 1011.94L972.821 1011.93L972.835 1011.93C980.533 1009.74 993.245 1006.71 1006.34 1004.73C1019.46 1002.75 1032.89 1001.84 1042.07 1003.86L1042.13 1003.87L1042.19 1003.87C1048.17 1003.78 1057.74 1002.25 1067.09 997.955C1076.45 993.663 1085.61 986.593 1090.7 975.405C1095.31 965.631 1103.21 950.827 1111.92 938.183C1116.28 931.86 1120.83 926.091 1125.26 921.764C1129.71 917.421 1133.97 914.598 1137.75 914.042L1137.89 914.021L1138 913.929L1622.44 503.747L1622.46 503.727L1622.48 503.706C1624.71 501.304 1629.88 497.334 1635.8 494.55Z" fill="#E1C49A" stroke="#E1C49A"/>
<path d="M1432.75 695.96L1432.75 695.96L1432.76 695.952C1452.56 678.568 1465.83 667.991 1474.38 661.833C1478.66 658.753 1481.74 656.785 1483.86 655.624C1484.9 655.055 1485.7 654.686 1486.28 654.474L1472.8 672.777L1263.77 843.809L1283.01 820.784L1432.75 695.96Z" fill="#D2B693" stroke="#D2B693"/>
<path d="M804.658 252.447L979.994 308.613" stroke="#A97742" stroke-width="0.5"/>
<path d="M783.78 242.456L801.731 254.556L984.463 313.469" stroke="#A97742" stroke-width="0.5"/>
<path d="M407.497 328.687C422.682 358.333 459.381 417.463 484.701 416.808" stroke="#A97742" stroke-width="3"/>
<path d="M353.581 361.082C367.17 389.248 399.771 445.548 421.463 445.422" stroke="#A97742" stroke-width="3"/>
<path d="M338.638 370.235C352.227 398.401 384.828 454.702 406.52 454.575M370.14 351.57C383.729 379.736 419.874 436.714 441.566 436.587M372.142 345.282C385.731 373.448 421.876 430.425 443.568 430.299M376.994 344.208C390.584 372.374 426.728 429.351 448.42 429.224M383.465 342.775C397.054 370.941 433.199 427.918 454.891 427.792M392.245 336.447C405.834 364.613 441.979 421.59 463.671 421.464" stroke="#A97742"/>
<path d="M325.622 380.424C339.211 408.59 371.812 464.89 393.504 464.764" stroke="#A97742"/>
<path d="M333.71 378.633C347.299 406.799 379.9 463.099 401.592 462.973" stroke="#A97742"/>
<path d="M321.386 452.209L492.705 342.552C512.799 326.627 531.913 341.841 538.959 351.439C549.494 365.683 542.419 380.957 537.565 386.814L363.736 501.808C341.367 520.787 321.631 511.661 314.56 504.726C290.076 480.818 308.909 459.753 321.386 452.209Z" fill="#F4E1CA"/>
<path d="M583.791 214.359C593.726 212.97 600.594 214.868 604.405 217.471C602.772 216.953 600.916 216.716 598.939 216.692C595.489 216.652 591.602 217.26 587.728 218.229C579.985 220.165 572.205 223.565 567.932 226.236L567.931 226.237L119.585 508.163L119.578 508.168L119.571 508.173C104.145 518.64 100.464 528.607 102.402 536.896C104.319 545.097 111.693 551.405 117.842 554.712C125.575 559.356 134.186 569.064 141.533 578.981C147.328 586.804 152.303 594.713 155.403 600.274C149.366 593.604 140.105 585.041 130.815 576.846C122.212 569.258 113.56 561.965 107.378 556.754C105.689 555.33 104.185 554.062 102.916 552.985L102.903 552.974L102.889 552.965C96.8648 548.513 93.4923 543.871 91.9642 539.333C90.4368 534.796 90.736 530.315 92.1381 526.15C94.9511 517.795 102.192 510.763 107.861 507.342L107.869 507.337L530.874 241.251L530.898 241.236L530.92 241.219C553.376 223.318 571.06 216.14 583.791 214.359Z" fill="#EFE3D0" stroke="#EFE3D0"/>
<defs>
<filter id="filter0_d_912_2770" x="65.2754" y="175.138" width="1598.16" height="859.697" filterUnits="userSpaceOnUse" color-interpolation-filters="sRGB">
<feFlood flood-opacity="0" result="BackgroundImageFix"/>
<feColorMatrix in="SourceAlpha" type="matrix" values="0 0 0 0 0 0 0 0 0 0 0 0 0 0 0 0 0 0 127 0" result="hardAlpha"/>
<feOffset dy="4"/>
<feGaussianBlur stdDeviation="2"/>
<feComposite in2="hardAlpha" operator="out"/>
<feColorMatrix type="matrix" values="0 0 0 0 0 0 0 0 0 0 0 0 0 0 0 0 0 0 0.25 0"/>
<feBlend mode="normal" in2="BackgroundImageFix" result="effect1_dropShadow_912_2770"/>
<feBlend mode="normal" in="SourceGraphic" in2="effect1_dropShadow_912_2770" result="shape"/>
</filter>
<linearGradient id="paint0_linear_912_2770" x1="1392.51" y1="715.59" x2="1412.28" y2="736.708" gradientUnits="userSpaceOnUse">
<stop stop-color="#C39460"/>
<stop offset="0.9999" stop-color="#82592E"/>
</linearGradient>
<linearGradient id="paint1_linear_912_2770" x1="493.881" y1="445.626" x2="404.298" y2="323.534" gradientUnits="userSpaceOnUse">
<stop offset="0.025" stop-color="#82592E" stop-opacity="0.5"/>
<stop offset="0.510592" stop-color="#82592E"/>
<stop offset="1" stop-color="#1C130A"/>
</linearGradient>
<linearGradient id="paint2_linear_912_2770" x1="582.007" y1="496.095" x2="440.712" y2="293.954" gradientUnits="userSpaceOnUse">
<stop stop-color="white"/>
<stop offset="1" stop-color="#999999"/>
</linearGradient>
<linearGradient id="paint3_linear_912_2770" x1="699.551" y1="835.398" x2="257.952" y2="623.988" gradientUnits="userSpaceOnUse">
<stop stop-color="#82592E"/>
<stop offset="1" stop-color="#1C130A"/>
</linearGradient>
</defs>
</svg>
