<svg width="249" height="344" viewBox="0 0 249 344" fill="none" xmlns="http://www.w3.org/2000/svg">
<path d="M23.1754 183.219C4.46204 191.618 7.10803 210.327 10.7702 218.632C96.4885 271.97 194.883 240.671 233.365 218.354C246.095 203.98 234.327 191.098 226.851 186.455C154.68 134.694 60.996 162.73 23.1754 183.219Z" fill="#C27852"/>
<path d="M4 204.001C6.16667 204.668 10.1 206.701 8.5 209.501C10.8333 210.001 15.8 210.601 17 209.001C16.3333 211.501 17.4 215.401 27 211.001C27.5 210.835 28.4 211.001 28 213.001C27.8333 214.668 29.1 217.201 35.5 214.001C36.1667 213.501 37.6 213.301 38 216.501C38.3333 218.001 40.4 220.301 46 217.501C47.6667 216.501 51.2 215.101 52 217.501C52.8333 219.668 56 223.101 62 219.501C64 218.501 68.3 217.201 69.5 220.001C70.1667 222.168 73 225.301 79 220.501C80.1667 219.335 82.8 217.701 84 220.501C85.3333 223.168 89.4 227.101 95 221.501C96.5 220.001 100 217.801 102 221.001C103.5 223.835 107.8 228.001 113 222.001C114 220.501 116.9 218.401 120.5 222.001C122 223.668 125.7 226.101 128.5 222.501C129.5 221.168 133.1 219.101 139.5 221.501C141.333 223.001 145.5 225.101 147.5 221.501C148.333 220.001 151.3 217.601 156.5 220.001C159.833 222.001 166.7 224.401 167.5 218.001C167.5 217.168 168.5 215.901 172.5 217.501C176.167 219.668 183.5 222.301 183.5 215.501C183.5 214.501 184.1 213.101 186.5 215.501C189 217.835 194.5 220.801 196.5 214.001C196.833 212.835 198.5 211.201 202.5 214.001C205.667 215.668 212.1 217.701 212.5 212.501C212.333 211.335 212.7 209.501 215.5 211.501C219.167 213.668 226.2 216.201 225 209.001C224.833 208.501 225.1 207.801 227.5 209.001C230.667 210.335 236.7 211.301 235.5 204.501C237.167 205.335 239 206.5 239 202.5C241.227 202.659 245.125 202.425 245.475 202.055C245.492 202.013 245.5 201.995 245.5 202.001C245.5 202.02 245.491 202.038 245.475 202.055C244.269 205.092 200.042 332.402 131.5 289.501C90.1667 305.501 6.8 310.801 4 204.001Z" fill="#7F402A"/>
<path d="M4 204.001C6.16667 204.668 10.1 206.701 8.5 209.501C10.8333 210.001 15.8 210.601 17 209.001C16.3333 211.501 17.4 215.401 27 211.001C27.5 210.835 28.4 211.001 28 213.001C27.8333 214.668 29.1 217.201 35.5 214.001C36.1667 213.501 37.6 213.301 38 216.501C38.3333 218.001 40.4 220.301 46 217.501C47.6667 216.501 51.2 215.101 52 217.501C52.8333 219.668 56 223.101 62 219.501C64 218.501 68.3 217.201 69.5 220.001C70.1667 222.168 73 225.301 79 220.501C80.1667 219.335 82.8 217.701 84 220.501C85.3333 223.168 89.4 227.101 95 221.501C96.5 220.001 100 217.801 102 221.001C103.5 223.835 107.8 228.001 113 222.001C114 220.501 116.9 218.401 120.5 222.001C122 223.668 125.7 226.101 128.5 222.501C129.5 221.168 133.1 219.101 139.5 221.501C141.333 223.001 145.5 225.101 147.5 221.501C148.333 220.001 151.3 217.601 156.5 220.001C159.833 222.001 166.7 224.401 167.5 218.001C167.5 217.168 168.5 215.901 172.5 217.501C176.167 219.668 183.5 222.301 183.5 215.501C183.5 214.501 184.1 213.101 186.5 215.501C189 217.835 194.5 220.801 196.5 214.001C196.833 212.835 198.5 211.201 202.5 214.001C205.667 215.668 212.1 217.701 212.5 212.501C212.333 211.335 212.7 209.501 215.5 211.501C219.167 213.668 226.2 216.201 225 209.001C224.833 208.501 225.1 207.801 227.5 209.001C230.667 210.335 236.7 211.301 235.5 204.501C237.167 205.335 239 206.5 239 202.5C241.333 202.667 245.5 202.401 245.5 202.001C245.5 201.501 201 333.001 131.5 289.501C90.1667 305.501 6.8 310.801 4 204.001Z" stroke="#7F402A"/>
<path d="M9.52565 197.5C8.5 200.5 8.02565 204.5 8.52565 207L6.52539 207.5C6.69206 207.833 6.62539 208.8 5.02539 210C4.52539 210.667 4.72539 211.9 9.52539 211.5C8.35872 213.333 8.32539 216.4 17.5254 214C17.1921 216.167 18.5254 219.5 26.5254 215.5C27.1921 215.167 28.5254 215.1 28.5254 217.5C28.3587 219.333 29.2254 222.3 34.0254 219.5C34.8587 218.833 36.7254 217.8 37.5254 219C38.1921 221.167 40.3254 225 43.5254 223C46.5254 221.667 52.5254 219.7 52.5254 222.5C53.0254 224 55.0254 226.7 59.0254 225.5C62.0254 224 68.3254 221.7 69.5254 224.5C70.1921 226.5 72.8254 229.5 78.0254 225.5C79.6921 224 83.3254 221.9 84.5254 225.5C85.5254 227.5 88.8254 230.5 94.0254 226.5C96.3587 224.833 101.325 222.3 102.525 225.5C103.692 227.333 106.925 230.5 110.525 228.5C112.359 226.333 116.525 222.7 118.525 225.5C120.859 228.167 126.525 232.1 130.525 226.5C131.359 224.667 133.825 221.7 137.025 224.5C140.025 227 146.325 230.9 147.525 226.5C148.359 224.667 151.025 221.5 155.025 223.5C158.359 225.667 165.325 229.2 166.525 226C167.192 223.833 169.325 220 172.525 222C176.192 224.167 183.625 226.9 184.025 220.5C184.025 219 184.725 216.9 187.525 220.5C189.692 222.5 194.425 225.3 196.025 220.5C196.525 218.333 198.325 214.8 201.525 218C204.192 220 210.225 222.9 213.025 218.5C212.692 216.667 212.725 213.6 215.525 216C218.025 218 223.525 221 225.525 217C225.692 216.5 225.925 215.1 225.525 213.5C226.025 213.333 227.825 213.3 231.025 214.5C232.359 215.167 235.225 215.7 236.025 212.5C236.192 211.833 236.325 210.3 235.525 209.5C237.192 210.5 240.725 211.6 241.525 208C241.692 207.5 241.825 206.2 241.025 205C242.26 205 244.627 204.397 246.422 202.297C244.836 202.76 241.012 202.642 239.025 202.5C239.025 200.5 236.692 196.333 235.525 194.5L238.025 192L248.025 199.5C247.61 200.642 247.051 201.562 246.422 202.297C246.698 202.217 246.907 202.119 247.025 202C247.825 201.2 227.692 281.667 217.525 322C209.525 329.667 180.425 344.6 128.025 343C102.525 344 46.9254 341.5 28.5254 323.5C19.5033 287.411 1.60147 212.994 1.03926 199.596C0.988041 199.341 0.990653 199.14 1.0257 199L5.0257 194.5L9.52565 197.5Z" fill="#FFFF00"/>
<path d="M1.0257 199L5.0257 194.5L9.52565 197.5C8.5 200.5 8.02565 204.5 8.52565 207L6.52539 207.5M1.0257 199C0.859052 199.667 1.42574 201.7 5.0257 204.5C4.35883 204.833 3.22514 205.6 4.02539 206C4.85872 206.333 6.52539 207.1 6.52539 207.5M1.0257 199C1.0257 210.6 19.3588 286.833 28.5254 323.5C46.9254 341.5 102.525 344 128.025 343C180.425 344.6 209.525 329.667 217.525 322C227.692 281.667 247.825 201.2 247.025 202C246.225 202.8 241.359 202.667 239.025 202.5C239.025 200.5 236.692 196.333 235.525 194.5L238.025 192L248.025 199.5C246.425 203.9 242.692 205 241.025 205C241.825 206.2 241.692 207.5 241.525 208C240.725 211.6 237.192 210.5 235.525 209.5C236.325 210.3 236.192 211.833 236.025 212.5C235.225 215.7 232.359 215.167 231.025 214.5C227.825 213.3 226.025 213.333 225.525 213.5C225.925 215.1 225.692 216.5 225.525 217C223.525 221 218.025 218 215.525 216C212.725 213.6 212.692 216.667 213.025 218.5C210.225 222.9 204.192 220 201.525 218C198.325 214.8 196.525 218.333 196.025 220.5C194.425 225.3 189.692 222.5 187.525 220.5C184.725 216.9 184.025 219 184.025 220.5C183.625 226.9 176.192 224.167 172.525 222C169.325 220 167.192 223.833 166.525 226C165.325 229.2 158.359 225.667 155.025 223.5C151.025 221.5 148.359 224.667 147.525 226.5C146.325 230.9 140.025 227 137.025 224.5C133.825 221.7 131.359 224.667 130.525 226.5C126.525 232.1 120.859 228.167 118.525 225.5C116.525 222.7 112.359 226.333 110.525 228.5C106.925 230.5 103.692 227.333 102.525 225.5C101.325 222.3 96.3587 224.833 94.0254 226.5C88.8254 230.5 85.5254 227.5 84.5254 225.5C83.3254 221.9 79.6921 224 78.0254 225.5C72.8254 229.5 70.1921 226.5 69.5254 224.5C68.3254 221.7 62.0254 224 59.0254 225.5C55.0254 226.7 53.0254 224 52.5254 222.5C52.5254 219.7 46.5254 221.667 43.5254 223C40.3254 225 38.1921 221.167 37.5254 219C36.7254 217.8 34.8587 218.833 34.0254 219.5C29.2254 222.3 28.3587 219.333 28.5254 217.5C28.5254 215.1 27.1921 215.167 26.5254 215.5C18.5254 219.5 17.1921 216.167 17.5254 214C8.32539 216.4 8.35872 213.333 9.52539 211.5C4.72539 211.9 4.52539 210.667 5.02539 210C6.62539 208.8 6.69206 207.833 6.52539 207.5" stroke="#A3A300"/>
<path d="M17.5254 214C13.5254 215.2 10.8587 214.833 10.0254 214.5L34.5254 328C37.3254 329.6 38.3587 330 38.5254 330C20.0254 232 20.5254 217.5 19.0254 217C17.5075 216.494 17.3587 215 17.5254 214Z" fill="#FF0000"/>
<path d="M26.5254 215.5C24.9254 216.7 21.8587 217.333 20.5254 217.5C27.3587 255.333 41.1254 331.1 41.5254 331.5C41.9254 331.9 44.6921 333 46.0254 333.5L29.5254 220.5C28.3254 219.3 28.3587 218 28.5254 217.5C28.5254 215.1 27.1921 215.167 26.5254 215.5Z" fill="#FF0000"/>
<path d="M35.0254 219C32.6254 221 31.0254 220.833 30.5254 220.5L48.5254 334L54.5254 336L38.5254 221.5L37.5254 219.5C36.7254 217.9 35.5254 218.5 35.0254 219Z" fill="#FF0000"/>
<path d="M43.5254 223C42.5254 223.5 41.6921 223.667 41.0254 223.5L60.0254 337.5L66.0254 338.5C61.3587 300.167 51.9254 223.1 51.5254 221.5C51.1254 219.9 46.0254 221.833 43.5254 223Z" fill="#FF0000"/>
<path d="M60.0254 225C59.6254 225.4 58.1921 225.833 57.5254 226L71.0254 339.5L77.5254 340.5C74.6921 302 68.8254 224.7 68.0254 223.5C67.2254 222.3 62.3587 224 60.0254 225Z" fill="#FF0000"/>
<path d="M78.5254 225C77.3254 226.6 74.6921 227.333 73.5254 227.5L83.0254 341L92.0254 342C89.3587 302.667 83.7254 223.9 82.5254 223.5C81.3254 223.1 79.3587 224.333 78.5254 225Z" fill="#FF0000"/>
<path d="M94.0254 226.5C93.2254 227.3 91.0254 228.167 90.0254 228.5L99.5254 342.5L106.525 343C105.025 303.667 101.725 224.8 100.525 224C99.3254 223.2 95.6921 225.333 94.0254 226.5Z" fill="#FF0000"/>
<path d="M111.525 227.5C109.925 229.1 109.025 229.5 108.525 229.5L114.525 343H122.025L117.525 224.5C115.125 224.1 112.525 226.333 111.525 227.5Z" fill="#FF0000"/>
<path d="M130.525 226.5C129.725 228.1 127.192 229.167 126.025 229.5L128.525 343H135.025C135.025 303 134.725 223.1 133.525 223.5C132.325 223.9 131.025 225.667 130.525 226.5Z" fill="#FF0000"/>
<path d="M147.525 226.5C147.125 228.1 145.692 228.5 145.025 228.5L143.525 343L150.025 342.5L151.525 223C149.925 223 148.192 225.333 147.525 226.5Z" fill="#FF0000"/>
<path d="M166.525 226C166.125 227.2 164.359 227.167 163.525 227C164.725 229.4 159.025 304.667 156.025 342L162.025 341.5L168.525 222.5C167.725 222.5 166.859 224.833 166.525 226Z" fill="#FF0000"/>
<path d="M183.525 223C182.725 224.2 181.192 224.5 180.525 224.5L167.525 341L172.525 340L183.525 223Z" fill="#FF0000"/>
<path d="M196.025 220C195.625 222.8 193.525 223.167 192.525 223L179.525 338.5L185.025 337L198.025 217C197.225 217 196.359 219 196.025 220Z" fill="#FF0000"/>
<path d="M211.525 220C210.725 221.2 209.192 221.167 208.525 221L192.025 335L196.525 333.5L211.525 220Z" fill="#FF0000"/>
<path d="M224.025 218.5C223.225 219.3 222.025 219.167 221.525 219L201.025 332L205.025 330L224.025 218.5Z" fill="#FF0000"/>
<path d="M233.025 215C233.487 215 234.374 214.915 234.508 214.588L234.525 214.5C234.525 214.531 234.519 214.56 234.508 214.588L212.525 326L208.025 328.5L233.025 215Z" fill="#FF0000"/>
<path d="M239.525 210.5C240.053 210.236 240.998 209.576 241.37 208.717L241.525 208C241.525 208.25 241.467 208.49 241.37 208.717L216.525 323L214.025 325L239.525 210.5Z" fill="#FF0000"/>
<ellipse cx="196" cy="195.5" rx="1" ry="1.5" transform="rotate(-3.51054 196 195.5)" fill="#B15C3C"/>
<circle cx="193" cy="197" r="1" fill="#B15C3C"/>
<circle cx="186.5" cy="200.5" r="1.5" fill="#B15C3C"/>
<ellipse cx="202.5" cy="201" rx="1.5" ry="1" fill="#B15C3C"/>
<circle cx="212.5" cy="194.5" r="2.5" fill="#B15C3C"/>
<ellipse cx="219" cy="187.5" rx="1" ry="1.5" fill="#B15C3C"/>
<ellipse cx="69.649" cy="193.695" rx="1" ry="1.5" transform="rotate(150.237 69.649 193.695)" fill="#B15C3C"/>
<circle cx="71.6764" cy="191.023" r="1" transform="rotate(153.748 71.6764 191.023)" fill="#B15C3C"/>
<circle cx="75.958" cy="185.009" r="1.5" transform="rotate(153.748 75.958 185.009)" fill="#B15C3C"/>
<ellipse cx="61.3872" cy="191.638" rx="1.5" ry="1" transform="rotate(153.748 61.3872 191.638)" fill="#B15C3C"/>
<circle cx="55.2937" cy="201.89" r="2.5" transform="rotate(153.748 55.2937 201.89)" fill="#B15C3C"/>
<ellipse cx="52.5608" cy="211.043" rx="1" ry="1.5" transform="rotate(153.748 52.5608 211.043)" fill="#B15C3C"/>
<ellipse cx="122.649" cy="201.695" rx="1" ry="1.5" transform="rotate(150.237 122.649 201.695)" fill="#B15C3C"/>
<circle cx="124.676" cy="199.023" r="1" transform="rotate(153.748 124.676 199.023)" fill="#B15C3C"/>
<circle cx="128.958" cy="193.009" r="1.5" transform="rotate(153.748 128.958 193.009)" fill="#B15C3C"/>
<ellipse cx="114.387" cy="199.638" rx="1.5" ry="1" transform="rotate(153.748 114.387 199.638)" fill="#B15C3C"/>
<circle cx="31.3483" cy="185.348" r="2.5" transform="rotate(153.748 31.3483 185.348)" fill="#B15C3C"/>
<circle cx="108.294" cy="209.89" r="2.5" transform="rotate(153.748 108.294 209.89)" fill="#B15C3C"/>
<circle cx="93.3483" cy="211.348" r="2.5" transform="rotate(153.748 93.3483 211.348)" fill="#B15C3C"/>
<ellipse cx="105.561" cy="219.043" rx="1" ry="1.5" transform="rotate(153.748 105.561 219.043)" fill="#B15C3C"/>
<ellipse cx="97.649" cy="196.695" rx="1" ry="1.5" transform="rotate(150.237 97.649 196.695)" fill="#B15C3C"/>
<circle cx="99.6764" cy="194.023" r="1" transform="rotate(153.748 99.6764 194.023)" fill="#B15C3C"/>
<circle cx="103.958" cy="188.009" r="1.5" transform="rotate(153.748 103.958 188.009)" fill="#B15C3C"/>
<ellipse cx="89.3872" cy="194.638" rx="1.5" ry="1" transform="rotate(153.748 89.3872 194.638)" fill="#B15C3C"/>
<circle cx="83.2937" cy="204.89" r="2.5" transform="rotate(153.748 83.2937 204.89)" fill="#B15C3C"/>
<ellipse cx="80.5608" cy="214.043" rx="1" ry="1.5" transform="rotate(153.748 80.5608 214.043)" fill="#B15C3C"/>
<ellipse cx="31.5" cy="202" rx="1.5" ry="1" fill="#B15C3C"/>
<circle cx="41.5" cy="195.5" r="2.5" fill="#B15C3C"/>
<ellipse cx="48" cy="188.5" rx="1" ry="1.5" fill="#B15C3C"/>
<ellipse cx="141" cy="208.5" rx="1" ry="1.5" transform="rotate(-3.51054 141 208.5)" fill="#B15C3C"/>
<circle cx="138" cy="210" r="1" fill="#B15C3C"/>
<circle cx="131.5" cy="213.5" r="1.5" fill="#B15C3C"/>
<ellipse cx="147.5" cy="214" rx="1.5" ry="1" fill="#B15C3C"/>
<circle cx="157.5" cy="207.5" r="2.5" fill="#B15C3C"/>
<ellipse cx="164" cy="200.5" rx="1" ry="1.5" fill="#B15C3C"/>
<ellipse cx="143" cy="176.5" rx="1" ry="1.5" transform="rotate(-3.51054 143 176.5)" fill="#B15C3C"/>
<circle cx="140" cy="178" r="1" fill="#B15C3C"/>
<circle cx="133.5" cy="181.5" r="1.5" fill="#B15C3C"/>
<ellipse cx="149.5" cy="182" rx="1.5" ry="1" fill="#B15C3C"/>
<circle cx="159.5" cy="175.5" r="2.5" fill="#B15C3C"/>
<ellipse cx="166" cy="168.5" rx="1" ry="1.5" fill="#B15C3C"/>
<ellipse cx="168" cy="185.5" rx="1" ry="1.5" transform="rotate(-3.51054 168 185.5)" fill="#B15C3C"/>
<circle cx="165" cy="187" r="1" fill="#B15C3C"/>
<circle cx="158.5" cy="190.5" r="1.5" fill="#B15C3C"/>
<ellipse cx="174.5" cy="191" rx="1.5" ry="1" fill="#B15C3C"/>
<circle cx="184.5" cy="184.5" r="2.5" fill="#B15C3C"/>
<ellipse cx="191" cy="177.5" rx="1" ry="1.5" fill="#B15C3C"/>
<path d="M136.053 13.5C133.253 4.3 141.887 1.33333 146.553 1C138.952 6.6 143.054 11.6667 146.055 13.5C158.855 19.5 171.055 28.6667 175.555 32.5C192.355 46.1 187.221 65.8333 182.555 74C228.555 77.6 229.721 113.5 224.555 131C246.555 147.8 238.388 174.333 231.555 185.5C220.355 200.7 203.888 201.5 197.055 200C153.055 230 111.721 216.5 96.5547 206C54.9547 219.2 25.5546 201.833 16.0546 191.5C4.85462 179.1 11.721 166.667 16.5542 162C12.1542 157.6 13.0542 148.833 14.0542 145C16.8542 131 32.2206 129.167 39.5538 130C33.5538 124.8 35.3872 109.5 37.0538 102.5C42.6538 73.3 70.3869 72.6667 83.5534 76C74.7534 52 94.5534 42.3333 105.553 40.5C115.153 40.5 128.553 31.5 134.053 27C139.253 21.8 137.553 15.8333 136.053 13.5Z" fill="#F9F4DF" stroke="#F9F4DF"/>
<path d="M101.054 59.5C101.854 70.3 113.721 68.6666 119.554 66.5C129.954 58.0999 142.221 61.3333 147.055 64C154.255 68 160.721 62.6667 163.055 59.5C163.855 57.9 163.055 53.1667 162.555 51C162.555 45.8 168.221 47.5 171.055 49C179.855 54.2 179.388 64.5 178.055 69C172.855 79 147.221 82.5 135.055 83C114.655 86.6 97.8878 78.8333 92.0544 74.5C84.4544 66.1 87.5544 58.3333 90.0544 55.5C98.4544 49.1 100.888 55.5 101.054 59.5Z" fill="#F6EDD1"/>
<path d="M39.5547 116.5C40.3547 105.7 50.888 105.667 56.0547 107C61.6547 107.8 75.388 115.333 81.5547 119C82.0547 119.5 86.0547 122.167 87.5547 122C95.5547 121.6 101.888 125.167 104.055 127C110.055 131 118.888 130.333 122.555 129.5C133.755 125.9 143.555 123.667 147.055 123C154.255 121 167.055 123.167 172.555 124.5C177.555 126.5 194.055 124.5 195.555 124.5C201.555 124.9 206.055 115 207.555 110C210.755 103.6 214.888 105 216.555 106.5C222.955 112.5 220.555 123.333 218.555 128C217.755 134.4 183.888 136 167.055 136C147.855 142.4 122.721 141.667 112.555 140.5C104.555 139.3 85.5547 139 77.0547 139C48.2547 142.6 40.0547 125.5 39.5547 116.5Z" fill="#F6EDD1"/>
<path d="M27.0548 195.5C9.45484 184.3 12.0548 173.5 15.5548 169.5C18.355 165.1 23.7215 164.667 26.0547 165C29.6547 165.8 33.888 169.667 35.5547 171.5C39.9547 176.3 59.7214 177.167 69.0547 177C83.0547 177.4 99.2214 188.167 105.555 193.5C111.155 199.9 120.888 191.5 125.055 186.5C140.555 169 175.555 178.5 178.555 178.5C192.955 182.9 198.555 180.333 199.555 178.5C201.155 176.5 206.221 174.667 208.555 174C217.355 172.4 220.888 159.333 221.555 153C221.955 146.6 225.388 144.333 227.055 144C231.455 141.6 233.555 146.667 234.055 149.5C235.655 164.3 232.055 175.333 230.055 179C225.655 191 208.221 194.667 200.055 195C195.655 193.4 188.888 198 186.055 200.5C173.655 209.3 149.888 212.5 139.555 213C129.555 215.4 108.055 207.333 98.5547 203C93.7547 199.8 82.5547 202.333 77.5547 204C58.7547 210.8 36.0548 201.167 27.0548 195.5Z" fill="#F6EDD1"/>
<path d="M140.555 85C106.955 89.8 90.5547 78 86.5547 71.5C83.7547 67.9 100.055 75 108.555 79C112.955 81 118.388 80.8333 120.555 80.5C127.351 76.9 137.053 77.6667 141.055 78.5C150.255 80.9 156.555 78.1667 158.555 76.5C161.755 72.1 170.888 69.3333 175.055 68.5C177.055 67.7 177.221 61.5 177.055 58.5C179.455 55.3 180.721 60.5 181.055 63.5C182.655 77.9 154.721 83.8333 140.555 85Z" fill="#EAD8AC"/>
<path d="M42.5548 128.5C39.7548 121.3 43.7215 124.5 46.0548 127C46.0548 127.8 52.3881 133 55.5547 135.5C57.5547 140.3 72.7214 139.167 80.0547 138C85.6547 135.2 99.0547 135.833 105.055 136.5C108.655 138.1 112.888 138.833 114.555 139C121.755 137.4 128.888 138.333 131.555 139C139.955 141 154.055 138.167 160.055 136.5C164.055 133.7 170.055 133.333 172.555 133.5C176.555 134.7 181.221 133.667 183.055 133C185.055 132.2 196.555 132.667 202.055 133C204.455 133.4 208.055 132.167 209.555 131.5C211.955 130.7 214.555 130.167 215.555 130C219.955 130 215.721 133 213.055 134.5C209.455 135.7 181.555 137.333 168.055 138C156.455 140 141.221 144.5 135.055 146.5C129.855 151.3 114.555 145.833 107.555 142.5C97.5547 139.3 80.388 141.167 73.0547 142.5C55.0547 144.5 45.2215 134 42.5548 128.5Z" fill="#EAD8AC"/>
<path d="M178.901 110.29L181.079 97.474L190.603 101.121L183.626 112.454C183.238 109.122 180.026 109.636 178.901 110.29Z" fill="#FFFF00"/>
<rect x="153.544" y="59" width="90" height="28" rx="5" transform="rotate(19.9284 153.544 59)" fill="#FFFF00"/>
<path d="M64.0002 73.0097L71.2028 93.6048L66.8484 95.1276L61.0913 78.6656L60.9707 78.7078L57.2883 83.3137L55.9378 79.4521L59.9074 74.4411L64.0002 73.0097Z" fill="black"/>
<path d="M174 143.01L181.203 163.605L176.848 165.128L171.091 148.666L170.971 148.708L167.288 153.314L165.938 149.452L169.907 144.441L174 143.01ZM187.855 138.164L195.058 158.759L190.703 160.282L184.946 143.82L184.826 143.862L181.143 148.468L179.793 144.607L183.762 139.596L187.855 138.164Z" fill="black"/>
<path d="M146 39C146 55.0163 135.255 68 122 68C108.745 68 98 55.0163 98 39C98 22.9837 108.745 10 122 10C135.255 10 146 22.9837 146 39Z" fill="#FF0000"/>
<path d="M106.499 38.8168H137.207V42.7364H106.499V38.8168ZM119.377 34.4943H124.256V39.6594H119.377V34.4943ZM109.911 45.0442H133.502V55.997H128.622V48.8905H109.911V45.0442ZM110.425 22.9187H115.231V25.9225H128.475V22.9187H133.318V36.0328H110.425V22.9187ZM115.231 29.5491V32.2232H128.475V29.5491H115.231Z" fill="white"/>
<path d="M105 169.01L112.203 189.605L107.848 191.128L102.091 174.666L101.971 174.708L98.2883 179.314L96.9378 175.452L100.907 170.441L105 169.01ZM125.331 185.521C123.599 186.12 121.962 186.214 120.419 185.806C118.884 185.395 117.5 184.505 116.27 183.138C115.046 181.767 114.043 179.955 113.262 177.7C112.477 175.454 112.139 173.424 112.249 171.61C112.367 169.793 112.901 168.256 113.853 166.997C114.809 165.73 116.149 164.795 117.872 164.192C119.595 163.59 121.222 163.487 122.753 163.885C124.29 164.28 125.671 165.151 126.895 166.499C128.116 167.84 129.116 169.635 129.895 171.883C130.685 174.142 131.025 176.19 130.915 178.027C130.812 179.861 130.288 181.418 129.343 182.696C128.398 183.975 127.061 184.916 125.331 185.521ZM124.068 181.911C125.248 181.499 125.983 180.576 126.272 179.143C126.561 177.71 126.287 175.808 125.45 173.437C124.904 171.875 124.288 170.631 123.603 169.704C122.924 168.776 122.202 168.152 121.436 167.833C120.676 167.511 119.905 167.488 119.12 167.762C117.947 168.172 117.214 169.087 116.92 170.507C116.626 171.926 116.885 173.807 117.697 176.149C118.25 177.731 118.87 178.997 119.555 179.946C120.245 180.886 120.974 181.519 121.743 181.844C122.509 182.163 123.284 182.186 124.068 181.911Z" fill="black"/>
<path d="M117.665 100.758L116.466 97.3288L120.326 80.7762L123.283 79.7422L124.943 84.4887L123.193 85.1007L120.773 95.5742L120.829 95.7351L133.047 91.4621L134.268 94.9516L117.665 100.758ZM128.816 100.921L127.184 96.255L126.734 94.7084L121.694 80.2979L125.777 78.87L132.979 99.4651L128.816 100.921ZM146.055 95.2081C144.634 95.7052 143.276 95.8869 141.98 95.7531C140.691 95.6171 139.561 95.2035 138.589 94.5125C137.618 93.8214 136.911 92.8873 136.469 91.71L140.693 90.233C141.019 91.0143 141.58 91.5441 142.377 91.8221C143.174 92.1002 144.002 92.0892 144.86 91.789C145.544 91.5499 146.094 91.188 146.512 90.7035C146.933 90.2099 147.197 89.64 147.302 88.9938C147.411 88.3385 147.342 87.6556 147.093 86.9449C146.84 86.2209 146.463 85.6379 145.962 85.1961C145.468 84.7518 144.899 84.4693 144.255 84.3485C143.611 84.2276 142.942 84.2846 142.25 84.5194C141.646 84.7304 141.103 85.0596 140.62 85.5069C140.144 85.9519 139.823 86.4441 139.658 86.9833L135.543 87.6434L132.721 76.4416L145.311 72.0385L146.556 75.5984L137.556 78.746L138.827 84.0912L138.948 84.049C139.131 83.4129 139.53 82.7995 140.144 82.2087C140.757 81.6179 141.516 81.1643 142.421 80.8478C143.662 80.414 144.87 80.3188 146.046 80.5621C147.222 80.8054 148.27 81.3381 149.189 82.1601C150.107 82.9755 150.793 84.0447 151.248 85.3678C151.74 86.7532 151.85 88.0993 151.577 89.4061C151.308 90.7038 150.702 91.8639 149.758 92.8863C148.818 93.8996 147.584 94.6736 146.055 95.2081Z" fill="black"/>
<path d="M122.245 135.256C121.184 135.619 120.099 135.799 118.992 135.795C117.891 135.789 116.815 135.53 115.763 135.017C114.711 134.505 113.731 133.681 112.822 132.547C111.92 131.41 111.14 129.9 110.481 128.016C109.883 126.284 109.541 124.669 109.453 123.172C109.371 121.667 109.528 120.31 109.926 119.102C110.331 117.892 110.959 116.86 111.811 116.005C112.661 115.144 113.723 114.49 114.997 114.045C116.371 113.564 117.678 113.408 118.918 113.576C120.156 113.738 121.253 114.163 122.209 114.852C123.171 115.539 123.918 116.425 124.448 117.511L120.154 119.013C119.735 118.354 119.186 117.914 118.507 117.693C117.828 117.471 117.093 117.499 116.301 117.775C114.961 118.244 114.146 119.184 113.856 120.594C113.574 122.002 113.776 123.711 114.464 125.72L114.605 125.671C114.7 124.953 114.934 124.288 115.307 123.676C115.684 123.055 116.168 122.514 116.758 122.051C117.353 121.58 118.026 121.213 118.777 120.95C119.997 120.523 121.184 120.432 122.338 120.675C123.489 120.912 124.514 121.434 125.413 122.241C126.313 123.047 126.987 124.094 127.437 125.382C127.925 126.776 128.034 128.13 127.763 129.443C127.499 130.755 126.895 131.921 125.951 132.944C125.012 133.957 123.776 134.728 122.245 135.256ZM121.029 131.844C121.7 131.609 122.244 131.238 122.661 130.731C123.078 130.224 123.341 129.643 123.451 128.988C123.56 128.333 123.495 127.663 123.256 126.979C123.017 126.295 122.651 125.735 122.16 125.297C121.675 124.857 121.115 124.568 120.479 124.429C119.844 124.29 119.191 124.338 118.52 124.572C118.018 124.748 117.585 125.005 117.221 125.343C116.864 125.678 116.584 126.07 116.379 126.518C116.181 126.963 116.069 127.439 116.043 127.944C116.014 128.443 116.087 128.941 116.26 129.437C116.492 130.101 116.855 130.655 117.349 131.099C117.85 131.541 118.419 131.835 119.057 131.98C119.702 132.124 120.359 132.078 121.029 131.844Z" fill="black"/>
<path d="M56.119 137.671L50.891 158.853L46.4125 157.748L50.5913 140.816L50.4672 140.786L44.8658 142.629L45.846 138.658L51.9094 136.632L56.119 137.671ZM55.9255 160.096L56.722 156.869L65.9851 151.748C66.7796 151.286 67.4552 150.86 68.0122 150.471C68.576 150.083 69.0304 149.68 69.3754 149.26C69.7221 148.834 69.9643 148.341 70.1022 147.783C70.2553 147.162 70.2459 146.593 70.0738 146.075C69.9034 145.55 69.6032 145.106 69.1732 144.744C68.7449 144.375 68.2204 144.114 67.5998 143.961C66.9517 143.801 66.3539 143.792 65.8066 143.935C65.2592 144.078 64.7941 144.362 64.4113 144.787C64.0284 145.212 63.7536 145.762 63.5868 146.438L59.3358 145.389C59.6779 144.003 60.2886 142.877 61.168 142.011C62.0473 141.146 63.1213 140.573 64.39 140.294C65.6587 140.014 67.0308 140.057 68.5064 140.421C70.0234 140.795 71.2775 141.39 72.2687 142.205C73.2685 143.015 73.9656 143.97 74.3599 145.07C74.7543 146.169 74.8008 147.329 74.4996 148.55C74.3022 149.35 73.9487 150.1 73.4392 150.801C72.9366 151.503 72.168 152.232 71.1333 152.986C70.1003 153.733 68.6929 154.589 66.9113 155.554L63.0707 157.821L63.035 157.966L71.93 160.161L71.0264 163.823L55.9255 160.096Z" fill="black"/>
<path d="M164 111.056C169.846 108.234 186.331 107.871 187.5 119" stroke="#EAD8AC" stroke-width="3" stroke-linecap="round"/>
<path d="M174.231 84.185L188.487 89.1134L187.852 90.9507L173.596 86.0223L174.231 84.185ZM181.231 83.2722L183.494 84.0544L182.206 87.78L179.943 86.9978L181.231 83.2722ZM179.688 73.5779L190.746 77.4006L188.934 82.6403L180.156 79.6057L179.239 82.2596L176.993 81.4833L178.522 77.0601L187.3 80.0948L187.883 78.4106L179.07 75.3642L179.688 73.5779ZM177.305 80.5816L188.686 84.5161L188.057 86.3364L176.676 82.4019L177.305 80.5816ZM199.367 86.7801L205.032 88.7385L204.409 90.5418L198.744 88.5834L199.367 86.7801ZM189.91 89.5101L204.166 94.4385L203.525 96.2928L189.269 91.3644L189.91 89.5101ZM196.864 88.6764L199.11 89.4527L197.822 93.1784L195.576 92.4021L196.864 88.6764ZM201.255 81.3192L206.835 83.2482L206.206 85.0685L202.888 83.9217L201.312 88.481L199.049 87.6988L201.255 81.3192ZM194.716 79.0779L200.279 81.001L199.656 82.8043L196.356 81.6634L194.832 86.0695L192.57 85.2873L194.716 79.0779ZM192.852 84.4708L193.856 84.8177C195.676 85.447 197.004 85.8488 198.641 86.0719L198.153 87.9792C196.482 87.7443 195.103 87.3249 193.215 86.6721L192.211 86.3251L192.852 84.4708Z" fill="#004BFF"/>
</svg>
