<svg width="249" height="344" viewBox="0 0 249 344" fill="none" xmlns="http://www.w3.org/2000/svg">
<path d="M23.1754 183.219C4.46204 191.618 7.10803 210.327 10.7702 218.632C96.4885 271.97 194.883 240.671 233.365 218.354C246.095 203.98 234.327 191.098 226.851 186.455C154.68 134.694 60.996 162.73 23.1754 183.219Z" fill="#C27852"/>
<path d="M4 204.001C6.16667 204.668 10.1 206.701 8.5 209.501C10.8333 210.001 15.8 210.601 17 209.001C16.3333 211.501 17.4 215.401 27 211.001C27.5 210.835 28.4 211.001 28 213.001C27.8333 214.668 29.1 217.201 35.5 214.001C36.1667 213.501 37.6 213.301 38 216.501C38.3333 218.001 40.4 220.301 46 217.501C47.6667 216.501 51.2 215.101 52 217.501C52.8333 219.668 56 223.101 62 219.501C64 218.501 68.3 217.201 69.5 220.001C70.1667 222.168 73 225.301 79 220.501C80.1667 219.335 82.8 217.701 84 220.501C85.3333 223.168 89.4 227.101 95 221.501C96.5 220.001 100 217.801 102 221.001C103.5 223.835 107.8 228.001 113 222.001C114 220.501 116.9 218.401 120.5 222.001C122 223.668 125.7 226.101 128.5 222.501C129.5 221.168 133.1 219.101 139.5 221.501C141.333 223.001 145.5 225.101 147.5 221.501C148.333 220.001 151.3 217.601 156.5 220.001C159.833 222.001 166.7 224.401 167.5 218.001C167.5 217.168 168.5 215.901 172.5 217.501C176.167 219.668 183.5 222.301 183.5 215.501C183.5 214.501 184.1 213.101 186.5 215.501C189 217.835 194.5 220.801 196.5 214.001C196.833 212.835 198.5 211.201 202.5 214.001C205.667 215.668 212.1 217.701 212.5 212.501C212.333 211.335 212.7 209.501 215.5 211.501C219.167 213.668 226.2 216.201 225 209.001C224.833 208.501 225.1 207.801 227.5 209.001C230.667 210.335 236.7 211.301 235.5 204.501C237.167 205.335 239 206.5 239 202.5C241.227 202.659 245.125 202.425 245.475 202.055C245.492 202.013 245.5 201.995 245.5 202.001C245.5 202.02 245.491 202.038 245.475 202.055C244.269 205.092 200.042 332.402 131.5 289.501C90.1667 305.501 6.8 310.801 4 204.001Z" fill="#7F402A"/>
<path d="M4 204.001C6.16667 204.668 10.1 206.701 8.5 209.501C10.8333 210.001 15.8 210.601 17 209.001C16.3333 211.501 17.4 215.401 27 211.001C27.5 210.835 28.4 211.001 28 213.001C27.8333 214.668 29.1 217.201 35.5 214.001C36.1667 213.501 37.6 213.301 38 216.501C38.3333 218.001 40.4 220.301 46 217.501C47.6667 216.501 51.2 215.101 52 217.501C52.8333 219.668 56 223.101 62 219.501C64 218.501 68.3 217.201 69.5 220.001C70.1667 222.168 73 225.301 79 220.501C80.1667 219.335 82.8 217.701 84 220.501C85.3333 223.168 89.4 227.101 95 221.501C96.5 220.001 100 217.801 102 221.001C103.5 223.835 107.8 228.001 113 222.001C114 220.501 116.9 218.401 120.5 222.001C122 223.668 125.7 226.101 128.5 222.501C129.5 221.168 133.1 219.101 139.5 221.501C141.333 223.001 145.5 225.101 147.5 221.501C148.333 220.001 151.3 217.601 156.5 220.001C159.833 222.001 166.7 224.401 167.5 218.001C167.5 217.168 168.5 215.901 172.5 217.501C176.167 219.668 183.5 222.301 183.5 215.501C183.5 214.501 184.1 213.101 186.5 215.501C189 217.835 194.5 220.801 196.5 214.001C196.833 212.835 198.5 211.201 202.5 214.001C205.667 215.668 212.1 217.701 212.5 212.501C212.333 211.335 212.7 209.501 215.5 211.501C219.167 213.668 226.2 216.201 225 209.001C224.833 208.501 225.1 207.801 227.5 209.001C230.667 210.335 236.7 211.301 235.5 204.501C237.167 205.335 239 206.5 239 202.5C241.333 202.667 245.5 202.401 245.5 202.001C245.5 201.501 201 333.001 131.5 289.501C90.1667 305.501 6.8 310.801 4 204.001Z" stroke="#7F402A"/>
<path d="M9.52565 197.5C8.5 200.5 8.02565 204.5 8.52565 207L6.52539 207.5C6.69206 207.833 6.62539 208.8 5.02539 210C4.52539 210.667 4.72539 211.9 9.52539 211.5C8.35872 213.333 8.32539 216.4 17.5254 214C17.1921 216.167 18.5254 219.5 26.5254 215.5C27.1921 215.167 28.5254 215.1 28.5254 217.5C28.3587 219.333 29.2254 222.3 34.0254 219.5C34.8587 218.833 36.7254 217.8 37.5254 219C38.1921 221.167 40.3254 225 43.5254 223C46.5254 221.667 52.5254 219.7 52.5254 222.5C53.0254 224 55.0254 226.7 59.0254 225.5C62.0254 224 68.3254 221.7 69.5254 224.5C70.1921 226.5 72.8254 229.5 78.0254 225.5C79.6921 224 83.3254 221.9 84.5254 225.5C85.5254 227.5 88.8254 230.5 94.0254 226.5C96.3587 224.833 101.325 222.3 102.525 225.5C103.692 227.333 106.925 230.5 110.525 228.5C112.359 226.333 116.525 222.7 118.525 225.5C120.859 228.167 126.525 232.1 130.525 226.5C131.359 224.667 133.825 221.7 137.025 224.5C140.025 227 146.325 230.9 147.525 226.5C148.359 224.667 151.025 221.5 155.025 223.5C158.359 225.667 165.325 229.2 166.525 226C167.192 223.833 169.325 220 172.525 222C176.192 224.167 183.625 226.9 184.025 220.5C184.025 219 184.725 216.9 187.525 220.5C189.692 222.5 194.425 225.3 196.025 220.5C196.525 218.333 198.325 214.8 201.525 218C204.192 220 210.225 222.9 213.025 218.5C212.692 216.667 212.725 213.6 215.525 216C218.025 218 223.525 221 225.525 217C225.692 216.5 225.925 215.1 225.525 213.5C226.025 213.333 227.825 213.3 231.025 214.5C232.359 215.167 235.225 215.7 236.025 212.5C236.192 211.833 236.325 210.3 235.525 209.5C237.192 210.5 240.725 211.6 241.525 208C241.692 207.5 241.825 206.2 241.025 205C242.26 205 244.627 204.397 246.422 202.297C244.836 202.76 241.012 202.642 239.025 202.5C239.025 200.5 236.692 196.333 235.525 194.5L238.025 192L248.025 199.5C247.61 200.642 247.051 201.562 246.422 202.297C246.698 202.217 246.907 202.119 247.025 202C247.825 201.2 227.692 281.667 217.525 322C209.525 329.667 180.425 344.6 128.025 343C102.525 344 46.9254 341.5 28.5254 323.5C19.5033 287.411 1.60147 212.994 1.03926 199.596C0.988041 199.341 0.990653 199.14 1.0257 199L5.0257 194.5L9.52565 197.5Z" fill="#323232"/>
<path d="M1.0257 199L5.0257 194.5L9.52565 197.5C8.5 200.5 8.02565 204.5 8.52565 207L6.52539 207.5M1.0257 199C0.859052 199.667 1.42574 201.7 5.0257 204.5C4.35883 204.833 3.22514 205.6 4.02539 206C4.85872 206.333 6.52539 207.1 6.52539 207.5M1.0257 199C1.0257 210.6 19.3588 286.833 28.5254 323.5C46.9254 341.5 102.525 344 128.025 343C180.425 344.6 209.525 329.667 217.525 322C227.692 281.667 247.825 201.2 247.025 202C246.225 202.8 241.359 202.667 239.025 202.5C239.025 200.5 236.692 196.333 235.525 194.5L238.025 192L248.025 199.5C246.425 203.9 242.692 205 241.025 205C241.825 206.2 241.692 207.5 241.525 208C240.725 211.6 237.192 210.5 235.525 209.5C236.325 210.3 236.192 211.833 236.025 212.5C235.225 215.7 232.359 215.167 231.025 214.5C227.825 213.3 226.025 213.333 225.525 213.5C225.925 215.1 225.692 216.5 225.525 217C223.525 221 218.025 218 215.525 216C212.725 213.6 212.692 216.667 213.025 218.5C210.225 222.9 204.192 220 201.525 218C198.325 214.8 196.525 218.333 196.025 220.5C194.425 225.3 189.692 222.5 187.525 220.5C184.725 216.9 184.025 219 184.025 220.5C183.625 226.9 176.192 224.167 172.525 222C169.325 220 167.192 223.833 166.525 226C165.325 229.2 158.359 225.667 155.025 223.5C151.025 221.5 148.359 224.667 147.525 226.5C146.325 230.9 140.025 227 137.025 224.5C133.825 221.7 131.359 224.667 130.525 226.5C126.525 232.1 120.859 228.167 118.525 225.5C116.525 222.7 112.359 226.333 110.525 228.5C106.925 230.5 103.692 227.333 102.525 225.5C101.325 222.3 96.3587 224.833 94.0254 226.5C88.8254 230.5 85.5254 227.5 84.5254 225.5C83.3254 221.9 79.6921 224 78.0254 225.5C72.8254 229.5 70.1921 226.5 69.5254 224.5C68.3254 221.7 62.0254 224 59.0254 225.5C55.0254 226.7 53.0254 224 52.5254 222.5C52.5254 219.7 46.5254 221.667 43.5254 223C40.3254 225 38.1921 221.167 37.5254 219C36.7254 217.8 34.8587 218.833 34.0254 219.5C29.2254 222.3 28.3587 219.333 28.5254 217.5C28.5254 215.1 27.1921 215.167 26.5254 215.5C18.5254 219.5 17.1921 216.167 17.5254 214C8.32539 216.4 8.35872 213.333 9.52539 211.5C4.72539 211.9 4.52539 210.667 5.02539 210C6.62539 208.8 6.69206 207.833 6.52539 207.5" stroke="black"/>
<path d="M17.5254 214C13.5254 215.2 10.8587 214.833 10.0254 214.5L34.5254 328C37.3254 329.6 38.3587 330 38.5254 330C20.0254 232 20.5254 217.5 19.0254 217C17.5075 216.494 17.3587 215 17.5254 214Z" fill="#FC9400"/>
<path d="M26.5254 215.5C24.9254 216.7 21.8587 217.333 20.5254 217.5C27.3587 255.333 41.1254 331.1 41.5254 331.5C41.9254 331.9 44.6921 333 46.0254 333.5L29.5254 220.5C28.3254 219.3 28.3587 218 28.5254 217.5C28.5254 215.1 27.1921 215.167 26.5254 215.5Z" fill="#FC9400"/>
<path d="M35.0254 219C32.6254 221 31.0254 220.833 30.5254 220.5L48.5254 334L54.5254 336L38.5254 221.5L37.5254 219.5C36.7254 217.9 35.5254 218.5 35.0254 219Z" fill="#FC9400"/>
<path d="M43.5254 223C42.5254 223.5 41.6921 223.667 41.0254 223.5L60.0254 337.5L66.0254 338.5C61.3587 300.167 51.9254 223.1 51.5254 221.5C51.1254 219.9 46.0254 221.833 43.5254 223Z" fill="#FC9400"/>
<path d="M60.0254 225C59.6254 225.4 58.1921 225.833 57.5254 226L71.0254 339.5L77.5254 340.5C74.6921 302 68.8254 224.7 68.0254 223.5C67.2254 222.3 62.3587 224 60.0254 225Z" fill="#FC9400"/>
<path d="M78.5254 225C77.3254 226.6 74.6921 227.333 73.5254 227.5L83.0254 341L92.0254 342C89.3587 302.667 83.7254 223.9 82.5254 223.5C81.3254 223.1 79.3587 224.333 78.5254 225Z" fill="#FC9400"/>
<path d="M94.0254 226.5C93.2254 227.3 91.0254 228.167 90.0254 228.5L99.5254 342.5L106.525 343C105.025 303.667 101.725 224.8 100.525 224C99.3254 223.2 95.6921 225.333 94.0254 226.5Z" fill="#FC9400"/>
<path d="M111.525 227.5C109.925 229.1 109.025 229.5 108.525 229.5L114.525 343H122.025L117.525 224.5C115.125 224.1 112.525 226.333 111.525 227.5Z" fill="#FC9400"/>
<path d="M130.525 226.5C129.725 228.1 127.192 229.167 126.025 229.5L128.525 343H135.025C135.025 303 134.725 223.1 133.525 223.5C132.325 223.9 131.025 225.667 130.525 226.5Z" fill="#FC9400"/>
<path d="M147.525 226.5C147.125 228.1 145.692 228.5 145.025 228.5L143.525 343L150.025 342.5L151.525 223C149.925 223 148.192 225.333 147.525 226.5Z" fill="#FC9400"/>
<path d="M166.525 226C166.125 227.2 164.359 227.167 163.525 227C164.725 229.4 159.025 304.667 156.025 342L162.025 341.5L168.525 222.5C167.725 222.5 166.859 224.833 166.525 226Z" fill="#FC9400"/>
<path d="M183.525 223C182.725 224.2 181.192 224.5 180.525 224.5L167.525 341L172.525 340L183.525 223Z" fill="#FC9400"/>
<path d="M196.025 220C195.625 222.8 193.525 223.167 192.525 223L179.525 338.5L185.025 337L198.025 217C197.225 217 196.359 219 196.025 220Z" fill="#FC9400"/>
<path d="M211.525 220C210.725 221.2 209.192 221.167 208.525 221L192.025 335L196.525 333.5L211.525 220Z" fill="#FC9400"/>
<path d="M224.025 218.5C223.225 219.3 222.025 219.167 221.525 219L201.025 332L205.025 330L224.025 218.5Z" fill="#FC9400"/>
<path d="M233.025 215C233.487 215 234.374 214.915 234.508 214.588L234.525 214.5C234.525 214.531 234.519 214.56 234.508 214.588L212.525 326L208.025 328.5L233.025 215Z" fill="#FC9400"/>
<path d="M239.525 210.5C240.053 210.236 240.998 209.576 241.37 208.717L241.525 208C241.525 208.25 241.467 208.49 241.37 208.717L216.525 323L214.025 325L239.525 210.5Z" fill="#FC9400"/>
<ellipse cx="196" cy="195.5" rx="1" ry="1.5" transform="rotate(-3.51054 196 195.5)" fill="#B15C3C"/>
<circle cx="193" cy="197" r="1" fill="#B15C3C"/>
<circle cx="186.5" cy="200.5" r="1.5" fill="#B15C3C"/>
<ellipse cx="202.5" cy="201" rx="1.5" ry="1" fill="#B15C3C"/>
<circle cx="212.5" cy="194.5" r="2.5" fill="#B15C3C"/>
<ellipse cx="219" cy="187.5" rx="1" ry="1.5" fill="#B15C3C"/>
<ellipse cx="69.649" cy="193.695" rx="1" ry="1.5" transform="rotate(150.237 69.649 193.695)" fill="#B15C3C"/>
<circle cx="71.6764" cy="191.023" r="1" transform="rotate(153.748 71.6764 191.023)" fill="#B15C3C"/>
<circle cx="75.958" cy="185.009" r="1.5" transform="rotate(153.748 75.958 185.009)" fill="#B15C3C"/>
<ellipse cx="61.3872" cy="191.638" rx="1.5" ry="1" transform="rotate(153.748 61.3872 191.638)" fill="#B15C3C"/>
<circle cx="55.2937" cy="201.89" r="2.5" transform="rotate(153.748 55.2937 201.89)" fill="#B15C3C"/>
<ellipse cx="52.5608" cy="211.043" rx="1" ry="1.5" transform="rotate(153.748 52.5608 211.043)" fill="#B15C3C"/>
<ellipse cx="122.649" cy="201.695" rx="1" ry="1.5" transform="rotate(150.237 122.649 201.695)" fill="#B15C3C"/>
<circle cx="124.676" cy="199.023" r="1" transform="rotate(153.748 124.676 199.023)" fill="#B15C3C"/>
<circle cx="128.958" cy="193.009" r="1.5" transform="rotate(153.748 128.958 193.009)" fill="#B15C3C"/>
<ellipse cx="114.387" cy="199.638" rx="1.5" ry="1" transform="rotate(153.748 114.387 199.638)" fill="#B15C3C"/>
<circle cx="31.3483" cy="185.348" r="2.5" transform="rotate(153.748 31.3483 185.348)" fill="#B15C3C"/>
<circle cx="108.294" cy="209.89" r="2.5" transform="rotate(153.748 108.294 209.89)" fill="#B15C3C"/>
<circle cx="93.3483" cy="211.348" r="2.5" transform="rotate(153.748 93.3483 211.348)" fill="#B15C3C"/>
<ellipse cx="105.561" cy="219.043" rx="1" ry="1.5" transform="rotate(153.748 105.561 219.043)" fill="#B15C3C"/>
<ellipse cx="97.649" cy="196.695" rx="1" ry="1.5" transform="rotate(150.237 97.649 196.695)" fill="#B15C3C"/>
<circle cx="99.6764" cy="194.023" r="1" transform="rotate(153.748 99.6764 194.023)" fill="#B15C3C"/>
<circle cx="103.958" cy="188.009" r="1.5" transform="rotate(153.748 103.958 188.009)" fill="#B15C3C"/>
<ellipse cx="89.3872" cy="194.638" rx="1.5" ry="1" transform="rotate(153.748 89.3872 194.638)" fill="#B15C3C"/>
<circle cx="83.2937" cy="204.89" r="2.5" transform="rotate(153.748 83.2937 204.89)" fill="#B15C3C"/>
<ellipse cx="80.5608" cy="214.043" rx="1" ry="1.5" transform="rotate(153.748 80.5608 214.043)" fill="#B15C3C"/>
<ellipse cx="31.5" cy="202" rx="1.5" ry="1" fill="#B15C3C"/>
<circle cx="41.5" cy="195.5" r="2.5" fill="#B15C3C"/>
<ellipse cx="48" cy="188.5" rx="1" ry="1.5" fill="#B15C3C"/>
<ellipse cx="141" cy="208.5" rx="1" ry="1.5" transform="rotate(-3.51054 141 208.5)" fill="#B15C3C"/>
<circle cx="138" cy="210" r="1" fill="#B15C3C"/>
<circle cx="131.5" cy="213.5" r="1.5" fill="#B15C3C"/>
<ellipse cx="147.5" cy="214" rx="1.5" ry="1" fill="#B15C3C"/>
<circle cx="157.5" cy="207.5" r="2.5" fill="#B15C3C"/>
<ellipse cx="164" cy="200.5" rx="1" ry="1.5" fill="#B15C3C"/>
<ellipse cx="143" cy="176.5" rx="1" ry="1.5" transform="rotate(-3.51054 143 176.5)" fill="#B15C3C"/>
<circle cx="140" cy="178" r="1" fill="#B15C3C"/>
<circle cx="133.5" cy="181.5" r="1.5" fill="#B15C3C"/>
<ellipse cx="149.5" cy="182" rx="1.5" ry="1" fill="#B15C3C"/>
<circle cx="159.5" cy="175.5" r="2.5" fill="#B15C3C"/>
<ellipse cx="166" cy="168.5" rx="1" ry="1.5" fill="#B15C3C"/>
<ellipse cx="168" cy="185.5" rx="1" ry="1.5" transform="rotate(-3.51054 168 185.5)" fill="#B15C3C"/>
<circle cx="165" cy="187" r="1" fill="#B15C3C"/>
<circle cx="158.5" cy="190.5" r="1.5" fill="#B15C3C"/>
<ellipse cx="174.5" cy="191" rx="1.5" ry="1" fill="#B15C3C"/>
<circle cx="184.5" cy="184.5" r="2.5" fill="#B15C3C"/>
<ellipse cx="191" cy="177.5" rx="1" ry="1.5" fill="#B15C3C"/>
<path d="M136.053 13.5C133.253 4.3 141.887 1.33333 146.553 1C138.952 6.6 143.054 11.6667 146.055 13.5C158.855 19.5 171.055 28.6667 175.555 32.5C192.355 46.1 187.221 65.8333 182.555 74C228.555 77.6 229.721 113.5 224.555 131C246.555 147.8 238.388 174.333 231.555 185.5C220.355 200.7 203.888 201.5 197.055 200C153.055 230 111.721 216.5 96.5547 206C54.9547 219.2 25.5546 201.833 16.0546 191.5C4.85462 179.1 11.721 166.667 16.5542 162C12.1542 157.6 13.0542 148.833 14.0542 145C16.8542 131 32.2206 129.167 39.5538 130C33.5538 124.8 35.3872 109.5 37.0538 102.5C42.6538 73.3 70.3869 72.6667 83.5534 76C74.7534 52 94.5534 42.3333 105.553 40.5C115.153 40.5 128.553 31.5 134.053 27C139.253 21.8 137.553 15.8333 136.053 13.5Z" fill="#F9F4DF" stroke="#F9F4DF"/>
<path d="M101.054 59.5C101.854 70.3 113.721 68.6666 119.554 66.5C129.954 58.0999 142.221 61.3333 147.055 64C154.255 68 160.721 62.6667 163.055 59.5C163.855 57.9 163.055 53.1667 162.555 51C162.555 45.8 168.221 47.5 171.055 49C179.855 54.2 179.388 64.5 178.055 69C172.855 79 147.221 82.5 135.055 83C114.655 86.6 97.8878 78.8333 92.0544 74.5C84.4544 66.1 87.5544 58.3333 90.0544 55.5C98.4544 49.1 100.888 55.5 101.054 59.5Z" fill="#F6EDD1"/>
<path d="M39.5547 116.5C40.3547 105.7 50.888 105.667 56.0547 107C61.6547 107.8 75.388 115.333 81.5547 119C82.0547 119.5 86.0547 122.167 87.5547 122C95.5547 121.6 101.888 125.167 104.055 127C110.055 131 118.888 130.333 122.555 129.5C133.755 125.9 143.555 123.667 147.055 123C154.255 121 167.055 123.167 172.555 124.5C177.555 126.5 194.055 124.5 195.555 124.5C201.555 124.9 206.055 115 207.555 110C210.755 103.6 214.888 105 216.555 106.5C222.955 112.5 220.555 123.333 218.555 128C217.755 134.4 183.888 136 167.055 136C147.855 142.4 122.721 141.667 112.555 140.5C104.555 139.3 85.5547 139 77.0547 139C48.2547 142.6 40.0547 125.5 39.5547 116.5Z" fill="#F6EDD1"/>
<path d="M27.0548 195.5C9.45484 184.3 12.0548 173.5 15.5548 169.5C18.355 165.1 23.7215 164.667 26.0547 165C29.6547 165.8 33.888 169.667 35.5547 171.5C39.9547 176.3 59.7214 177.167 69.0547 177C83.0547 177.4 99.2214 188.167 105.555 193.5C111.155 199.9 120.888 191.5 125.055 186.5C140.555 169 175.555 178.5 178.555 178.5C192.955 182.9 198.555 180.333 199.555 178.5C201.155 176.5 206.221 174.667 208.555 174C217.355 172.4 220.888 159.333 221.555 153C221.955 146.6 225.388 144.333 227.055 144C231.455 141.6 233.555 146.667 234.055 149.5C235.655 164.3 232.055 175.333 230.055 179C225.655 191 208.221 194.667 200.055 195C195.655 193.4 188.888 198 186.055 200.5C173.655 209.3 149.888 212.5 139.555 213C129.555 215.4 108.055 207.333 98.5547 203C93.7547 199.8 82.5547 202.333 77.5547 204C58.7547 210.8 36.0548 201.167 27.0548 195.5Z" fill="#F6EDD1"/>
<path d="M140.555 85C106.955 89.8 90.5547 78 86.5547 71.5C83.7547 67.9 100.055 75 108.555 79C112.955 81 118.388 80.8333 120.555 80.5C127.351 76.9 137.053 77.6667 141.055 78.5C150.255 80.9 156.555 78.1667 158.555 76.5C161.755 72.1 170.888 69.3333 175.055 68.5C177.055 67.7 177.221 61.5 177.055 58.5C179.455 55.3 180.721 60.5 181.055 63.5C182.655 77.9 154.721 83.8333 140.555 85Z" fill="#EAD8AC"/>
<path d="M42.5548 128.5C39.7548 121.3 43.7215 124.5 46.0548 127C46.0548 127.8 52.3881 133 55.5547 135.5C57.5547 140.3 72.7214 139.167 80.0547 138C85.6547 135.2 99.0547 135.833 105.055 136.5C108.655 138.1 112.888 138.833 114.555 139C121.755 137.4 128.888 138.333 131.555 139C139.955 141 154.055 138.167 160.055 136.5C164.055 133.7 170.055 133.333 172.555 133.5C176.555 134.7 181.221 133.667 183.055 133C185.055 132.2 196.555 132.667 202.055 133C204.455 133.4 208.055 132.167 209.555 131.5C211.955 130.7 214.555 130.167 215.555 130C219.955 130 215.721 133 213.055 134.5C209.455 135.7 181.555 137.333 168.055 138C156.455 140 141.221 144.5 135.055 146.5C129.855 151.3 114.555 145.833 107.555 142.5C97.5547 139.3 80.388 141.167 73.0547 142.5C55.0547 144.5 45.2215 134 42.5548 128.5Z" fill="#EAD8AC"/>
<ellipse cx="117" cy="64.5" rx="22" ry="21.5" fill="#FC9400"/>
<circle cx="191" cy="173" r="14" fill="#FC9400"/>
<circle cx="199" cy="137" r="14" fill="#323232"/>
<circle cx="74" cy="105" r="14" fill="#323232"/>
<circle cx="156" cy="87" r="14" fill="#323232"/>
<circle cx="55" cy="162" r="14" fill="#FC9400"/>
<circle cx="138" cy="199" r="14" fill="#323232"/>
<circle cx="126" cy="148" r="14" fill="#FC9400"/>
<path d="M102.675 70.458L98.6268 69.6932L108.17 52.9927L113.038 53.9124L115.821 72.9418L111.773 72.177L109.902 57.5484L109.763 57.522L102.675 70.458ZM103.748 63.3877L113.309 65.1942L112.752 68.1427L103.191 66.3363L103.748 63.3877ZM135.089 64.5568L131.268 63.8348C131.291 63.3273 131.232 62.8613 131.089 62.4368C130.948 62.0065 130.734 61.6228 130.448 61.2858C130.163 60.9487 129.813 60.6657 129.398 60.4368C128.989 60.209 128.529 60.0468 128.017 59.9501C127.093 59.7754 126.244 59.8529 125.471 60.1827C124.699 60.5067 124.041 61.0691 123.499 61.87C122.957 62.6651 122.569 63.6821 122.335 64.9208C122.094 66.1944 122.081 67.3002 122.295 68.2382C122.516 69.1772 122.927 69.9326 123.53 70.5042C124.132 71.0759 124.884 71.4469 125.786 71.6172C126.292 71.7128 126.773 71.7344 127.228 71.6819C127.69 71.6306 128.113 71.5088 128.499 71.3166C128.886 71.1187 129.225 70.8545 129.516 70.524C129.813 70.1947 130.05 69.7998 130.228 69.3394L134.045 70.0787C133.792 70.8801 133.395 71.6243 132.856 72.3114C132.323 72.9938 131.669 73.5719 130.893 74.0457C130.123 74.5147 129.249 74.8374 128.27 75.0139C127.298 75.1856 126.239 75.1632 125.094 74.9467C123.5 74.6457 122.143 74.0159 121.023 73.0574C119.909 72.1 119.118 70.8693 118.649 69.3653C118.186 67.8624 118.138 66.1397 118.505 64.1972C118.873 62.249 119.553 60.6607 120.544 59.4325C121.535 58.2043 122.726 57.3512 124.117 56.8732C125.51 56.3894 126.991 56.2958 128.561 56.5925C129.597 56.7881 130.529 57.1148 131.358 57.5726C132.193 58.0315 132.9 58.6049 133.481 59.2929C134.063 59.975 134.493 60.758 134.772 61.6419C135.057 62.5269 135.162 63.4985 135.089 64.5568Z" fill="black"/>
<path d="M71.2884 111.817V96.7322H75.1023V111.817H71.2884ZM65.6527 106.182V102.368H80.7379V106.182H65.6527Z" fill="#F2F2F2"/>
<path d="M53.6668 155.644L54.9267 159.763L57.6517 156.397L60.7014 156.973L56.5832 161.746L58.7599 167.708L55.7241 167.135L54.3097 163.029L51.5298 166.342L48.4592 165.762L52.6541 161.004L50.5961 155.064L53.6668 155.644Z" fill="black"/>
<path d="M133.416 148.17L132.746 151.718L118.09 148.95L118.761 145.401L133.416 148.17ZM124.176 156.908C123.471 156.775 122.917 156.414 122.516 155.825C122.114 155.235 121.979 154.589 122.113 153.884C122.242 153.2 122.6 152.66 123.188 152.265C123.776 151.871 124.422 151.74 125.127 151.873C125.811 152.002 126.351 152.357 126.747 152.938C127.143 153.519 127.277 154.151 127.148 154.835C127.015 155.54 126.657 156.094 126.075 156.497C125.493 156.9 124.86 157.037 124.176 156.908ZM126.377 145.257C125.909 145.169 125.505 144.973 125.165 144.67C124.825 144.367 124.576 144.002 124.418 143.575C124.26 143.148 124.226 142.7 124.314 142.233C124.444 141.542 124.803 141.002 125.389 140.614C125.984 140.221 126.63 140.09 127.328 140.222C128.019 140.352 128.559 140.707 128.949 141.287C129.346 141.861 129.48 142.493 129.349 143.184C129.216 143.889 128.858 144.443 128.276 144.846C127.701 145.25 127.068 145.387 126.377 145.257Z" fill="black"/>
<path d="M142.178 196.97L142.813 200.514L133.019 202.269L132.384 198.724L142.178 196.97Z" fill="#F2F2F2"/>
<path d="M150.741 96.8523L149.695 93.3956L164.052 89.0516L165.098 92.5084L150.741 96.8523ZM148.174 88.3685L147.159 85.0137L161.516 80.6698L162.531 84.0245L148.174 88.3685ZM154.595 90.2769L151.445 79.8659L155.095 78.7614L158.245 89.1724L154.595 90.2769Z" fill="#F2F2F2"/>
<path d="M198.459 140.687L198.601 139.933C198.709 139.361 198.93 138.858 199.262 138.424C199.6 137.987 200.029 137.668 200.549 137.468C201.074 137.263 201.674 137.225 202.348 137.352C203.032 137.482 203.58 137.734 203.99 138.111C204.406 138.488 204.687 138.941 204.832 139.47C204.984 139.995 205.005 140.546 204.896 141.122L204.754 141.876C204.645 142.448 204.425 142.954 204.091 143.392C203.759 143.825 203.33 144.142 202.806 144.342C202.281 144.546 201.681 144.584 201.006 144.457C200.322 144.328 199.775 144.073 199.365 143.691C198.955 143.315 198.674 142.864 198.522 142.34C198.372 141.81 198.351 141.259 198.459 140.687ZM200.632 140.317L200.49 141.071C200.427 141.401 200.447 141.728 200.55 142.051C200.658 142.374 200.923 142.576 201.346 142.656C201.77 142.736 202.085 142.647 202.293 142.387C202.506 142.129 202.645 141.829 202.709 141.49L202.851 140.736C202.915 140.396 202.901 140.066 202.807 139.745C202.714 139.424 202.448 139.222 202.011 139.139C201.592 139.06 201.274 139.151 201.055 139.414C200.837 139.676 200.696 139.977 200.632 140.317ZM192.669 131.122L192.812 130.368C192.921 129.791 193.144 129.286 193.481 128.854C193.819 128.417 194.248 128.098 194.768 127.897C195.292 127.697 195.887 127.66 196.552 127.786C197.241 127.916 197.79 128.169 198.201 128.546C198.612 128.922 198.892 129.375 199.043 129.905C199.194 130.43 199.216 130.981 199.107 131.557L198.964 132.311C198.855 132.888 198.632 133.393 198.295 133.826C197.963 134.259 197.534 134.576 197.01 134.775C196.491 134.971 195.892 135.005 195.212 134.877C194.533 134.748 193.986 134.495 193.57 134.118C193.161 133.737 192.88 133.287 192.727 132.766C192.58 132.242 192.561 131.694 192.669 131.122ZM194.857 130.754L194.714 131.508C194.65 131.848 194.67 132.177 194.773 132.495C194.882 132.814 195.141 133.013 195.55 133.09C195.978 133.171 196.296 133.082 196.504 132.822C196.717 132.564 196.855 132.264 196.919 131.925L197.062 131.171C197.126 130.832 197.111 130.501 197.018 130.18C196.924 129.859 196.657 129.656 196.215 129.573C195.8 129.494 195.486 129.589 195.272 129.857C195.057 130.125 194.919 130.424 194.857 130.754ZM191.539 142.155L204.065 129.719L205.894 130.064L193.367 142.5L191.539 142.155Z" fill="#F2F2F2"/>
<path d="M184.106 173.666L183.01 170.046L197.092 165.785L198.188 169.405L184.106 173.666ZM186.154 180.436L185.059 176.816L199.141 172.556L200.236 176.176L186.154 180.436Z" fill="black"/>
<path d="M181.297 94.3896L183.476 81.5734L192.999 85.2209L186.022 96.5536C185.635 93.2219 182.423 93.7356 181.297 94.3896Z" fill="#A3A3A3"/>
<rect x="155.94" y="43.0995" width="90" height="28" rx="5" transform="rotate(19.9284 155.94 43.0995)" fill="#A3A3A3"/>
<path d="M168.001 96.1558C173.847 93.3332 190.332 92.9702 191.501 104.099" stroke="#EAD8AC" stroke-width="3" stroke-linecap="round"/>
<path d="M179.239 60.6433L182.437 61.749L181.814 63.5523L178.616 62.4466L179.239 60.6433ZM177.795 64.5437L181.011 65.6553L180.387 67.4585L177.172 66.347L177.795 64.5437ZM186.016 58.339L188.176 59.0859L182.731 74.8392L180.57 74.0923L186.016 58.339ZM182.649 57.556L184.758 58.2852L179.671 73.0007L177.562 72.2715L182.649 57.556ZM178.57 57.8409L180.748 58.5937C179.201 63.0679 176.622 66.1758 171.339 67.2444L170.61 65.2211C174.912 64.2898 177.094 62.111 178.411 58.3002L178.57 57.8409ZM174.64 56.4824L179.336 58.1056L178.712 59.9089L174.017 58.2857L174.64 56.4824ZM193.454 61.9959L195.308 62.637L194.72 64.3382C193.638 67.4684 191.297 69.6682 187.927 69.665L187.331 67.4782C190.296 67.5509 192.131 65.8236 192.866 63.6971L193.454 61.9959ZM193.896 62.1488L195.733 62.784L195.139 64.5022C194.457 66.4756 194.847 68.8195 197.093 70.5294L195.331 71.8817C192.74 69.9005 192.279 66.8272 193.302 63.8671L193.896 62.1488ZM200.39 63.3081L202.652 64.0903L198.671 75.6075L196.408 74.8253L200.39 63.3081ZM200.43 68.426L203.169 69.3729L202.522 71.2442L199.783 70.2974L200.43 68.426ZM187.768 74.257L198.485 77.9621L197.862 79.7654L187.144 76.0603L187.768 74.257ZM188.891 71.0077L191.171 71.7958L189.718 75.9978L187.438 75.2097L188.891 71.0077ZM216.754 68.9652L219.034 69.7533L213.588 85.5065L211.308 84.7185L216.754 68.9652ZM211.545 68.9929L213.791 69.7692C212.126 74.5836 209.129 77.9658 202.597 78.7359L202.046 76.5268C207.324 75.9136 209.946 73.6202 211.404 69.4012L211.545 68.9929ZM206.22 67.1521L212.617 69.3634L211.999 71.1496L205.603 68.9384L206.22 67.1521Z" fill="black"/>
<path d="M181.297 94.3896L183.476 81.5735L192.999 85.2209L186.022 96.5536C185.635 93.222 182.423 93.7357 181.297 94.3896Z" fill="#A3A3A3"/>
<rect x="155.94" y="43.0995" width="90" height="28" rx="5" transform="rotate(19.9284 155.94 43.0995)" fill="#A3A3A3"/>
<path d="M168.001 96.1558C173.847 93.3332 190.332 92.9703 191.501 104.099" stroke="#EAD8AC" stroke-width="3" stroke-linecap="round"/>
<path d="M179.239 60.6434L182.437 61.749L181.814 63.5523L178.616 62.4467L179.239 60.6434ZM177.795 64.5438L181.011 65.6553L180.387 67.4586L177.172 66.3471L177.795 64.5438ZM186.016 58.3391L188.176 59.086L182.731 74.8392L180.57 74.0923L186.016 58.3391ZM182.649 57.556L184.758 58.2853L179.671 73.0008L177.562 72.2715L182.649 57.556ZM178.57 57.841L180.748 58.5938C179.201 63.0679 176.622 66.1759 171.339 67.2444L170.61 65.2212C174.912 64.2898 177.094 62.111 178.411 58.3003L178.57 57.841ZM174.64 56.4824L179.336 58.1056L178.712 59.9089L174.017 58.2857L174.64 56.4824ZM193.454 61.996L195.308 62.637L194.72 64.3382C193.638 67.4685 191.297 69.6683 187.927 69.665L187.331 67.4782C190.296 67.5509 192.131 65.8237 192.866 63.6972L193.454 61.996ZM193.896 62.1489L195.733 62.784L195.139 64.5023C194.457 66.4757 194.847 68.8196 197.093 70.5295L195.331 71.8818C192.74 69.9006 192.279 66.8272 193.302 63.8671L193.896 62.1489ZM200.39 63.3081L202.652 64.0903L198.671 75.6075L196.408 74.8254L200.39 63.3081ZM200.43 68.4261L203.169 69.373L202.522 71.2443L199.783 70.2974L200.43 68.4261ZM187.768 74.2571L198.485 77.9622L197.862 79.7655L187.144 76.0604L187.768 74.2571ZM188.891 71.0078L191.171 71.7958L189.718 75.9978L187.438 75.2098L188.891 71.0078ZM216.754 68.9653L219.034 69.7534L213.588 85.5066L211.308 84.7185L216.754 68.9653ZM211.545 68.9929L213.791 69.7692C212.126 74.5837 209.129 77.9659 202.597 78.7359L202.046 76.5269C207.324 75.9137 209.946 73.6202 211.404 69.4012L211.545 68.9929ZM206.22 67.1521L212.617 69.3634L211.999 71.1497L205.603 68.9384L206.22 67.1521Z" fill="black"/>
</svg>
