<svg width="249" height="344" viewBox="0 0 249 344" fill="none" xmlns="http://www.w3.org/2000/svg">
<path d="M23.1754 183.219C4.46204 191.618 7.10803 210.327 10.7702 218.632C96.4885 271.97 194.883 240.671 233.365 218.354C246.095 203.98 234.327 191.098 226.851 186.455C154.68 134.694 60.996 162.73 23.1754 183.219Z" fill="#C27852"/>
<path d="M4 204.001C6.16667 204.668 10.1 206.701 8.5 209.501C10.8333 210.001 15.8 210.601 17 209.001C16.3333 211.501 17.4 215.401 27 211.001C27.5 210.835 28.4 211.001 28 213.001C27.8333 214.668 29.1 217.201 35.5 214.001C36.1667 213.501 37.6 213.301 38 216.501C38.3333 218.001 40.4 220.301 46 217.501C47.6667 216.501 51.2 215.101 52 217.501C52.8333 219.668 56 223.101 62 219.501C64 218.501 68.3 217.201 69.5 220.001C70.1667 222.168 73 225.301 79 220.501C80.1667 219.335 82.8 217.701 84 220.501C85.3333 223.168 89.4 227.101 95 221.501C96.5 220.001 100 217.801 102 221.001C103.5 223.835 107.8 228.001 113 222.001C114 220.501 116.9 218.401 120.5 222.001C122 223.668 125.7 226.101 128.5 222.501C129.5 221.168 133.1 219.101 139.5 221.501C141.333 223.001 145.5 225.101 147.5 221.501C148.333 220.001 151.3 217.601 156.5 220.001C159.833 222.001 166.7 224.401 167.5 218.001C167.5 217.168 168.5 215.901 172.5 217.501C176.167 219.668 183.5 222.301 183.5 215.501C183.5 214.501 184.1 213.101 186.5 215.501C189 217.835 194.5 220.801 196.5 214.001C196.833 212.835 198.5 211.201 202.5 214.001C205.667 215.668 212.1 217.701 212.5 212.501C212.333 211.335 212.7 209.501 215.5 211.501C219.167 213.668 226.2 216.201 225 209.001C224.833 208.501 225.1 207.801 227.5 209.001C230.667 210.335 236.7 211.301 235.5 204.501C237.167 205.335 239 206.5 239 202.5C241.227 202.659 245.125 202.425 245.475 202.055C245.492 202.013 245.5 201.995 245.5 202.001C245.5 202.02 245.491 202.038 245.475 202.055C244.269 205.092 200.042 332.402 131.5 289.501C90.1667 305.501 6.8 310.801 4 204.001Z" fill="#7F402A"/>
<path d="M4 204.001C6.16667 204.668 10.1 206.701 8.5 209.501C10.8333 210.001 15.8 210.601 17 209.001C16.3333 211.501 17.4 215.401 27 211.001C27.5 210.835 28.4 211.001 28 213.001C27.8333 214.668 29.1 217.201 35.5 214.001C36.1667 213.501 37.6 213.301 38 216.501C38.3333 218.001 40.4 220.301 46 217.501C47.6667 216.501 51.2 215.101 52 217.501C52.8333 219.668 56 223.101 62 219.501C64 218.501 68.3 217.201 69.5 220.001C70.1667 222.168 73 225.301 79 220.501C80.1667 219.335 82.8 217.701 84 220.501C85.3333 223.168 89.4 227.101 95 221.501C96.5 220.001 100 217.801 102 221.001C103.5 223.835 107.8 228.001 113 222.001C114 220.501 116.9 218.401 120.5 222.001C122 223.668 125.7 226.101 128.5 222.501C129.5 221.168 133.1 219.101 139.5 221.501C141.333 223.001 145.5 225.101 147.5 221.501C148.333 220.001 151.3 217.601 156.5 220.001C159.833 222.001 166.7 224.401 167.5 218.001C167.5 217.168 168.5 215.901 172.5 217.501C176.167 219.668 183.5 222.301 183.5 215.501C183.5 214.501 184.1 213.101 186.5 215.501C189 217.835 194.5 220.801 196.5 214.001C196.833 212.835 198.5 211.201 202.5 214.001C205.667 215.668 212.1 217.701 212.5 212.501C212.333 211.335 212.7 209.501 215.5 211.501C219.167 213.668 226.2 216.201 225 209.001C224.833 208.501 225.1 207.801 227.5 209.001C230.667 210.335 236.7 211.301 235.5 204.501C237.167 205.335 239 206.5 239 202.5C241.333 202.667 245.5 202.401 245.5 202.001C245.5 201.501 201 333.001 131.5 289.501C90.1667 305.501 6.8 310.801 4 204.001Z" stroke="#7F402A"/>
<path d="M9.52565 197.5C8.5 200.5 8.02565 204.5 8.52565 207L6.52539 207.5C6.69206 207.833 6.62539 208.8 5.02539 210C4.52539 210.667 4.72539 211.9 9.52539 211.5C8.35872 213.333 8.32539 216.4 17.5254 214C17.1921 216.167 18.5254 219.5 26.5254 215.5C27.1921 215.167 28.5254 215.1 28.5254 217.5C28.3587 219.333 29.2254 222.3 34.0254 219.5C34.8587 218.833 36.7254 217.8 37.5254 219C38.1921 221.167 40.3254 225 43.5254 223C46.5254 221.667 52.5254 219.7 52.5254 222.5C53.0254 224 55.0254 226.7 59.0254 225.5C62.0254 224 68.3254 221.7 69.5254 224.5C70.1921 226.5 72.8254 229.5 78.0254 225.5C79.6921 224 83.3254 221.9 84.5254 225.5C85.5254 227.5 88.8254 230.5 94.0254 226.5C96.3587 224.833 101.325 222.3 102.525 225.5C103.692 227.333 106.925 230.5 110.525 228.5C112.359 226.333 116.525 222.7 118.525 225.5C120.859 228.167 126.525 232.1 130.525 226.5C131.359 224.667 133.825 221.7 137.025 224.5C140.025 227 146.325 230.9 147.525 226.5C148.359 224.667 151.025 221.5 155.025 223.5C158.359 225.667 165.325 229.2 166.525 226C167.192 223.833 169.325 220 172.525 222C176.192 224.167 183.625 226.9 184.025 220.5C184.025 219 184.725 216.9 187.525 220.5C189.692 222.5 194.425 225.3 196.025 220.5C196.525 218.333 198.325 214.8 201.525 218C204.192 220 210.225 222.9 213.025 218.5C212.692 216.667 212.725 213.6 215.525 216C218.025 218 223.525 221 225.525 217C225.692 216.5 225.925 215.1 225.525 213.5C226.025 213.333 227.825 213.3 231.025 214.5C232.359 215.167 235.225 215.7 236.025 212.5C236.192 211.833 236.325 210.3 235.525 209.5C237.192 210.5 240.725 211.6 241.525 208C241.692 207.5 241.825 206.2 241.025 205C242.26 205 244.627 204.397 246.422 202.297C244.836 202.76 241.012 202.642 239.025 202.5C239.025 200.5 236.692 196.333 235.525 194.5L238.025 192L248.025 199.5C247.61 200.642 247.051 201.562 246.422 202.297C246.698 202.217 246.907 202.119 247.025 202C247.825 201.2 227.692 281.667 217.525 322C209.525 329.667 180.425 344.6 128.025 343C102.525 344 46.9254 341.5 28.5254 323.5C19.5033 287.411 1.60147 212.994 1.03926 199.596C0.988041 199.341 0.990653 199.14 1.0257 199L5.0257 194.5L9.52565 197.5Z" fill="#E8F6FD"/>
<path d="M1.0257 199L5.0257 194.5L9.52565 197.5C8.5 200.5 8.02565 204.5 8.52565 207L6.52539 207.5M1.0257 199C0.859052 199.667 1.42574 201.7 5.0257 204.5C4.35883 204.833 3.22514 205.6 4.02539 206C4.85872 206.333 6.52539 207.1 6.52539 207.5M1.0257 199C1.0257 210.6 19.3588 286.833 28.5254 323.5C46.9254 341.5 102.525 344 128.025 343C180.425 344.6 209.525 329.667 217.525 322C227.692 281.667 247.825 201.2 247.025 202C246.225 202.8 241.359 202.667 239.025 202.5C239.025 200.5 236.692 196.333 235.525 194.5L238.025 192L248.025 199.5C246.425 203.9 242.692 205 241.025 205C241.825 206.2 241.692 207.5 241.525 208C240.725 211.6 237.192 210.5 235.525 209.5C236.325 210.3 236.192 211.833 236.025 212.5C235.225 215.7 232.359 215.167 231.025 214.5C227.825 213.3 226.025 213.333 225.525 213.5C225.925 215.1 225.692 216.5 225.525 217C223.525 221 218.025 218 215.525 216C212.725 213.6 212.692 216.667 213.025 218.5C210.225 222.9 204.192 220 201.525 218C198.325 214.8 196.525 218.333 196.025 220.5C194.425 225.3 189.692 222.5 187.525 220.5C184.725 216.9 184.025 219 184.025 220.5C183.625 226.9 176.192 224.167 172.525 222C169.325 220 167.192 223.833 166.525 226C165.325 229.2 158.359 225.667 155.025 223.5C151.025 221.5 148.359 224.667 147.525 226.5C146.325 230.9 140.025 227 137.025 224.5C133.825 221.7 131.359 224.667 130.525 226.5C126.525 232.1 120.859 228.167 118.525 225.5C116.525 222.7 112.359 226.333 110.525 228.5C106.925 230.5 103.692 227.333 102.525 225.5C101.325 222.3 96.3587 224.833 94.0254 226.5C88.8254 230.5 85.5254 227.5 84.5254 225.5C83.3254 221.9 79.6921 224 78.0254 225.5C72.8254 229.5 70.1921 226.5 69.5254 224.5C68.3254 221.7 62.0254 224 59.0254 225.5C55.0254 226.7 53.0254 224 52.5254 222.5C52.5254 219.7 46.5254 221.667 43.5254 223C40.3254 225 38.1921 221.167 37.5254 219C36.7254 217.8 34.8587 218.833 34.0254 219.5C29.2254 222.3 28.3587 219.333 28.5254 217.5C28.5254 215.1 27.1921 215.167 26.5254 215.5C18.5254 219.5 17.1921 216.167 17.5254 214C8.32539 216.4 8.35872 213.333 9.52539 211.5C4.72539 211.9 4.52539 210.667 5.02539 210C6.62539 208.8 6.69206 207.833 6.52539 207.5" stroke="#7ED4FF"/>
<path d="M17.5254 214C13.5254 215.2 10.8587 214.833 10.0254 214.5L34.5254 328C37.3254 329.6 38.3587 330 38.5254 330C20.0254 232 20.5254 217.5 19.0254 217C17.5075 216.494 17.3587 215 17.5254 214Z" fill="#8AD3F3"/>
<path d="M26.5254 215.5C24.9254 216.7 21.8587 217.333 20.5254 217.5C27.3587 255.333 41.1254 331.1 41.5254 331.5C41.9254 331.9 44.6921 333 46.0254 333.5L29.5254 220.5C28.3254 219.3 28.3587 218 28.5254 217.5C28.5254 215.1 27.1921 215.167 26.5254 215.5Z" fill="#8AD3F3"/>
<path d="M35.0254 219C32.6254 221 31.0254 220.833 30.5254 220.5L48.5254 334L54.5254 336L38.5254 221.5L37.5254 219.5C36.7254 217.9 35.5254 218.5 35.0254 219Z" fill="#8AD3F3"/>
<path d="M43.5254 223C42.5254 223.5 41.6921 223.667 41.0254 223.5L60.0254 337.5L66.0254 338.5C61.3587 300.167 51.9254 223.1 51.5254 221.5C51.1254 219.9 46.0254 221.833 43.5254 223Z" fill="#8AD3F3"/>
<path d="M60.0254 225C59.6254 225.4 58.1921 225.833 57.5254 226L71.0254 339.5L77.5254 340.5C74.6921 302 68.8254 224.7 68.0254 223.5C67.2254 222.3 62.3587 224 60.0254 225Z" fill="#8AD3F3"/>
<path d="M78.5254 225C77.3254 226.6 74.6921 227.333 73.5254 227.5L83.0254 341L92.0254 342C89.3587 302.667 83.7254 223.9 82.5254 223.5C81.3254 223.1 79.3587 224.333 78.5254 225Z" fill="#8AD3F3"/>
<path d="M94.0254 226.5C93.2254 227.3 91.0254 228.167 90.0254 228.5L99.5254 342.5L106.525 343C105.025 303.667 101.725 224.8 100.525 224C99.3254 223.2 95.6921 225.333 94.0254 226.5Z" fill="#8AD3F3"/>
<path d="M111.525 227.5C109.925 229.1 109.025 229.5 108.525 229.5L114.525 343H122.025L117.525 224.5C115.125 224.1 112.525 226.333 111.525 227.5Z" fill="#8AD3F3"/>
<path d="M130.525 226.5C129.725 228.1 127.192 229.167 126.025 229.5L128.525 343H135.025C135.025 303 134.725 223.1 133.525 223.5C132.325 223.9 131.025 225.667 130.525 226.5Z" fill="#8AD3F3"/>
<path d="M147.525 226.5C147.125 228.1 145.692 228.5 145.025 228.5L143.525 343L150.025 342.5L151.525 223C149.925 223 148.192 225.333 147.525 226.5Z" fill="#8AD3F3"/>
<path d="M166.525 226C166.125 227.2 164.359 227.167 163.525 227C164.725 229.4 159.025 304.667 156.025 342L162.025 341.5L168.525 222.5C167.725 222.5 166.859 224.833 166.525 226Z" fill="#8AD3F3"/>
<path d="M183.525 223C182.725 224.2 181.192 224.5 180.525 224.5L167.525 341L172.525 340L183.525 223Z" fill="#8AD3F3"/>
<path d="M196.025 220C195.625 222.8 193.525 223.167 192.525 223L179.525 338.5L185.025 337L198.025 217C197.225 217 196.359 219 196.025 220Z" fill="#8AD3F3"/>
<path d="M211.525 220C210.725 221.2 209.192 221.167 208.525 221L192.025 335L196.525 333.5L211.525 220Z" fill="#8AD3F3"/>
<path d="M224.025 218.5C223.225 219.3 222.025 219.167 221.525 219L201.025 332L205.025 330L224.025 218.5Z" fill="#8AD3F3"/>
<path d="M233.025 215C233.487 215 234.374 214.915 234.508 214.588L234.525 214.5C234.525 214.531 234.519 214.56 234.508 214.588L212.525 326L208.025 328.5L233.025 215Z" fill="#8AD3F3"/>
<path d="M239.525 210.5C240.053 210.236 240.998 209.576 241.37 208.717L241.525 208C241.525 208.25 241.467 208.49 241.37 208.717L216.525 323L214.025 325L239.525 210.5Z" fill="#8AD3F3"/>
<ellipse cx="196" cy="195.5" rx="1" ry="1.5" transform="rotate(-3.51054 196 195.5)" fill="#B15C3C"/>
<circle cx="193" cy="197" r="1" fill="#B15C3C"/>
<circle cx="186.5" cy="200.5" r="1.5" fill="#B15C3C"/>
<ellipse cx="202.5" cy="201" rx="1.5" ry="1" fill="#B15C3C"/>
<circle cx="212.5" cy="194.5" r="2.5" fill="#B15C3C"/>
<ellipse cx="219" cy="187.5" rx="1" ry="1.5" fill="#B15C3C"/>
<ellipse cx="69.649" cy="193.695" rx="1" ry="1.5" transform="rotate(150.237 69.649 193.695)" fill="#B15C3C"/>
<circle cx="71.6764" cy="191.023" r="1" transform="rotate(153.748 71.6764 191.023)" fill="#B15C3C"/>
<circle cx="75.958" cy="185.009" r="1.5" transform="rotate(153.748 75.958 185.009)" fill="#B15C3C"/>
<ellipse cx="61.3872" cy="191.638" rx="1.5" ry="1" transform="rotate(153.748 61.3872 191.638)" fill="#B15C3C"/>
<circle cx="55.2937" cy="201.89" r="2.5" transform="rotate(153.748 55.2937 201.89)" fill="#B15C3C"/>
<ellipse cx="52.5608" cy="211.043" rx="1" ry="1.5" transform="rotate(153.748 52.5608 211.043)" fill="#B15C3C"/>
<ellipse cx="122.649" cy="201.695" rx="1" ry="1.5" transform="rotate(150.237 122.649 201.695)" fill="#B15C3C"/>
<circle cx="124.676" cy="199.023" r="1" transform="rotate(153.748 124.676 199.023)" fill="#B15C3C"/>
<circle cx="128.958" cy="193.009" r="1.5" transform="rotate(153.748 128.958 193.009)" fill="#B15C3C"/>
<ellipse cx="114.387" cy="199.638" rx="1.5" ry="1" transform="rotate(153.748 114.387 199.638)" fill="#B15C3C"/>
<circle cx="31.3483" cy="185.348" r="2.5" transform="rotate(153.748 31.3483 185.348)" fill="#B15C3C"/>
<circle cx="108.294" cy="209.89" r="2.5" transform="rotate(153.748 108.294 209.89)" fill="#B15C3C"/>
<circle cx="93.3483" cy="211.348" r="2.5" transform="rotate(153.748 93.3483 211.348)" fill="#B15C3C"/>
<ellipse cx="105.561" cy="219.043" rx="1" ry="1.5" transform="rotate(153.748 105.561 219.043)" fill="#B15C3C"/>
<ellipse cx="97.649" cy="196.695" rx="1" ry="1.5" transform="rotate(150.237 97.649 196.695)" fill="#B15C3C"/>
<circle cx="99.6764" cy="194.023" r="1" transform="rotate(153.748 99.6764 194.023)" fill="#B15C3C"/>
<circle cx="103.958" cy="188.009" r="1.5" transform="rotate(153.748 103.958 188.009)" fill="#B15C3C"/>
<ellipse cx="89.3872" cy="194.638" rx="1.5" ry="1" transform="rotate(153.748 89.3872 194.638)" fill="#B15C3C"/>
<circle cx="83.2937" cy="204.89" r="2.5" transform="rotate(153.748 83.2937 204.89)" fill="#B15C3C"/>
<ellipse cx="80.5608" cy="214.043" rx="1" ry="1.5" transform="rotate(153.748 80.5608 214.043)" fill="#B15C3C"/>
<ellipse cx="31.5" cy="202" rx="1.5" ry="1" fill="#B15C3C"/>
<circle cx="41.5" cy="195.5" r="2.5" fill="#B15C3C"/>
<ellipse cx="48" cy="188.5" rx="1" ry="1.5" fill="#B15C3C"/>
<ellipse cx="141" cy="208.5" rx="1" ry="1.5" transform="rotate(-3.51054 141 208.5)" fill="#B15C3C"/>
<circle cx="138" cy="210" r="1" fill="#B15C3C"/>
<circle cx="131.5" cy="213.5" r="1.5" fill="#B15C3C"/>
<ellipse cx="147.5" cy="214" rx="1.5" ry="1" fill="#B15C3C"/>
<circle cx="157.5" cy="207.5" r="2.5" fill="#B15C3C"/>
<ellipse cx="164" cy="200.5" rx="1" ry="1.5" fill="#B15C3C"/>
<ellipse cx="143" cy="176.5" rx="1" ry="1.5" transform="rotate(-3.51054 143 176.5)" fill="#B15C3C"/>
<circle cx="140" cy="178" r="1" fill="#B15C3C"/>
<circle cx="133.5" cy="181.5" r="1.5" fill="#B15C3C"/>
<ellipse cx="149.5" cy="182" rx="1.5" ry="1" fill="#B15C3C"/>
<circle cx="159.5" cy="175.5" r="2.5" fill="#B15C3C"/>
<ellipse cx="166" cy="168.5" rx="1" ry="1.5" fill="#B15C3C"/>
<ellipse cx="168" cy="185.5" rx="1" ry="1.5" transform="rotate(-3.51054 168 185.5)" fill="#B15C3C"/>
<circle cx="165" cy="187" r="1" fill="#B15C3C"/>
<circle cx="158.5" cy="190.5" r="1.5" fill="#B15C3C"/>
<ellipse cx="174.5" cy="191" rx="1.5" ry="1" fill="#B15C3C"/>
<circle cx="184.5" cy="184.5" r="2.5" fill="#B15C3C"/>
<ellipse cx="191" cy="177.5" rx="1" ry="1.5" fill="#B15C3C"/>
<path d="M136.053 13.5C133.253 4.3 141.887 1.33333 146.553 1C138.952 6.6 143.054 11.6667 146.055 13.5C158.855 19.5 171.055 28.6667 175.555 32.5C192.355 46.1 187.221 65.8333 182.555 74C228.555 77.6 229.721 113.5 224.555 131C246.555 147.8 238.388 174.333 231.555 185.5C220.355 200.7 203.888 201.5 197.055 200C153.055 230 111.721 216.5 96.5547 206C54.9547 219.2 25.5546 201.833 16.0546 191.5C4.85462 179.1 11.721 166.667 16.5542 162C12.1542 157.6 13.0542 148.833 14.0542 145C16.8542 131 32.2206 129.167 39.5538 130C33.5538 124.8 35.3872 109.5 37.0538 102.5C42.6538 73.3 70.3869 72.6667 83.5534 76C74.7534 52 94.5534 42.3333 105.553 40.5C115.153 40.5 128.553 31.5 134.053 27C139.253 21.8 137.553 15.8333 136.053 13.5Z" fill="#F9F4DF" stroke="#F9F4DF"/>
<path d="M101.054 59.5C101.854 70.3 113.721 68.6666 119.554 66.5C129.954 58.0999 142.221 61.3333 147.055 64C154.255 68 160.721 62.6667 163.055 59.5C163.855 57.9 163.055 53.1667 162.555 51C162.555 45.8 168.221 47.5 171.055 49C179.855 54.2 179.388 64.5 178.055 69C172.855 79 147.221 82.5 135.055 83C114.655 86.6 97.8878 78.8333 92.0544 74.5C84.4544 66.1 87.5544 58.3333 90.0544 55.5C98.4544 49.1 100.888 55.5 101.054 59.5Z" fill="#F6EDD1"/>
<path d="M39.5547 116.5C40.3547 105.7 50.888 105.667 56.0547 107C61.6547 107.8 75.388 115.333 81.5547 119C82.0547 119.5 86.0547 122.167 87.5547 122C95.5547 121.6 101.888 125.167 104.055 127C110.055 131 118.888 130.333 122.555 129.5C133.755 125.9 143.555 123.667 147.055 123C154.255 121 167.055 123.167 172.555 124.5C177.555 126.5 194.055 124.5 195.555 124.5C201.555 124.9 206.055 115 207.555 110C210.755 103.6 214.888 105 216.555 106.5C222.955 112.5 220.555 123.333 218.555 128C217.755 134.4 183.888 136 167.055 136C147.855 142.4 122.721 141.667 112.555 140.5C104.555 139.3 85.5547 139 77.0547 139C48.2547 142.6 40.0547 125.5 39.5547 116.5Z" fill="#F6EDD1"/>
<path d="M27.0548 195.5C9.45484 184.3 12.0548 173.5 15.5548 169.5C18.355 165.1 23.7215 164.667 26.0547 165C29.6547 165.8 33.888 169.667 35.5547 171.5C39.9547 176.3 59.7214 177.167 69.0547 177C83.0547 177.4 99.2214 188.167 105.555 193.5C111.155 199.9 120.888 191.5 125.055 186.5C140.555 169 175.555 178.5 178.555 178.5C192.955 182.9 198.555 180.333 199.555 178.5C201.155 176.5 206.221 174.667 208.555 174C217.355 172.4 220.888 159.333 221.555 153C221.955 146.6 225.388 144.333 227.055 144C231.455 141.6 233.555 146.667 234.055 149.5C235.655 164.3 232.055 175.333 230.055 179C225.655 191 208.221 194.667 200.055 195C195.655 193.4 188.888 198 186.055 200.5C173.655 209.3 149.888 212.5 139.555 213C129.555 215.4 108.055 207.333 98.5547 203C93.7547 199.8 82.5547 202.333 77.5547 204C58.7547 210.8 36.0548 201.167 27.0548 195.5Z" fill="#F6EDD1"/>
<path d="M140.555 85C106.955 89.8 90.5547 78 86.5547 71.5C83.7547 67.9 100.055 75 108.555 79C112.955 81 118.388 80.8333 120.555 80.5C127.351 76.9 137.053 77.6667 141.055 78.5C150.255 80.9 156.555 78.1667 158.555 76.5C161.755 72.1 170.888 69.3333 175.055 68.5C177.055 67.7 177.221 61.5 177.055 58.5C179.455 55.3 180.721 60.5 181.055 63.5C182.655 77.9 154.721 83.8333 140.555 85Z" fill="#EAD8AC"/>
<path d="M42.5548 128.5C39.7548 121.3 43.7215 124.5 46.0548 127C46.0548 127.8 52.3881 133 55.5547 135.5C57.5547 140.3 72.7214 139.167 80.0547 138C85.6547 135.2 99.0547 135.833 105.055 136.5C108.655 138.1 112.888 138.833 114.555 139C121.755 137.4 128.888 138.333 131.555 139C139.955 141 154.055 138.167 160.055 136.5C164.055 133.7 170.055 133.333 172.555 133.5C176.555 134.7 181.221 133.667 183.055 133C185.055 132.2 196.555 132.667 202.055 133C204.455 133.4 208.055 132.167 209.555 131.5C211.955 130.7 214.555 130.167 215.555 130C219.955 130 215.721 133 213.055 134.5C209.455 135.7 181.555 137.333 168.055 138C156.455 140 141.221 144.5 135.055 146.5C129.855 151.3 114.555 145.833 107.555 142.5C97.5547 139.3 80.388 141.167 73.0547 142.5C55.0547 144.5 45.2215 134 42.5548 128.5Z" fill="#EAD8AC"/>
<rect x="55.1035" y="151.419" width="33.611" height="22.4263" transform="rotate(27.4347 55.1035 151.419)" fill="#CD3A27"/>
<path d="M51.1299 140.181L55.1028 151.418L44.7714 171.32L41.5965 158.546L51.1299 140.181Z" fill="#EE5440"/>
<path d="M55.0959 151.415L51.1123 140.103L81.0356 155.637L84.8518 166.861L55.0959 151.415Z" fill="#F84A34"/>
<ellipse cx="60.3736" cy="145.111" rx="5.54677" ry="1.99345" transform="rotate(27.4347 60.3736 145.111)" fill="#F84A34"/>
<path d="M59.7377 146.746C55.9429 144.876 55.267 143.063 55.5273 142.408L54.6089 144.177C54.5704 145.686 57.9628 147.655 59.0234 148.122C62.6812 149.847 64.0591 149.624 64.4339 149.278L65.3523 147.509C64.5709 148.85 61.3662 147.571 59.7377 146.746Z" fill="#C13827"/>
<ellipse cx="64.1881" cy="151.391" rx="5.54677" ry="1.99345" transform="rotate(27.4347 64.1881 151.391)" fill="#F84A34"/>
<path d="M63.5522 153.026C59.7573 151.156 59.0815 149.343 59.3418 148.688L58.4233 150.458C58.3848 151.966 61.7773 153.935 62.8378 154.403C66.4957 156.127 67.8736 155.904 68.2483 155.558L69.1668 153.789C68.3854 155.13 65.1807 153.851 63.5522 153.026Z" fill="#C13827"/>
<ellipse cx="75.3346" cy="152.253" rx="5.54677" ry="1.99345" transform="rotate(27.4347 75.3346 152.253)" fill="#F84A34"/>
<path d="M74.6986 153.889C70.9038 152.018 70.228 150.206 70.4883 149.55L69.5698 151.32C69.5313 152.828 72.9238 154.797 73.9843 155.265C77.6422 156.989 79.0201 156.766 79.3948 156.42L80.3133 154.651C79.5319 155.992 76.3272 154.713 74.6986 153.889Z" fill="#C13827"/>
<ellipse cx="78.2633" cy="158.703" rx="5.54677" ry="1.99345" transform="rotate(27.4347 78.2633 158.703)" fill="#F84A34"/>
<path d="M77.6274 160.338C73.8325 158.468 73.1567 156.655 73.417 156L72.4985 157.769C72.46 159.278 75.8525 161.247 76.913 161.714C80.5709 163.438 81.9488 163.216 82.3235 162.869L83.242 161.1C82.4606 162.441 79.2559 161.163 77.6274 160.338Z" fill="#C13827"/>
<rect x="159.104" y="36.4185" width="33.611" height="22.4263" transform="rotate(27.4347 159.104 36.4185)" fill="#CD3A27"/>
<path d="M155.13 25.1812L159.103 36.4184L148.771 56.3202L145.596 43.5458L155.13 25.1812Z" fill="#EE5440"/>
<path d="M159.096 36.4145L155.112 25.1033L185.036 40.6371L188.852 51.8614L159.096 36.4145Z" fill="#F84A34"/>
<ellipse cx="164.374" cy="30.1111" rx="5.54677" ry="1.99345" transform="rotate(27.4347 164.374 30.1111)" fill="#F84A34"/>
<path d="M163.738 31.7464C159.943 29.8763 159.267 28.0634 159.527 27.4083L158.609 29.1775C158.57 30.6861 161.963 32.6552 163.023 33.1225C166.681 34.8467 168.059 34.624 168.434 34.2778L169.352 32.5086C168.571 33.8499 165.366 32.571 163.738 31.7464Z" fill="#C13827"/>
<ellipse cx="168.188" cy="36.3913" rx="5.54677" ry="1.99345" transform="rotate(27.4347 168.188 36.3913)" fill="#F84A34"/>
<path d="M167.552 38.0265C163.757 36.1563 163.081 34.3435 163.342 33.6884L162.423 35.4576C162.385 36.9662 165.777 38.9352 166.838 39.4026C170.496 41.1268 171.874 40.9041 172.248 40.5579L173.167 38.7887C172.385 40.13 169.181 38.8511 167.552 38.0265Z" fill="#C13827"/>
<ellipse cx="179.335" cy="37.2534" rx="5.54677" ry="1.99345" transform="rotate(27.4347 179.335 37.2534)" fill="#F84A34"/>
<path d="M178.699 38.8886C174.904 37.0185 174.228 35.2056 174.488 34.5505L173.57 36.3197C173.531 37.8283 176.924 39.7974 177.984 40.2647C181.642 41.9889 183.02 41.7662 183.395 41.4201L184.313 39.6508C183.532 40.9921 180.327 39.7132 178.699 38.8886Z" fill="#C13827"/>
<ellipse cx="182.263" cy="43.7028" rx="5.54677" ry="1.99345" transform="rotate(27.4347 182.263 43.7028)" fill="#F84A34"/>
<path d="M181.627 45.3379C177.833 43.4678 177.157 41.6549 177.417 40.9998L176.499 42.769C176.46 44.2776 179.852 46.2467 180.913 46.714C184.571 48.4382 185.949 48.2156 186.324 47.8694L187.242 46.1001C186.461 47.4414 183.256 46.1625 181.627 45.3379Z" fill="#C13827"/>
<rect x="178.462" y="175.357" width="33.611" height="22.4263" transform="rotate(-20.7334 178.462 175.357)" fill="#EBE11A"/>
<path d="M167.439 170.823L178.462 175.357L186.4 196.329L174.765 190.175L167.439 170.823Z" fill="#F8EE32"/>
<path d="M178.454 175.36L167.369 170.784L198.901 158.849L209.809 163.491L178.454 175.36Z" fill="#FBF23B"/>
<ellipse cx="177.278" cy="167.223" rx="5.54677" ry="1.99345" transform="rotate(-20.7334 177.278 167.223)" fill="#FBF23B"/>
<path d="M178.073 168.788C174.148 170.368 172.347 169.662 172.032 169.032L172.738 170.896C173.836 171.931 177.566 170.716 178.622 170.238C182.346 168.662 183.099 167.487 183.091 166.977L182.385 165.113C182.863 166.589 179.773 168.124 178.073 168.788Z" fill="#DDD30F"/>
<ellipse cx="184.501" cy="168.57" rx="5.54677" ry="1.99345" transform="rotate(-20.7334 184.501 168.57)" fill="#FBF23B"/>
<path d="M185.295 170.135C181.371 171.715 179.569 171.009 179.255 170.378L179.961 172.243C181.059 173.278 184.789 172.063 185.844 171.585C189.569 170.009 190.322 168.834 190.314 168.324L189.608 166.459C190.086 167.936 186.996 169.471 185.295 170.135Z" fill="#DDD30F"/>
<ellipse cx="192.578" cy="160.84" rx="5.54677" ry="1.99345" transform="rotate(-20.7334 192.578 160.84)" fill="#FBF23B"/>
<path d="M193.372 162.404C189.447 163.984 187.646 163.279 187.331 162.648L188.037 164.512C189.135 165.547 192.865 164.333 193.92 163.854C197.645 162.279 198.398 161.104 198.39 160.593L197.684 158.729C198.162 160.206 195.072 161.741 193.372 162.404Z" fill="#DDD30F"/>
<ellipse cx="199.337" cy="162.959" rx="5.54677" ry="1.99345" transform="rotate(-20.7334 199.337 162.959)" fill="#FBF23B"/>
<path d="M200.131 164.523C196.207 166.103 194.405 165.398 194.091 164.767L194.797 166.631C195.895 167.666 199.625 166.452 200.68 165.973C204.404 164.398 205.158 163.222 205.15 162.712L204.444 160.848C204.922 162.325 201.832 163.86 200.131 164.523Z" fill="#DDD30F"/>
<path d="M127.622 134.124L160.001 125.109L166.017 146.713L133.637 155.729L127.622 134.124Z" fill="#88D039"/>
<path d="M117.053 128.614L127.621 134.124L133.636 155.726L122.603 148.548L117.053 128.614Z" fill="#A0E852"/>
<path d="M127.613 134.127L116.986 128.57L149.466 119.526L159.911 125.134L127.613 134.127Z" fill="#A1E954"/>
<ellipse cx="127.175" cy="125.917" rx="5.54677" ry="1.99345" transform="rotate(-15.5588 127.175 125.917)" fill="#A1E954"/>
<path d="M127.825 127.546C123.774 128.766 122.043 127.901 121.787 127.244L122.322 129.165C123.322 130.295 127.146 129.421 128.241 129.04C132.092 127.807 132.948 126.704 132.986 126.196L132.451 124.275C132.795 125.789 129.578 127.039 127.825 127.546Z" fill="#88D039"/>
<ellipse cx="134.247" cy="127.91" rx="5.54677" ry="1.99345" transform="rotate(-15.5588 134.247 127.91)" fill="#A1E954"/>
<path d="M134.897 129.539C130.846 130.759 129.116 129.894 128.859 129.237L129.394 131.158C130.395 132.287 134.219 131.414 135.313 131.033C139.164 129.8 140.02 128.697 140.058 128.189L139.524 126.268C139.867 127.782 136.651 129.032 134.897 129.539Z" fill="#88D039"/>
<ellipse cx="142.989" cy="120.939" rx="5.54677" ry="1.99345" transform="rotate(-15.5588 142.989 120.939)" fill="#A1E954"/>
<path d="M143.638 122.569C139.587 123.789 137.857 122.924 137.601 122.267L138.135 124.187C139.136 125.317 142.96 124.444 144.054 124.062C147.906 122.829 148.762 121.727 148.8 121.218L148.265 119.298C148.608 120.812 145.392 122.061 143.638 122.569Z" fill="#88D039"/>
<ellipse cx="149.529" cy="123.659" rx="5.54677" ry="1.99345" transform="rotate(-15.5588 149.529 123.659)" fill="#A1E954"/>
<path d="M150.178 125.289C146.128 126.508 144.397 125.643 144.141 124.987L144.675 126.907C145.676 128.037 149.5 127.164 150.594 126.782C154.446 125.549 155.302 124.447 155.34 123.938L154.805 122.017C155.148 123.531 151.932 124.781 150.178 125.289Z" fill="#88D039"/>
<rect x="81.6963" y="77.0916" width="33.611" height="22.4263" transform="rotate(-11.5543 81.6963 77.0916)" fill="#2D50A8"/>
<path d="M71.5371 70.8571L81.6953 77.0917L86.1866 99.0609L75.6816 91.1294L71.5371 70.8571Z" fill="#3661CC"/>
<path d="M81.6876 77.0932L71.4746 70.8077L104.506 64.0547L114.535 70.378L81.6876 77.0932Z" fill="#3661CC"/>
<ellipse cx="81.8239" cy="68.8728" rx="5.54677" ry="1.99345" transform="rotate(-11.5543 81.8239 68.8728)" fill="#3661CC"/>
<path d="M82.3585 70.544C78.2322 71.478 76.5663 70.4941 76.3564 69.8211L76.7557 71.7742C77.675 72.9709 81.5507 72.367 82.669 72.063C86.5969 71.1017 87.5279 70.0617 87.6013 69.5569L87.202 67.6038C87.4386 69.138 84.1431 70.1603 82.3585 70.544Z" fill="#2D50A8"/>
<ellipse cx="88.7399" cy="71.3548" rx="5.54677" ry="1.99345" transform="rotate(-11.5543 88.7399 71.3548)" fill="#3661CC"/>
<path d="M89.2745 73.0258C85.1482 73.9598 83.4823 72.976 83.2725 72.303L83.6717 74.256C84.591 75.4528 88.4667 74.8489 89.585 74.5449C93.513 73.5836 94.4439 72.5436 94.5173 72.0388L94.1181 70.0857C94.3546 71.6199 91.0591 72.6421 89.2745 73.0258Z" fill="#2D50A8"/>
<ellipse cx="97.946" cy="65.0117" rx="5.54677" ry="1.99345" transform="rotate(-11.5543 97.946 65.0117)" fill="#3661CC"/>
<path d="M98.4805 66.6828C94.3543 67.6168 92.6884 66.633 92.4785 65.96L92.8778 67.913C93.797 69.1098 97.6727 68.5058 98.7911 68.2019C102.719 67.2406 103.65 66.2006 103.723 65.6957L103.324 63.7427C103.561 65.2769 100.265 66.2991 98.4805 66.6828Z" fill="#2D50A8"/>
<ellipse cx="104.281" cy="68.1817" rx="5.54677" ry="1.99345" transform="rotate(-11.5543 104.281 68.1817)" fill="#3661CC"/>
<path d="M104.815 69.8527C100.689 70.7867 99.0233 69.8028 98.8135 69.1298L99.2128 71.0829C100.132 72.2797 104.008 71.6757 105.126 71.3717C109.054 70.4104 109.985 69.3704 110.058 68.8656L109.659 66.9125C109.896 68.4467 106.6 69.469 104.815 69.8527Z" fill="#2D50A8"/>
<path d="M187.296 100.29L189.475 87.4739L198.998 91.1214L192.021 102.454C191.634 99.1225 188.422 99.6361 187.296 100.29Z" fill="#3661CC"/>
<rect x="161.939" y="49" width="90" height="28" rx="5" transform="rotate(19.9284 161.939 49)" fill="#3661CC"/>
<path d="M174 102.056C179.846 99.2337 196.331 98.8708 197.5 110" stroke="#EAD8AC" stroke-width="3" stroke-linecap="round"/>
<path d="M177.631 70.8655L178.958 71.3242C181.611 72.2417 183.648 72.9075 186.125 73.3448L185.705 75.2187C183.194 74.7696 181.027 74.0966 178.322 73.1615L176.995 72.7028L177.631 70.8655ZM180.759 61.815L188.16 64.3733L187.524 66.2106L182.404 64.4404L179.704 72.249L177.425 71.4609L180.759 61.815ZM180.983 66.787L186.427 68.669L185.815 70.4382L180.371 68.5563L180.983 66.787ZM190.671 63.775L192.951 64.5631L187.505 80.3163L185.225 79.5282L190.671 63.775ZM190.376 70.3579L193.166 71.3224L192.519 73.1937L189.729 72.2292L190.376 70.3579ZM207.058 69.421L209.338 70.2091L203.874 86.0134L201.595 85.2253L207.058 69.421ZM200.466 68.3802C202.848 69.2036 203.848 71.9869 202.66 75.4233C201.46 78.8938 198.955 80.4656 196.573 79.6422C194.191 78.8189 193.192 76.0356 194.392 72.5651C195.58 69.1287 198.085 67.5569 200.466 68.3802ZM199.755 70.4387C198.581 70.0329 197.352 70.9984 196.552 73.312C195.741 75.6597 196.105 77.195 197.279 77.6008C198.453 78.0066 199.671 77.0182 200.482 74.6705C201.282 72.3569 200.929 70.8445 199.755 70.4387ZM212.001 72.6916L219.521 75.2911L215.875 85.8386L208.355 83.2391L212.001 72.6916ZM216.675 76.3069L213.613 75.2483L211.195 82.2403L214.258 83.2989L216.675 76.3069ZM222.878 74.89L225.124 75.6663L219.66 91.4705L217.415 90.6942L222.878 74.89ZM217.696 79.1929L221.915 80.6514L221.286 82.4717L217.067 81.0132L217.696 79.1929Z" fill="#E8F6FD"/>
</svg>
