<svg width="249" height="344" viewBox="0 0 249 344" fill="none" xmlns="http://www.w3.org/2000/svg">
<path d="M23.1754 183.219C4.46204 191.618 7.10803 210.327 10.7702 218.632C96.4885 271.97 194.883 240.671 233.365 218.354C246.095 203.98 234.327 191.098 226.851 186.455C154.68 134.694 60.996 162.73 23.1754 183.219Z" fill="#C27852"/>
<path d="M4 204.001C6.16667 204.668 10.1 206.701 8.5 209.501C10.8333 210.001 15.8 210.601 17 209.001C16.3333 211.501 17.4 215.401 27 211.001C27.5 210.835 28.4 211.001 28 213.001C27.8333 214.668 29.1 217.201 35.5 214.001C36.1667 213.501 37.6 213.301 38 216.501C38.3333 218.001 40.4 220.301 46 217.501C47.6667 216.501 51.2 215.101 52 217.501C52.8333 219.668 56 223.101 62 219.501C64 218.501 68.3 217.201 69.5 220.001C70.1667 222.168 73 225.301 79 220.501C80.1667 219.335 82.8 217.701 84 220.501C85.3333 223.168 89.4 227.101 95 221.501C96.5 220.001 100 217.801 102 221.001C103.5 223.835 107.8 228.001 113 222.001C114 220.501 116.9 218.401 120.5 222.001C122 223.668 125.7 226.101 128.5 222.501C129.5 221.168 133.1 219.101 139.5 221.501C141.333 223.001 145.5 225.101 147.5 221.501C148.333 220.001 151.3 217.601 156.5 220.001C159.833 222.001 166.7 224.401 167.5 218.001C167.5 217.168 168.5 215.901 172.5 217.501C176.167 219.668 183.5 222.301 183.5 215.501C183.5 214.501 184.1 213.101 186.5 215.501C189 217.835 194.5 220.801 196.5 214.001C196.833 212.835 198.5 211.201 202.5 214.001C205.667 215.668 212.1 217.701 212.5 212.501C212.333 211.335 212.7 209.501 215.5 211.501C219.167 213.668 226.2 216.201 225 209.001C224.833 208.501 225.1 207.801 227.5 209.001C230.667 210.335 236.7 211.301 235.5 204.501C237.167 205.335 239 206.5 239 202.5C241.227 202.659 245.125 202.425 245.475 202.055C245.492 202.013 245.5 201.995 245.5 202.001C245.5 202.02 245.491 202.038 245.475 202.055C244.269 205.092 200.042 332.402 131.5 289.501C90.1667 305.501 6.8 310.801 4 204.001Z" fill="#7F402A"/>
<path d="M4 204.001C6.16667 204.668 10.1 206.701 8.5 209.501C10.8333 210.001 15.8 210.601 17 209.001C16.3333 211.501 17.4 215.401 27 211.001C27.5 210.835 28.4 211.001 28 213.001C27.8333 214.668 29.1 217.201 35.5 214.001C36.1667 213.501 37.6 213.301 38 216.501C38.3333 218.001 40.4 220.301 46 217.501C47.6667 216.501 51.2 215.101 52 217.501C52.8333 219.668 56 223.101 62 219.501C64 218.501 68.3 217.201 69.5 220.001C70.1667 222.168 73 225.301 79 220.501C80.1667 219.335 82.8 217.701 84 220.501C85.3333 223.168 89.4 227.101 95 221.501C96.5 220.001 100 217.801 102 221.001C103.5 223.835 107.8 228.001 113 222.001C114 220.501 116.9 218.401 120.5 222.001C122 223.668 125.7 226.101 128.5 222.501C129.5 221.168 133.1 219.101 139.5 221.501C141.333 223.001 145.5 225.101 147.5 221.501C148.333 220.001 151.3 217.601 156.5 220.001C159.833 222.001 166.7 224.401 167.5 218.001C167.5 217.168 168.5 215.901 172.5 217.501C176.167 219.668 183.5 222.301 183.5 215.501C183.5 214.501 184.1 213.101 186.5 215.501C189 217.835 194.5 220.801 196.5 214.001C196.833 212.835 198.5 211.201 202.5 214.001C205.667 215.668 212.1 217.701 212.5 212.501C212.333 211.335 212.7 209.501 215.5 211.501C219.167 213.668 226.2 216.201 225 209.001C224.833 208.501 225.1 207.801 227.5 209.001C230.667 210.335 236.7 211.301 235.5 204.501C237.167 205.335 239 206.5 239 202.5C241.333 202.667 245.5 202.401 245.5 202.001C245.5 201.501 201 333.001 131.5 289.501C90.1667 305.501 6.8 310.801 4 204.001Z" stroke="#7F402A"/>
<path d="M9.52565 197.5C8.5 200.5 8.02565 204.5 8.52565 207L6.52539 207.5C6.69206 207.833 6.62539 208.8 5.02539 210C4.52539 210.667 4.72539 211.9 9.52539 211.5C8.35872 213.333 8.32539 216.4 17.5254 214C17.1921 216.167 18.5254 219.5 26.5254 215.5C27.1921 215.167 28.5254 215.1 28.5254 217.5C28.3587 219.333 29.2254 222.3 34.0254 219.5C34.8587 218.833 36.7254 217.8 37.5254 219C38.1921 221.167 40.3254 225 43.5254 223C46.5254 221.667 52.5254 219.7 52.5254 222.5C53.0254 224 55.0254 226.7 59.0254 225.5C62.0254 224 68.3254 221.7 69.5254 224.5C70.1921 226.5 72.8254 229.5 78.0254 225.5C79.6921 224 83.3254 221.9 84.5254 225.5C85.5254 227.5 88.8254 230.5 94.0254 226.5C96.3587 224.833 101.325 222.3 102.525 225.5C103.692 227.333 106.925 230.5 110.525 228.5C112.359 226.333 116.525 222.7 118.525 225.5C120.859 228.167 126.525 232.1 130.525 226.5C131.359 224.667 133.825 221.7 137.025 224.5C140.025 227 146.325 230.9 147.525 226.5C148.359 224.667 151.025 221.5 155.025 223.5C158.359 225.667 165.325 229.2 166.525 226C167.192 223.833 169.325 220 172.525 222C176.192 224.167 183.625 226.9 184.025 220.5C184.025 219 184.725 216.9 187.525 220.5C189.692 222.5 194.425 225.3 196.025 220.5C196.525 218.333 198.325 214.8 201.525 218C204.192 220 210.225 222.9 213.025 218.5C212.692 216.667 212.725 213.6 215.525 216C218.025 218 223.525 221 225.525 217C225.692 216.5 225.925 215.1 225.525 213.5C226.025 213.333 227.825 213.3 231.025 214.5C232.359 215.167 235.225 215.7 236.025 212.5C236.192 211.833 236.325 210.3 235.525 209.5C237.192 210.5 240.725 211.6 241.525 208C241.692 207.5 241.825 206.2 241.025 205C242.26 205 244.627 204.397 246.422 202.297C244.836 202.76 241.012 202.642 239.025 202.5C239.025 200.5 236.692 196.333 235.525 194.5L238.025 192L248.025 199.5C247.61 200.642 247.051 201.562 246.422 202.297C246.698 202.217 246.907 202.119 247.025 202C247.825 201.2 227.692 281.667 217.525 322C209.525 329.667 180.425 344.6 128.025 343C102.525 344 46.9254 341.5 28.5254 323.5C19.5033 287.411 1.60147 212.994 1.03926 199.596C0.988041 199.341 0.990653 199.14 1.0257 199L5.0257 194.5L9.52565 197.5Z" fill="#B0B0B0"/>
<path d="M1.0257 199L5.0257 194.5L9.52565 197.5C8.5 200.5 8.02565 204.5 8.52565 207L6.52539 207.5M1.0257 199C0.859052 199.667 1.42574 201.7 5.0257 204.5C4.35883 204.833 3.22514 205.6 4.02539 206C4.85872 206.333 6.52539 207.1 6.52539 207.5M1.0257 199C1.0257 210.6 19.3588 286.833 28.5254 323.5C46.9254 341.5 102.525 344 128.025 343C180.425 344.6 209.525 329.667 217.525 322C227.692 281.667 247.825 201.2 247.025 202C246.225 202.8 241.359 202.667 239.025 202.5C239.025 200.5 236.692 196.333 235.525 194.5L238.025 192L248.025 199.5C246.425 203.9 242.692 205 241.025 205C241.825 206.2 241.692 207.5 241.525 208C240.725 211.6 237.192 210.5 235.525 209.5C236.325 210.3 236.192 211.833 236.025 212.5C235.225 215.7 232.359 215.167 231.025 214.5C227.825 213.3 226.025 213.333 225.525 213.5C225.925 215.1 225.692 216.5 225.525 217C223.525 221 218.025 218 215.525 216C212.725 213.6 212.692 216.667 213.025 218.5C210.225 222.9 204.192 220 201.525 218C198.325 214.8 196.525 218.333 196.025 220.5C194.425 225.3 189.692 222.5 187.525 220.5C184.725 216.9 184.025 219 184.025 220.5C183.625 226.9 176.192 224.167 172.525 222C169.325 220 167.192 223.833 166.525 226C165.325 229.2 158.359 225.667 155.025 223.5C151.025 221.5 148.359 224.667 147.525 226.5C146.325 230.9 140.025 227 137.025 224.5C133.825 221.7 131.359 224.667 130.525 226.5C126.525 232.1 120.859 228.167 118.525 225.5C116.525 222.7 112.359 226.333 110.525 228.5C106.925 230.5 103.692 227.333 102.525 225.5C101.325 222.3 96.3587 224.833 94.0254 226.5C88.8254 230.5 85.5254 227.5 84.5254 225.5C83.3254 221.9 79.6921 224 78.0254 225.5C72.8254 229.5 70.1921 226.5 69.5254 224.5C68.3254 221.7 62.0254 224 59.0254 225.5C55.0254 226.7 53.0254 224 52.5254 222.5C52.5254 219.7 46.5254 221.667 43.5254 223C40.3254 225 38.1921 221.167 37.5254 219C36.7254 217.8 34.8587 218.833 34.0254 219.5C29.2254 222.3 28.3587 219.333 28.5254 217.5C28.5254 215.1 27.1921 215.167 26.5254 215.5C18.5254 219.5 17.1921 216.167 17.5254 214C8.32539 216.4 8.35872 213.333 9.52539 211.5C4.72539 211.9 4.52539 210.667 5.02539 210C6.62539 208.8 6.69206 207.833 6.52539 207.5" stroke="#4D4D4D"/>
<path d="M17.5254 214C13.5254 215.2 10.8587 214.833 10.0254 214.5L34.5254 328C37.3254 329.6 38.3587 330 38.5254 330C20.0254 232 20.5254 217.5 19.0254 217C17.5075 216.494 17.3587 215 17.5254 214Z" fill="#0B026B"/>
<path d="M26.5254 215.5C24.9254 216.7 21.8587 217.333 20.5254 217.5C27.3587 255.333 41.1254 331.1 41.5254 331.5C41.9254 331.9 44.6921 333 46.0254 333.5L29.5254 220.5C28.3254 219.3 28.3587 218 28.5254 217.5C28.5254 215.1 27.1921 215.167 26.5254 215.5Z" fill="#0B026B"/>
<path d="M35.0254 219C32.6254 221 31.0254 220.833 30.5254 220.5L48.5254 334L54.5254 336L38.5254 221.5L37.5254 219.5C36.7254 217.9 35.5254 218.5 35.0254 219Z" fill="#0B026B"/>
<path d="M43.5254 223C42.5254 223.5 41.6921 223.667 41.0254 223.5L60.0254 337.5L66.0254 338.5C61.3587 300.167 51.9254 223.1 51.5254 221.5C51.1254 219.9 46.0254 221.833 43.5254 223Z" fill="#0B026B"/>
<path d="M60.0254 225C59.6254 225.4 58.1921 225.833 57.5254 226L71.0254 339.5L77.5254 340.5C74.6921 302 68.8254 224.7 68.0254 223.5C67.2254 222.3 62.3587 224 60.0254 225Z" fill="#0B026B"/>
<path d="M78.5254 225C77.3254 226.6 74.6921 227.333 73.5254 227.5L83.0254 341L92.0254 342C89.3587 302.667 83.7254 223.9 82.5254 223.5C81.3254 223.1 79.3587 224.333 78.5254 225Z" fill="#0B026B"/>
<path d="M94.0254 226.5C93.2254 227.3 91.0254 228.167 90.0254 228.5L99.5254 342.5L106.525 343C105.025 303.667 101.725 224.8 100.525 224C99.3254 223.2 95.6921 225.333 94.0254 226.5Z" fill="#0B026B"/>
<path d="M111.525 227.5C109.925 229.1 109.025 229.5 108.525 229.5L114.525 343H122.025L117.525 224.5C115.125 224.1 112.525 226.333 111.525 227.5Z" fill="#0B026B"/>
<path d="M130.525 226.5C129.725 228.1 127.192 229.167 126.025 229.5L128.525 343H135.025C135.025 303 134.725 223.1 133.525 223.5C132.325 223.9 131.025 225.667 130.525 226.5Z" fill="#0B026B"/>
<path d="M147.525 226.5C147.125 228.1 145.692 228.5 145.025 228.5L143.525 343L150.025 342.5L151.525 223C149.925 223 148.192 225.333 147.525 226.5Z" fill="#0B026B"/>
<path d="M166.525 226C166.125 227.2 164.359 227.167 163.525 227C164.725 229.4 159.025 304.667 156.025 342L162.025 341.5L168.525 222.5C167.725 222.5 166.859 224.833 166.525 226Z" fill="#0B026B"/>
<path d="M183.525 223C182.725 224.2 181.192 224.5 180.525 224.5L167.525 341L172.525 340L183.525 223Z" fill="#0B026B"/>
<path d="M196.025 220C195.625 222.8 193.525 223.167 192.525 223L179.525 338.5L185.025 337L198.025 217C197.225 217 196.359 219 196.025 220Z" fill="#0B026B"/>
<path d="M211.525 220C210.725 221.2 209.192 221.167 208.525 221L192.025 335L196.525 333.5L211.525 220Z" fill="#0B026B"/>
<path d="M224.025 218.5C223.225 219.3 222.025 219.167 221.525 219L201.025 332L205.025 330L224.025 218.5Z" fill="#0B026B"/>
<path d="M233.025 215C233.487 215 234.374 214.915 234.508 214.588L234.525 214.5C234.525 214.531 234.519 214.56 234.508 214.588L212.525 326L208.025 328.5L233.025 215Z" fill="#0B026B"/>
<path d="M239.525 210.5C240.053 210.236 240.998 209.576 241.37 208.717L241.525 208C241.525 208.25 241.467 208.49 241.37 208.717L216.525 323L214.025 325L239.525 210.5Z" fill="#0B026B"/>
<ellipse cx="196" cy="195.5" rx="1" ry="1.5" transform="rotate(-3.51054 196 195.5)" fill="#B15C3C"/>
<circle cx="193" cy="197" r="1" fill="#B15C3C"/>
<circle cx="186.5" cy="200.5" r="1.5" fill="#B15C3C"/>
<ellipse cx="202.5" cy="201" rx="1.5" ry="1" fill="#B15C3C"/>
<circle cx="212.5" cy="194.5" r="2.5" fill="#B15C3C"/>
<ellipse cx="219" cy="187.5" rx="1" ry="1.5" fill="#B15C3C"/>
<ellipse cx="69.649" cy="193.695" rx="1" ry="1.5" transform="rotate(150.237 69.649 193.695)" fill="#B15C3C"/>
<circle cx="71.6764" cy="191.023" r="1" transform="rotate(153.748 71.6764 191.023)" fill="#B15C3C"/>
<circle cx="75.958" cy="185.009" r="1.5" transform="rotate(153.748 75.958 185.009)" fill="#B15C3C"/>
<ellipse cx="61.3872" cy="191.638" rx="1.5" ry="1" transform="rotate(153.748 61.3872 191.638)" fill="#B15C3C"/>
<circle cx="55.2937" cy="201.89" r="2.5" transform="rotate(153.748 55.2937 201.89)" fill="#B15C3C"/>
<ellipse cx="52.5608" cy="211.043" rx="1" ry="1.5" transform="rotate(153.748 52.5608 211.043)" fill="#B15C3C"/>
<ellipse cx="122.649" cy="201.695" rx="1" ry="1.5" transform="rotate(150.237 122.649 201.695)" fill="#B15C3C"/>
<circle cx="124.676" cy="199.023" r="1" transform="rotate(153.748 124.676 199.023)" fill="#B15C3C"/>
<circle cx="128.958" cy="193.009" r="1.5" transform="rotate(153.748 128.958 193.009)" fill="#B15C3C"/>
<ellipse cx="114.387" cy="199.638" rx="1.5" ry="1" transform="rotate(153.748 114.387 199.638)" fill="#B15C3C"/>
<circle cx="31.3483" cy="185.348" r="2.5" transform="rotate(153.748 31.3483 185.348)" fill="#B15C3C"/>
<circle cx="108.294" cy="209.89" r="2.5" transform="rotate(153.748 108.294 209.89)" fill="#B15C3C"/>
<circle cx="93.3483" cy="211.348" r="2.5" transform="rotate(153.748 93.3483 211.348)" fill="#B15C3C"/>
<ellipse cx="105.561" cy="219.043" rx="1" ry="1.5" transform="rotate(153.748 105.561 219.043)" fill="#B15C3C"/>
<ellipse cx="97.649" cy="196.695" rx="1" ry="1.5" transform="rotate(150.237 97.649 196.695)" fill="#B15C3C"/>
<circle cx="99.6764" cy="194.023" r="1" transform="rotate(153.748 99.6764 194.023)" fill="#B15C3C"/>
<circle cx="103.958" cy="188.009" r="1.5" transform="rotate(153.748 103.958 188.009)" fill="#B15C3C"/>
<ellipse cx="89.3872" cy="194.638" rx="1.5" ry="1" transform="rotate(153.748 89.3872 194.638)" fill="#B15C3C"/>
<circle cx="83.2937" cy="204.89" r="2.5" transform="rotate(153.748 83.2937 204.89)" fill="#B15C3C"/>
<ellipse cx="80.5608" cy="214.043" rx="1" ry="1.5" transform="rotate(153.748 80.5608 214.043)" fill="#B15C3C"/>
<ellipse cx="31.5" cy="202" rx="1.5" ry="1" fill="#B15C3C"/>
<circle cx="41.5" cy="195.5" r="2.5" fill="#B15C3C"/>
<ellipse cx="48" cy="188.5" rx="1" ry="1.5" fill="#B15C3C"/>
<ellipse cx="141" cy="208.5" rx="1" ry="1.5" transform="rotate(-3.51054 141 208.5)" fill="#B15C3C"/>
<circle cx="138" cy="210" r="1" fill="#B15C3C"/>
<circle cx="131.5" cy="213.5" r="1.5" fill="#B15C3C"/>
<ellipse cx="147.5" cy="214" rx="1.5" ry="1" fill="#B15C3C"/>
<circle cx="157.5" cy="207.5" r="2.5" fill="#B15C3C"/>
<ellipse cx="164" cy="200.5" rx="1" ry="1.5" fill="#B15C3C"/>
<ellipse cx="143" cy="176.5" rx="1" ry="1.5" transform="rotate(-3.51054 143 176.5)" fill="#B15C3C"/>
<circle cx="140" cy="178" r="1" fill="#B15C3C"/>
<circle cx="133.5" cy="181.5" r="1.5" fill="#B15C3C"/>
<ellipse cx="149.5" cy="182" rx="1.5" ry="1" fill="#B15C3C"/>
<circle cx="159.5" cy="175.5" r="2.5" fill="#B15C3C"/>
<ellipse cx="166" cy="168.5" rx="1" ry="1.5" fill="#B15C3C"/>
<ellipse cx="168" cy="185.5" rx="1" ry="1.5" transform="rotate(-3.51054 168 185.5)" fill="#B15C3C"/>
<circle cx="165" cy="187" r="1" fill="#B15C3C"/>
<circle cx="158.5" cy="190.5" r="1.5" fill="#B15C3C"/>
<ellipse cx="174.5" cy="191" rx="1.5" ry="1" fill="#B15C3C"/>
<circle cx="184.5" cy="184.5" r="2.5" fill="#B15C3C"/>
<ellipse cx="191" cy="177.5" rx="1" ry="1.5" fill="#B15C3C"/>
<path d="M136.053 13.5C133.253 4.3 141.887 1.33333 146.553 1C138.952 6.6 143.054 11.6667 146.055 13.5C158.855 19.5 171.055 28.6667 175.555 32.5C192.355 46.1 187.221 65.8333 182.555 74C228.555 77.6 229.721 113.5 224.555 131C246.555 147.8 238.388 174.333 231.555 185.5C220.355 200.7 203.888 201.5 197.055 200C153.055 230 111.721 216.5 96.5547 206C54.9547 219.2 25.5546 201.833 16.0546 191.5C4.85462 179.1 11.721 166.667 16.5542 162C12.1542 157.6 13.0542 148.833 14.0542 145C16.8542 131 32.2206 129.167 39.5538 130C33.5538 124.8 35.3872 109.5 37.0538 102.5C42.6538 73.3 70.3869 72.6667 83.5534 76C74.7534 52 94.5534 42.3333 105.553 40.5C115.153 40.5 128.553 31.5 134.053 27C139.253 21.8 137.553 15.8333 136.053 13.5Z" fill="#F9F4DF" stroke="#F9F4DF"/>
<path d="M101.054 59.5C101.854 70.3 113.721 68.6666 119.554 66.5C129.954 58.0999 142.221 61.3333 147.055 64C154.255 68 160.721 62.6667 163.055 59.5C163.855 57.9 163.055 53.1667 162.555 51C162.555 45.8 168.221 47.5 171.055 49C179.855 54.2 179.388 64.5 178.055 69C172.855 79 147.221 82.5 135.055 83C114.655 86.6 97.8878 78.8333 92.0544 74.5C84.4544 66.1 87.5544 58.3333 90.0544 55.5C98.4544 49.1 100.888 55.5 101.054 59.5Z" fill="#F6EDD1"/>
<path d="M39.5547 116.5C40.3547 105.7 50.888 105.667 56.0547 107C61.6547 107.8 75.388 115.333 81.5547 119C82.0547 119.5 86.0547 122.167 87.5547 122C95.5547 121.6 101.888 125.167 104.055 127C110.055 131 118.888 130.333 122.555 129.5C133.755 125.9 143.555 123.667 147.055 123C154.255 121 167.055 123.167 172.555 124.5C177.555 126.5 194.055 124.5 195.555 124.5C201.555 124.9 206.055 115 207.555 110C210.755 103.6 214.888 105 216.555 106.5C222.955 112.5 220.555 123.333 218.555 128C217.755 134.4 183.888 136 167.055 136C147.855 142.4 122.721 141.667 112.555 140.5C104.555 139.3 85.5547 139 77.0547 139C48.2547 142.6 40.0547 125.5 39.5547 116.5Z" fill="#F6EDD1"/>
<path d="M27.0548 195.5C9.45484 184.3 12.0548 173.5 15.5548 169.5C18.355 165.1 23.7215 164.667 26.0547 165C29.6547 165.8 33.888 169.667 35.5547 171.5C39.9547 176.3 59.7214 177.167 69.0547 177C83.0547 177.4 99.2214 188.167 105.555 193.5C111.155 199.9 120.888 191.5 125.055 186.5C140.555 169 175.555 178.5 178.555 178.5C192.955 182.9 198.555 180.333 199.555 178.5C201.155 176.5 206.221 174.667 208.555 174C217.355 172.4 220.888 159.333 221.555 153C221.955 146.6 225.388 144.333 227.055 144C231.455 141.6 233.555 146.667 234.055 149.5C235.655 164.3 232.055 175.333 230.055 179C225.655 191 208.221 194.667 200.055 195C195.655 193.4 188.888 198 186.055 200.5C173.655 209.3 149.888 212.5 139.555 213C129.555 215.4 108.055 207.333 98.5547 203C93.7547 199.8 82.5547 202.333 77.5547 204C58.7547 210.8 36.0548 201.167 27.0548 195.5Z" fill="#F6EDD1"/>
<path d="M140.555 85C106.955 89.8 90.5547 78 86.5547 71.5C83.7547 67.9 100.055 75 108.555 79C112.955 81 118.388 80.8333 120.555 80.5C127.351 76.9 137.053 77.6667 141.055 78.5C150.255 80.9 156.555 78.1667 158.555 76.5C161.755 72.1 170.888 69.3333 175.055 68.5C177.055 67.7 177.221 61.5 177.055 58.5C179.455 55.3 180.721 60.5 181.055 63.5C182.655 77.9 154.721 83.8333 140.555 85Z" fill="#EAD8AC"/>
<path d="M42.5548 128.5C39.7548 121.3 43.7215 124.5 46.0548 127C46.0548 127.8 52.3881 133 55.5547 135.5C57.5547 140.3 72.7214 139.167 80.0547 138C85.6547 135.2 99.0547 135.833 105.055 136.5C108.655 138.1 112.888 138.833 114.555 139C121.755 137.4 128.888 138.333 131.555 139C139.955 141 154.055 138.167 160.055 136.5C164.055 133.7 170.055 133.333 172.555 133.5C176.555 134.7 181.221 133.667 183.055 133C185.055 132.2 196.555 132.667 202.055 133C204.455 133.4 208.055 132.167 209.555 131.5C211.955 130.7 214.555 130.167 215.555 130C219.955 130 215.721 133 213.055 134.5C209.455 135.7 181.555 137.333 168.055 138C156.455 140 141.221 144.5 135.055 146.5C129.855 151.3 114.555 145.833 107.555 142.5C97.5547 139.3 80.388 141.167 73.0547 142.5C55.0547 144.5 45.2215 134 42.5548 128.5Z" fill="#EAD8AC"/>
<path d="M170.296 102.29L172.475 89.4739L181.998 93.1214L175.021 104.454C174.634 101.122 171.422 101.636 170.296 102.29Z" fill="#0B026B"/>
<rect x="144.939" y="51" width="90" height="28" rx="5" transform="rotate(19.9284 144.939 51)" fill="#0B026B"/>
<path d="M163.483 64.0625L169.71 66.215L166.181 76.4223L159.955 74.2698L163.483 64.0625ZM166.989 67.255L164.981 66.561L162.676 73.2298L164.683 73.9238L166.989 67.255ZM174.981 66.2279L177.141 66.9748L171.696 82.728L169.535 81.9811L174.981 66.2279ZM167.153 69.9209L170.691 71.1442L170.062 72.9645L166.523 71.7412L167.153 69.9209ZM171.683 65.3545L173.81 66.0897L168.693 80.8902L166.567 80.1551L171.683 65.3545ZM175.085 79.8051L189.341 84.7335L188.706 86.5708L174.45 81.6424L175.085 79.8051ZM182.262 78.3819L184.525 79.1641L183.172 83.0769L180.909 82.2947L182.262 78.3819ZM180.347 69.378L191.558 73.2536L188.882 80.9941L177.671 77.1185L180.347 69.378ZM188.723 74.2923L181.952 71.9517L180.517 76.1026L187.288 78.4433L188.723 74.2923ZM197.798 76.0775L199.652 76.7185L199.311 77.7052C198.27 80.7164 195.923 82.9332 192.531 82.8842L192.026 80.7098C194.946 80.7478 196.763 79.0716 197.457 77.0642L197.798 76.0775ZM198.257 76.2363L200.095 76.8714L199.754 77.8581C199.119 79.6954 199.55 81.8634 201.82 83.5052L200.137 84.9039C197.454 82.9672 196.946 80.03 197.916 77.223L198.257 76.2363ZM194.909 74.2979L203.415 77.2384L202.792 79.0417L194.286 76.1012L194.909 74.2979ZM205.039 76.6189L207.301 77.401L204.073 86.7407L201.81 85.9585L205.039 76.6189ZM205.419 80.807L208.141 81.748L207.5 83.6023L204.778 82.6614L205.419 80.807ZM198.835 85.2538C202.101 86.383 203.766 88.2344 203.101 90.1568C202.437 92.0792 199.984 92.5074 196.718 91.3782C193.434 90.2431 191.77 88.3917 192.434 86.4694C193.099 84.547 195.552 84.1188 198.835 85.2538ZM198.223 87.0231C196.216 86.3291 194.986 86.361 194.68 87.2457C194.374 88.1303 195.31 88.949 197.318 89.643C199.325 90.3369 200.55 90.2651 200.855 89.3805C201.161 88.4959 200.231 87.7171 198.223 87.0231Z" fill="#F2F2F2"/>
<path d="M158 102.673C163.846 99.8499 180.331 99.487 181.5 110.616" stroke="#EAD8AC" stroke-width="3" stroke-linecap="round"/>
<rect x="43" y="160.219" width="35.6186" height="35.6186" transform="rotate(-15 43 160.219)" fill="#C5C8CC"/>
<rect x="44.9385" y="161.338" width="32.4525" height="3.1661" transform="rotate(-15 44.9385 161.338)" fill="#000073"/>
<rect x="69.6094" y="155.547" width="1.58305" height="1.58305" transform="rotate(-15 69.6094 155.547)" fill="#C5C8CC"/>
<rect x="71.9033" y="154.933" width="1.58305" height="1.58305" transform="rotate(-15 71.9033 154.933)" fill="#C5C8CC"/>
<rect x="74.1963" y="154.318" width="1.58305" height="1.58305" transform="rotate(-15 74.1963 154.318)" fill="#C5C8CC"/>
<rect x="47.9023" y="166.28" width="29.2864" height="24.5373" transform="rotate(-15 47.9023 166.28)" fill="#01B5F2"/>
<path d="M55.1901 174.161L51.4416 179.49L54.2527 189.982L82.5412 182.402L80.595 175.138L73.8654 173.482L72.5111 179.467L65.1121 176.692L63.9278 179.172L55.1901 174.161Z" fill="#91C300"/>
<ellipse cx="70.3979" cy="167.627" rx="3.19641" ry="3.09727" transform="rotate(-15 70.3979 167.627)" fill="url(#paint0_linear_914_5574)"/>
<path d="M69.1006 163.059L69.3856 164.122" stroke="#EEB849" stroke-linecap="round"/>
<path d="M71.2734 171.169L71.5585 172.233" stroke="#EEB849" stroke-linecap="round"/>
<path d="M66.6611 167.717L65.5345 167.862" stroke="#EEB849" stroke-linecap="round"/>
<path d="M74.6738 165.271L73.6484 165.758" stroke="#EEB849" stroke-linecap="round"/>
<path d="M71.9004 164.179L72.3877 163.175" stroke="#EEB849" stroke-linecap="round"/>
<path d="M66.3672 164.931L67.2912 165.557" stroke="#EEB849" stroke-linecap="round"/>
<path d="M69.0146 171.062L68.5785 172.088" stroke="#EEB849" stroke-linecap="round"/>
<path d="M73.291 169.916L74.1912 170.574" stroke="#EEB849" stroke-linecap="round"/>
<path d="M67.2617 169.676L66.2535 170.197" stroke="#EEB849" stroke-linecap="round"/>
<path d="M74.2002 167.778L75.3336 167.802" stroke="#EEB849" stroke-linecap="round"/>
<circle cx="51.1797" cy="178.513" r="2.37457" transform="rotate(-15 51.1797 178.513)" fill="#D9D9D9"/>
<circle cx="79.4688" cy="170.933" r="2.37457" transform="rotate(-15 79.4688 170.933)" fill="#D9D9D9"/>
<path d="M50.2686 178.783L51.9156 179.526" stroke="black" stroke-linecap="round"/>
<path d="M50.3398 178.682L51.405 177.268" stroke="black" stroke-linecap="round"/>
<path d="M80.3164 170.734L79.2618 172.201" stroke="black" stroke-linecap="round"/>
<path d="M80.2051 170.682L78.5759 169.99" stroke="black" stroke-linecap="round"/>
<path fill-rule="evenodd" clip-rule="evenodd" d="M141.847 126.506C151.095 127.608 158.375 130.945 158.617 134.096L154.526 133.609C153.911 131.887 148.398 129.952 141.533 129.134C134.668 128.315 128.855 128.899 127.852 130.428L123.762 129.94C124.738 126.934 132.598 125.403 141.847 126.506Z" fill="white"/>
<path fill-rule="evenodd" clip-rule="evenodd" d="M156.829 136.747C153.85 138.479 147.571 139.184 140.474 138.338C133.378 137.492 127.442 135.331 124.953 132.948L124.741 148.953C126.298 151.424 131.731 155.956 139.519 156.885C143.17 157.32 148.922 155.676 153.268 152.355C153.344 151.713 154.249 147.84 155.253 143.541C155.787 141.256 156.348 138.851 156.829 136.747Z" fill="#FFFF40"/>
<path d="M144.606 124.417L138.669 136.201C139.129 137.868 140.693 137.651 141.418 137.335L147.355 125.551C145.654 125.993 144.814 124.979 144.606 124.417Z" fill="#FF0000"/>
<path d="M144.376 123.181C143.748 125.685 145.789 126.304 146.888 126.301C150.576 125.774 149.932 120.351 149.149 117.705C148.912 119.692 145.906 120.74 145.425 121.291C144.662 122.167 144.408 122.916 144.376 123.181Z" fill="white"/>
<path d="M132.015 123.462L135.559 136.181C137.03 137.138 138.05 135.961 138.377 135.253L134.832 122.534C133.863 123.969 132.55 123.751 132.015 123.462Z" fill="#00FF00"/>
<path d="M131.006 122.681C132.232 124.973 134.173 124.117 134.991 123.402C137.385 120.614 133.235 116.95 130.861 115.466C132.029 117.115 130.495 119.852 130.51 120.578C130.533 121.733 130.85 122.461 131.006 122.681Z" fill="white"/>
<path d="M150.075 126.562L141.386 136.569C141.42 138.294 142.993 138.455 143.775 138.321L152.464 128.313C150.702 128.338 150.137 127.156 150.075 126.562Z" fill="#0000FF"/>
<path d="M150.158 125.31C148.927 127.587 150.756 128.671 151.825 128.929C155.538 129.294 156.257 123.887 156.152 121.138C155.429 123.007 152.249 123.308 151.646 123.728C150.687 124.395 150.254 125.06 150.158 125.31Z" fill="white"/>
<path d="M125.072 132.749C124.715 139.563 140.938 154.384 153.123 149.593C158.14 147.62 158.361 143.665 156.155 134.659" stroke="#606367" stroke-linecap="round"/>
<path fill-rule="evenodd" clip-rule="evenodd" d="M140.48 138.298C150.127 139.449 158.263 137.734 158.652 134.467C158.664 134.366 158.669 134.265 158.666 134.163L154.601 133.678C154.626 133.782 154.633 133.885 154.621 133.986C154.405 135.801 148.214 136.555 140.793 135.67C133.373 134.785 127.532 132.597 127.749 130.782C127.761 130.68 127.792 130.582 127.841 130.487L123.776 130.002C123.749 130.101 123.73 130.2 123.718 130.302C123.328 133.568 130.833 137.148 140.48 138.298Z" fill="white"/>
<path d="M130.767 119.543C130.815 119.146 130.979 116.613 130.835 115.521C132.097 115.994 133.369 117.301 133.848 117.895C133.409 118.81 131.596 119.507 130.767 119.543Z" fill="#00FF00"/>
<path d="M130.767 119.543C130.815 119.146 130.979 116.613 130.835 115.521C132.097 115.994 133.369 117.301 133.848 117.895C133.409 118.81 131.596 119.507 130.767 119.543Z" fill="#00FF00"/>
<path d="M130.767 119.543C130.815 119.146 130.979 116.613 130.835 115.521C132.097 115.994 133.369 117.301 133.848 117.895C133.409 118.81 131.596 119.507 130.767 119.543Z" fill="#00FF00"/>
<path d="M147.07 120.138C147.39 120.207 148.67 118.573 149.27 117.747L149.783 121.132C149.074 121.307 147.679 120.543 147.07 120.138Z" fill="#FF0000"/>
<path d="M155.621 125.327C155.296 125.289 154.33 124.636 154.091 124.339C153.804 123.982 153.524 123.331 153.42 123.05C153.745 123.089 155.474 121.952 156.095 121.354C156.359 122.595 155.946 125.366 155.621 125.327Z" fill="#0000FF"/>
<path d="M76.3253 119.95C78.5494 116.693 77.0752 101.858 76.0602 94.848L75.4244 90.1885L96.67 87.6411C97.2087 86.4425 97.8971 86.7705 98.174 87.0843L101.4 110.727C101.833 113.903 101.065 115.988 100.626 116.634L76.3253 119.95Z" fill="#B3B3B3" stroke="black"/>
<path d="M68.9611 91.7468C69.2706 90.9233 69.9685 90.1119 70.2788 89.8091L97.5458 86.0885C98.416 86.2823 98.3756 87.017 98.2466 87.3601C97.4183 87.4731 96.6708 87.8356 96.4006 88.0026L68.9611 91.7468Z" fill="#032A7C"/>
<path d="M69.479 95.5435L68.9609 91.7468L96.5731 87.9791L97.0911 91.7758L69.479 95.5435Z" fill="#0000FE"/>
<path d="M72.9797 118.622C75.7783 115.427 74.2281 101.575 73.1032 95.049L96.9186 91.7994L98.9202 106.468C100.151 111.363 99.4125 114.37 98.866 115.089L72.9797 118.622Z" fill="#BFBFBF" stroke="#919191"/>
<path d="M97.2786 113.389L71.5499 116.397C71.623 116.199 71.6855 115.987 71.7393 115.767C71.8945 115.133 71.9899 114.375 72.0401 113.536C72.1404 111.856 72.0621 109.797 71.8827 107.635C71.5431 103.545 70.8365 99.0371 70.2535 95.9425L96.664 92.3388L98.6899 107.186C98.5291 107.314 98.4189 107.488 98.3509 107.668C98.2387 107.965 98.222 108.313 98.2387 108.629C98.2687 109.196 98.4167 109.826 98.5588 110.29L97.2786 113.389Z" fill="white" stroke="#C8C8C8"/>
<path d="M70.6875 99.2459L97.2642 95.6195" stroke="#C3C3C3"/>
<path d="M71.1582 102.697L97.7349 99.071" stroke="#C3C3C3"/>
<path d="M71.5195 107.922L98.4414 104.248" stroke="#C3C3C3"/>
<path d="M71.7871 112.456L98.709 108.782" stroke="#C3C3C3"/>
<path d="M73.2764 95.0254L75.4063 110.635L74.9013 111.443L75.2233 113.803L74.2661 114.303L74.4147 115.392L73.7332 116.409" stroke="#C3C3C3"/>
<path d="M77.4175 94.4603L79.5124 109.814L79.0059 110.61L79.3225 112.931L78.3646 113.425L78.5107 114.497L77.5527 116.064" stroke="#C3C3C3"/>
<path d="M81.2149 93.9422L83.3448 109.551L82.8398 110.36L83.1618 112.719L82.2046 113.22L82.3532 114.309L81.6952 115.499" stroke="#C3C3C3"/>
<path d="M85.0108 93.4241L87.1756 109.289L86.6723 110.11L86.9995 112.508L86.0431 113.014L86.1942 114.121L85.5147 115.153" stroke="#C3C3C3"/>
<path d="M89.1534 92.859L91.3182 108.724L90.8148 109.544L91.1421 111.943L90.1857 112.449L90.3368 113.556L89.6573 114.588" stroke="#C3C3C3"/>
<path d="M93.6397 92.2467L95.8045 108.112L95.3012 108.932L95.6284 111.33L94.6721 111.837L94.8231 112.944L94.1436 113.976" stroke="#C3C3C3"/>
<path d="M78.4075 101.708L77.9365 98.2569L81.7332 97.7388L82.2042 101.19L78.4075 101.708Z" stroke="#C75557" stroke-width="2"/>
<circle cx="112.207" cy="54.2069" r="8.2069" fill="url(#paint1_linear_914_5574)"/>
<path d="M111.781 38L111.781 41.942" stroke="#EEB849" stroke-width="4" stroke-linecap="round"/>
<path d="M111.781 68.058L111.781 72" stroke="#EEB849" stroke-width="4" stroke-linecap="round"/>
<path d="M99.0293 51.8484L95 51.3043" stroke="#EEB849" stroke-width="4" stroke-linecap="round"/>
<path d="M129 50.8116L125.003 51.5463" stroke="#EEB849" stroke-width="4" stroke-linecap="round"/>
<path d="M120.427 44.4691L123.042 41.4493" stroke="#EEB849" stroke-width="4" stroke-linecap="round"/>
<path d="M100.595 41.942L103.21 44.9618" stroke="#EEB849" stroke-width="4" stroke-linecap="round"/>
<path d="M104.069 65.5942L101.611 68.7354" stroke="#EEB849" stroke-width="4" stroke-linecap="round"/>
<path d="M119.919 65.5942L122.422 68.7014" stroke="#EEB849" stroke-width="4" stroke-linecap="round"/>
<path d="M99.2949 59.1778L95.3263 60.0448" stroke="#EEB849" stroke-width="4" stroke-linecap="round"/>
<path d="M125.042 59.0417L128.939 60.1745" stroke="#EEB849" stroke-width="4" stroke-linecap="round"/>
<circle cx="192.5" cy="172.5" r="15.5" fill="#EE0404"/>
<circle cx="192.844" cy="172.844" r="12.9" fill="white" stroke="black"/>
<line x1="193.345" y1="160.444" x2="193.345" y2="163.889" stroke="black"/>
<line x1="193.345" y1="181.111" x2="193.345" y2="185.244" stroke="black"/>
<line x1="183.889" y1="173.344" x2="179.755" y2="173.344" stroke="black"/>
<line x1="205.244" y1="172.656" x2="201.111" y2="172.656" stroke="black"/>
<path d="M197.667 173.189H191.811" stroke="#00007A"/>
<line x1="193.345" y1="168.022" x2="193.345" y2="174.222" stroke="#00007A"/>
<defs>
<linearGradient id="paint0_linear_914_5574" x1="72.813" y1="165.563" x2="67.8662" y2="170.881" gradientUnits="userSpaceOnUse">
<stop stop-color="#EFBD4A"/>
<stop offset="1" stop-color="#E89A43"/>
</linearGradient>
<linearGradient id="paint1_linear_914_5574" x1="118.408" y1="48.7356" x2="105.277" y2="62.4138" gradientUnits="userSpaceOnUse">
<stop stop-color="#EFBD4A"/>
<stop offset="1" stop-color="#E89A43"/>
</linearGradient>
</defs>
</svg>
