<svg width="249" height="346" viewBox="0 0 249 346" fill="none" xmlns="http://www.w3.org/2000/svg">
<path d="M23.1754 185.219C4.46204 193.618 7.10803 212.327 10.7702 220.632C96.4885 273.97 194.883 242.671 233.365 220.354C246.095 205.98 234.327 193.098 226.851 188.455C154.68 136.694 60.996 164.73 23.1754 185.219Z" fill="#C27852"/>
<path d="M4 206.001C6.16667 206.668 10.1 208.701 8.5 211.501C10.8333 212.001 15.8 212.601 17 211.001C16.3333 213.501 17.4 217.401 27 213.001C27.5 212.835 28.4 213.001 28 215.001C27.8333 216.668 29.1 219.201 35.5 216.001C36.1667 215.501 37.6 215.301 38 218.501C38.3333 220.001 40.4 222.301 46 219.501C47.6667 218.501 51.2 217.101 52 219.501C52.8333 221.668 56 225.101 62 221.501C64 220.501 68.3 219.201 69.5 222.001C70.1667 224.168 73 227.301 79 222.501C80.1667 221.335 82.8 219.701 84 222.501C85.3333 225.168 89.4 229.101 95 223.501C96.5 222.001 100 219.801 102 223.001C103.5 225.835 107.8 230.001 113 224.001C114 222.501 116.9 220.401 120.5 224.001C122 225.668 125.7 228.101 128.5 224.501C129.5 223.168 133.1 221.101 139.5 223.501C141.333 225.001 145.5 227.101 147.5 223.501C148.333 222.001 151.3 219.601 156.5 222.001C159.833 224.001 166.7 226.401 167.5 220.001C167.5 219.168 168.5 217.901 172.5 219.501C176.167 221.668 183.5 224.301 183.5 217.501C183.5 216.501 184.1 215.101 186.5 217.501C189 219.835 194.5 222.801 196.5 216.001C196.833 214.835 198.5 213.201 202.5 216.001C205.667 217.668 212.1 219.701 212.5 214.501C212.333 213.335 212.7 211.501 215.5 213.501C219.167 215.668 226.2 218.201 225 211.001C224.833 210.501 225.1 209.801 227.5 211.001C230.667 212.335 236.7 213.301 235.5 206.501C237.167 207.335 239 208.5 239 204.5C241.227 204.659 245.125 204.425 245.475 204.055C245.492 204.013 245.5 203.995 245.5 204.001C245.5 204.02 245.491 204.038 245.475 204.055C244.269 207.092 200.042 334.402 131.5 291.501C90.1667 307.501 6.8 312.801 4 206.001Z" fill="#7F402A"/>
<path d="M4 206.001C6.16667 206.668 10.1 208.701 8.5 211.501C10.8333 212.001 15.8 212.601 17 211.001C16.3333 213.501 17.4 217.401 27 213.001C27.5 212.835 28.4 213.001 28 215.001C27.8333 216.668 29.1 219.201 35.5 216.001C36.1667 215.501 37.6 215.301 38 218.501C38.3333 220.001 40.4 222.301 46 219.501C47.6667 218.501 51.2 217.101 52 219.501C52.8333 221.668 56 225.101 62 221.501C64 220.501 68.3 219.201 69.5 222.001C70.1667 224.168 73 227.301 79 222.501C80.1667 221.335 82.8 219.701 84 222.501C85.3333 225.168 89.4 229.101 95 223.501C96.5 222.001 100 219.801 102 223.001C103.5 225.835 107.8 230.001 113 224.001C114 222.501 116.9 220.401 120.5 224.001C122 225.668 125.7 228.101 128.5 224.501C129.5 223.168 133.1 221.101 139.5 223.501C141.333 225.001 145.5 227.101 147.5 223.501C148.333 222.001 151.3 219.601 156.5 222.001C159.833 224.001 166.7 226.401 167.5 220.001C167.5 219.168 168.5 217.901 172.5 219.501C176.167 221.668 183.5 224.301 183.5 217.501C183.5 216.501 184.1 215.101 186.5 217.501C189 219.835 194.5 222.801 196.5 216.001C196.833 214.835 198.5 213.201 202.5 216.001C205.667 217.668 212.1 219.701 212.5 214.501C212.333 213.335 212.7 211.501 215.5 213.501C219.167 215.668 226.2 218.201 225 211.001C224.833 210.501 225.1 209.801 227.5 211.001C230.667 212.335 236.7 213.301 235.5 206.501C237.167 207.335 239 208.5 239 204.5C241.333 204.667 245.5 204.401 245.5 204.001C245.5 203.501 201 335.001 131.5 291.501C90.1667 307.501 6.8 312.801 4 206.001Z" stroke="#7F402A"/>
<path d="M9.52565 199.5C8.5 202.5 8.02565 206.5 8.52565 209L6.52539 209.5C6.69206 209.833 6.62539 210.8 5.02539 212C4.52539 212.667 4.72539 213.9 9.52539 213.5C8.35872 215.333 8.32539 218.4 17.5254 216C17.1921 218.167 18.5254 221.5 26.5254 217.5C27.1921 217.167 28.5254 217.1 28.5254 219.5C28.3587 221.333 29.2254 224.3 34.0254 221.5C34.8587 220.833 36.7254 219.8 37.5254 221C38.1921 223.167 40.3254 227 43.5254 225C46.5254 223.667 52.5254 221.7 52.5254 224.5C53.0254 226 55.0254 228.7 59.0254 227.5C62.0254 226 68.3254 223.7 69.5254 226.5C70.1921 228.5 72.8254 231.5 78.0254 227.5C79.6921 226 83.3254 223.9 84.5254 227.5C85.5254 229.5 88.8254 232.5 94.0254 228.5C96.3587 226.833 101.325 224.3 102.525 227.5C103.692 229.333 106.925 232.5 110.525 230.5C112.359 228.333 116.525 224.7 118.525 227.5C120.859 230.167 126.525 234.1 130.525 228.5C131.359 226.667 133.825 223.7 137.025 226.5C140.025 229 146.325 232.9 147.525 228.5C148.359 226.667 151.025 223.5 155.025 225.5C158.359 227.667 165.325 231.2 166.525 228C167.192 225.833 169.325 222 172.525 224C176.192 226.167 183.625 228.9 184.025 222.5C184.025 221 184.725 218.9 187.525 222.5C189.692 224.5 194.425 227.3 196.025 222.5C196.525 220.333 198.325 216.8 201.525 220C204.192 222 210.225 224.9 213.025 220.5C212.692 218.667 212.725 215.6 215.525 218C218.025 220 223.525 223 225.525 219C225.692 218.5 225.925 217.1 225.525 215.5C226.025 215.333 227.825 215.3 231.025 216.5C232.359 217.167 235.225 217.7 236.025 214.5C236.192 213.833 236.325 212.3 235.525 211.5C237.192 212.5 240.725 213.6 241.525 210C241.692 209.5 241.825 208.2 241.025 207C242.26 207 244.627 206.397 246.422 204.297C244.836 204.76 241.012 204.642 239.025 204.5C239.025 202.5 236.692 198.333 235.525 196.5L238.025 194L248.025 201.5C247.61 202.642 247.051 203.562 246.422 204.297C246.698 204.217 246.907 204.119 247.025 204C247.825 203.2 227.692 283.667 217.525 324C209.525 331.667 180.425 346.6 128.025 345C102.525 346 46.9254 343.5 28.5254 325.5C19.5033 289.411 1.60147 214.994 1.03926 201.596C0.988041 201.341 0.990653 201.14 1.0257 201L5.0257 196.5L9.52565 199.5Z" fill="#EDD0C2"/>
<path d="M1.0257 201L5.0257 196.5L9.52565 199.5C8.5 202.5 8.02565 206.5 8.52565 209L6.52539 209.5M1.0257 201C0.859052 201.667 1.42574 203.7 5.0257 206.5C4.35883 206.833 3.22514 207.6 4.02539 208C4.85872 208.333 6.52539 209.1 6.52539 209.5M1.0257 201C1.0257 212.6 19.3588 288.833 28.5254 325.5C46.9254 343.5 102.525 346 128.025 345C180.425 346.6 209.525 331.667 217.525 324C227.692 283.667 247.825 203.2 247.025 204C246.225 204.8 241.359 204.667 239.025 204.5C239.025 202.5 236.692 198.333 235.525 196.5L238.025 194L248.025 201.5C246.425 205.9 242.692 207 241.025 207C241.825 208.2 241.692 209.5 241.525 210C240.725 213.6 237.192 212.5 235.525 211.5C236.325 212.3 236.192 213.833 236.025 214.5C235.225 217.7 232.359 217.167 231.025 216.5C227.825 215.3 226.025 215.333 225.525 215.5C225.925 217.1 225.692 218.5 225.525 219C223.525 223 218.025 220 215.525 218C212.725 215.6 212.692 218.667 213.025 220.5C210.225 224.9 204.192 222 201.525 220C198.325 216.8 196.525 220.333 196.025 222.5C194.425 227.3 189.692 224.5 187.525 222.5C184.725 218.9 184.025 221 184.025 222.5C183.625 228.9 176.192 226.167 172.525 224C169.325 222 167.192 225.833 166.525 228C165.325 231.2 158.359 227.667 155.025 225.5C151.025 223.5 148.359 226.667 147.525 228.5C146.325 232.9 140.025 229 137.025 226.5C133.825 223.7 131.359 226.667 130.525 228.5C126.525 234.1 120.859 230.167 118.525 227.5C116.525 224.7 112.359 228.333 110.525 230.5C106.925 232.5 103.692 229.333 102.525 227.5C101.325 224.3 96.3587 226.833 94.0254 228.5C88.8254 232.5 85.5254 229.5 84.5254 227.5C83.3254 223.9 79.6921 226 78.0254 227.5C72.8254 231.5 70.1921 228.5 69.5254 226.5C68.3254 223.7 62.0254 226 59.0254 227.5C55.0254 228.7 53.0254 226 52.5254 224.5C52.5254 221.7 46.5254 223.667 43.5254 225C40.3254 227 38.1921 223.167 37.5254 221C36.7254 219.8 34.8587 220.833 34.0254 221.5C29.2254 224.3 28.3587 221.333 28.5254 219.5C28.5254 217.1 27.1921 217.167 26.5254 217.5C18.5254 221.5 17.1921 218.167 17.5254 216C8.32539 218.4 8.35872 215.333 9.52539 213.5C4.72539 213.9 4.52539 212.667 5.02539 212C6.62539 210.8 6.69206 209.833 6.52539 209.5" stroke="#EC7E62"/>
<path d="M17.5254 216C13.5254 217.2 10.8587 216.833 10.0254 216.5L34.5254 330C37.3254 331.6 38.3587 332 38.5254 332C20.0254 234 20.5254 219.5 19.0254 219C17.5075 218.494 17.3587 217 17.5254 216Z" fill="#A25956"/>
<path d="M26.5254 217.5C24.9254 218.7 21.8587 219.333 20.5254 219.5C27.3587 257.333 41.1254 333.1 41.5254 333.5C41.9254 333.9 44.6921 335 46.0254 335.5L29.5254 222.5C28.3254 221.3 28.3587 220 28.5254 219.5C28.5254 217.1 27.1921 217.167 26.5254 217.5Z" fill="#A25956"/>
<path d="M35.0254 221C32.6254 223 31.0254 222.833 30.5254 222.5L48.5254 336L54.5254 338L38.5254 223.5L37.5254 221.5C36.7254 219.9 35.5254 220.5 35.0254 221Z" fill="#A25956"/>
<path d="M43.5254 225C42.5254 225.5 41.6921 225.667 41.0254 225.5L60.0254 339.5L66.0254 340.5C61.3587 302.167 51.9254 225.1 51.5254 223.5C51.1254 221.9 46.0254 223.833 43.5254 225Z" fill="#A25956"/>
<path d="M60.0254 227C59.6254 227.4 58.1921 227.833 57.5254 228L71.0254 341.5L77.5254 342.5C74.6921 304 68.8254 226.7 68.0254 225.5C67.2254 224.3 62.3587 226 60.0254 227Z" fill="#A25956"/>
<path d="M78.5254 227C77.3254 228.6 74.6921 229.333 73.5254 229.5L83.0254 343L92.0254 344C89.3587 304.667 83.7254 225.9 82.5254 225.5C81.3254 225.1 79.3587 226.333 78.5254 227Z" fill="#A25956"/>
<path d="M94.0254 228.5C93.2254 229.3 91.0254 230.167 90.0254 230.5L99.5254 344.5L106.525 345C105.025 305.667 101.725 226.8 100.525 226C99.3254 225.2 95.6921 227.333 94.0254 228.5Z" fill="#A25956"/>
<path d="M111.525 229.5C109.925 231.1 109.025 231.5 108.525 231.5L114.525 345H122.025L117.525 226.5C115.125 226.1 112.525 228.333 111.525 229.5Z" fill="#A25956"/>
<path d="M130.525 228.5C129.725 230.1 127.192 231.167 126.025 231.5L128.525 345H135.025C135.025 305 134.725 225.1 133.525 225.5C132.325 225.9 131.025 227.667 130.525 228.5Z" fill="#A25956"/>
<path d="M147.525 228.5C147.125 230.1 145.692 230.5 145.025 230.5L143.525 345L150.025 344.5L151.525 225C149.925 225 148.192 227.333 147.525 228.5Z" fill="#A25956"/>
<path d="M166.525 228C166.125 229.2 164.359 229.167 163.525 229C164.725 231.4 159.025 306.667 156.025 344L162.025 343.5L168.525 224.5C167.725 224.5 166.859 226.833 166.525 228Z" fill="#A25956"/>
<path d="M183.525 225C182.725 226.2 181.192 226.5 180.525 226.5L167.525 343L172.525 342L183.525 225Z" fill="#A25956"/>
<path d="M196.025 222C195.625 224.8 193.525 225.167 192.525 225L179.525 340.5L185.025 339L198.025 219C197.225 219 196.359 221 196.025 222Z" fill="#A25956"/>
<path d="M211.525 222C210.725 223.2 209.192 223.167 208.525 223L192.025 337L196.525 335.5L211.525 222Z" fill="#A25956"/>
<path d="M224.025 220.5C223.225 221.3 222.025 221.167 221.525 221L201.025 334L205.025 332L224.025 220.5Z" fill="#A25956"/>
<path d="M233.025 217C233.487 217 234.374 216.915 234.508 216.588L234.525 216.5C234.525 216.531 234.519 216.56 234.508 216.588L212.525 328L208.025 330.5L233.025 217Z" fill="#A25956"/>
<path d="M239.525 212.5C240.053 212.236 240.998 211.576 241.37 210.717L241.525 210C241.525 210.25 241.467 210.49 241.37 210.717L216.525 325L214.025 327L239.525 212.5Z" fill="#A25956"/>
<ellipse cx="196" cy="197.5" rx="1" ry="1.5" transform="rotate(-3.51054 196 197.5)" fill="#B15C3C"/>
<circle cx="193" cy="199" r="1" fill="#B15C3C"/>
<circle cx="186.5" cy="202.5" r="1.5" fill="#B15C3C"/>
<ellipse cx="202.5" cy="203" rx="1.5" ry="1" fill="#B15C3C"/>
<circle cx="212.5" cy="196.5" r="2.5" fill="#B15C3C"/>
<ellipse cx="219" cy="189.5" rx="1" ry="1.5" fill="#B15C3C"/>
<ellipse cx="69.649" cy="195.695" rx="1" ry="1.5" transform="rotate(150.237 69.649 195.695)" fill="#B15C3C"/>
<circle cx="71.6764" cy="193.023" r="1" transform="rotate(153.748 71.6764 193.023)" fill="#B15C3C"/>
<circle cx="75.958" cy="187.009" r="1.5" transform="rotate(153.748 75.958 187.009)" fill="#B15C3C"/>
<ellipse cx="61.3872" cy="193.638" rx="1.5" ry="1" transform="rotate(153.748 61.3872 193.638)" fill="#B15C3C"/>
<circle cx="55.2937" cy="203.89" r="2.5" transform="rotate(153.748 55.2937 203.89)" fill="#B15C3C"/>
<ellipse cx="52.5608" cy="213.043" rx="1" ry="1.5" transform="rotate(153.748 52.5608 213.043)" fill="#B15C3C"/>
<ellipse cx="122.649" cy="203.695" rx="1" ry="1.5" transform="rotate(150.237 122.649 203.695)" fill="#B15C3C"/>
<circle cx="124.676" cy="201.023" r="1" transform="rotate(153.748 124.676 201.023)" fill="#B15C3C"/>
<circle cx="128.958" cy="195.009" r="1.5" transform="rotate(153.748 128.958 195.009)" fill="#B15C3C"/>
<ellipse cx="114.387" cy="201.638" rx="1.5" ry="1" transform="rotate(153.748 114.387 201.638)" fill="#B15C3C"/>
<circle cx="31.3483" cy="187.348" r="2.5" transform="rotate(153.748 31.3483 187.348)" fill="#B15C3C"/>
<circle cx="108.294" cy="211.89" r="2.5" transform="rotate(153.748 108.294 211.89)" fill="#B15C3C"/>
<circle cx="93.3483" cy="213.348" r="2.5" transform="rotate(153.748 93.3483 213.348)" fill="#B15C3C"/>
<ellipse cx="105.561" cy="221.043" rx="1" ry="1.5" transform="rotate(153.748 105.561 221.043)" fill="#B15C3C"/>
<ellipse cx="97.649" cy="198.695" rx="1" ry="1.5" transform="rotate(150.237 97.649 198.695)" fill="#B15C3C"/>
<circle cx="99.6764" cy="196.023" r="1" transform="rotate(153.748 99.6764 196.023)" fill="#B15C3C"/>
<circle cx="103.958" cy="190.009" r="1.5" transform="rotate(153.748 103.958 190.009)" fill="#B15C3C"/>
<ellipse cx="89.3872" cy="196.638" rx="1.5" ry="1" transform="rotate(153.748 89.3872 196.638)" fill="#B15C3C"/>
<circle cx="83.2937" cy="206.89" r="2.5" transform="rotate(153.748 83.2937 206.89)" fill="#B15C3C"/>
<ellipse cx="80.5608" cy="216.043" rx="1" ry="1.5" transform="rotate(153.748 80.5608 216.043)" fill="#B15C3C"/>
<ellipse cx="31.5" cy="204" rx="1.5" ry="1" fill="#B15C3C"/>
<circle cx="41.5" cy="197.5" r="2.5" fill="#B15C3C"/>
<ellipse cx="48" cy="190.5" rx="1" ry="1.5" fill="#B15C3C"/>
<ellipse cx="141" cy="210.5" rx="1" ry="1.5" transform="rotate(-3.51054 141 210.5)" fill="#B15C3C"/>
<circle cx="138" cy="212" r="1" fill="#B15C3C"/>
<circle cx="131.5" cy="215.5" r="1.5" fill="#B15C3C"/>
<ellipse cx="147.5" cy="216" rx="1.5" ry="1" fill="#B15C3C"/>
<circle cx="157.5" cy="209.5" r="2.5" fill="#B15C3C"/>
<ellipse cx="164" cy="202.5" rx="1" ry="1.5" fill="#B15C3C"/>
<ellipse cx="143" cy="178.5" rx="1" ry="1.5" transform="rotate(-3.51054 143 178.5)" fill="#B15C3C"/>
<circle cx="140" cy="180" r="1" fill="#B15C3C"/>
<circle cx="133.5" cy="183.5" r="1.5" fill="#B15C3C"/>
<ellipse cx="149.5" cy="184" rx="1.5" ry="1" fill="#B15C3C"/>
<circle cx="159.5" cy="177.5" r="2.5" fill="#B15C3C"/>
<ellipse cx="166" cy="170.5" rx="1" ry="1.5" fill="#B15C3C"/>
<ellipse cx="168" cy="187.5" rx="1" ry="1.5" transform="rotate(-3.51054 168 187.5)" fill="#B15C3C"/>
<circle cx="165" cy="189" r="1" fill="#B15C3C"/>
<circle cx="158.5" cy="192.5" r="1.5" fill="#B15C3C"/>
<ellipse cx="174.5" cy="193" rx="1.5" ry="1" fill="#B15C3C"/>
<circle cx="184.5" cy="186.5" r="2.5" fill="#B15C3C"/>
<ellipse cx="191" cy="179.5" rx="1" ry="1.5" fill="#B15C3C"/>
<path d="M136.053 15.5C133.253 6.3 141.887 3.33333 146.553 3C138.952 8.6 143.054 13.6667 146.055 15.5C158.855 21.5 171.055 30.6667 175.555 34.5C192.355 48.1 187.221 67.8333 182.555 76C228.555 79.6 229.721 115.5 224.555 133C246.555 149.8 238.388 176.333 231.555 187.5C220.355 202.7 203.888 203.5 197.055 202C153.055 232 111.721 218.5 96.5547 208C54.9547 221.2 25.5546 203.833 16.0546 193.5C4.85462 181.1 11.721 168.667 16.5542 164C12.1542 159.6 13.0542 150.833 14.0542 147C16.8542 133 32.2206 131.167 39.5538 132C33.5538 126.8 35.3872 111.5 37.0538 104.5C42.6538 75.3 70.3869 74.6667 83.5534 78C74.7534 54 94.5534 44.3333 105.553 42.5C115.153 42.5 128.553 33.5 134.053 29C139.253 23.8 137.553 17.8333 136.053 15.5Z" fill="#F9F4DF" stroke="#F9F4DF"/>
<path d="M101.054 61.5C101.854 72.3 113.721 70.6666 119.554 68.5C129.954 60.0999 142.221 63.3333 147.055 66C154.255 70 160.721 64.6667 163.055 61.5C163.855 59.9 163.055 55.1667 162.555 53C162.555 47.8 168.221 49.5 171.055 51C179.855 56.2 179.388 66.5 178.055 71C172.855 81 147.221 84.5 135.055 85C114.655 88.6 97.8878 80.8333 92.0544 76.5C84.4544 68.1 87.5544 60.3333 90.0544 57.5C98.4544 51.1 100.888 57.5 101.054 61.5Z" fill="#F6EDD1"/>
<path d="M39.5547 118.5C40.3547 107.7 50.888 107.667 56.0547 109C61.6547 109.8 75.388 117.333 81.5547 121C82.0547 121.5 86.0547 124.167 87.5547 124C95.5547 123.6 101.888 127.167 104.055 129C110.055 133 118.888 132.333 122.555 131.5C133.755 127.9 143.555 125.667 147.055 125C154.255 123 167.055 125.167 172.555 126.5C177.555 128.5 194.055 126.5 195.555 126.5C201.555 126.9 206.055 117 207.555 112C210.755 105.6 214.888 107 216.555 108.5C222.955 114.5 220.555 125.333 218.555 130C217.755 136.4 183.888 138 167.055 138C147.855 144.4 122.721 143.667 112.555 142.5C104.555 141.3 85.5547 141 77.0547 141C48.2547 144.6 40.0547 127.5 39.5547 118.5Z" fill="#F6EDD1"/>
<path d="M27.0548 197.5C9.45484 186.3 12.0548 175.5 15.5548 171.5C18.355 167.1 23.7215 166.667 26.0547 167C29.6547 167.8 33.888 171.667 35.5547 173.5C39.9547 178.3 59.7214 179.167 69.0547 179C83.0547 179.4 99.2214 190.167 105.555 195.5C111.155 201.9 120.888 193.5 125.055 188.5C140.555 171 175.555 180.5 178.555 180.5C192.955 184.9 198.555 182.333 199.555 180.5C201.155 178.5 206.221 176.667 208.555 176C217.355 174.4 220.888 161.333 221.555 155C221.955 148.6 225.388 146.333 227.055 146C231.455 143.6 233.555 148.667 234.055 151.5C235.655 166.3 232.055 177.333 230.055 181C225.655 193 208.221 196.667 200.055 197C195.655 195.4 188.888 200 186.055 202.5C173.655 211.3 149.888 214.5 139.555 215C129.555 217.4 108.055 209.333 98.5547 205C93.7547 201.8 82.5547 204.333 77.5547 206C58.7547 212.8 36.0548 203.167 27.0548 197.5Z" fill="#F6EDD1"/>
<path d="M140.555 87C106.955 91.8 90.5547 80 86.5547 73.5C83.7547 69.9 100.055 77 108.555 81C112.955 83 118.388 82.8333 120.555 82.5C127.351 78.9 137.053 79.6667 141.055 80.5C150.255 82.9 156.555 80.1667 158.555 78.5C161.755 74.1 170.888 71.3333 175.055 70.5C177.055 69.7 177.221 63.5 177.055 60.5C179.455 57.3 180.721 62.5 181.055 65.5C182.655 79.9 154.721 85.8333 140.555 87Z" fill="#EAD8AC"/>
<path d="M42.5548 130.5C39.7548 123.3 43.7215 126.5 46.0548 129C46.0548 129.8 52.3881 135 55.5547 137.5C57.5547 142.3 72.7214 141.167 80.0547 140C85.6547 137.2 99.0547 137.833 105.055 138.5C108.655 140.1 112.888 140.833 114.555 141C121.755 139.4 128.888 140.333 131.555 141C139.955 143 154.055 140.167 160.055 138.5C164.055 135.7 170.055 135.333 172.555 135.5C176.555 136.7 181.221 135.667 183.055 135C185.055 134.2 196.555 134.667 202.055 135C204.455 135.4 208.055 134.167 209.555 133.5C211.955 132.7 214.555 132.167 215.555 132C219.955 132 215.721 135 213.055 136.5C209.455 137.7 181.555 139.333 168.055 140C156.455 142 141.221 146.5 135.055 148.5C129.855 153.3 114.555 147.833 107.555 144.5C97.5547 141.3 80.388 143.167 73.0547 144.5C55.0547 146.5 45.2215 136 42.5548 130.5Z" fill="#EAD8AC"/>
<path d="M158.296 51.2901L160.475 38.4739L169.998 42.1214L163.021 53.4541C162.634 50.1225 159.422 50.6361 158.296 51.2901Z" fill="#EDD0C2"/>
<rect x="132.939" width="90" height="28" rx="5" transform="rotate(19.9284 132.939 0)" fill="#EDD0C2"/>
<path d="M145 53.0564C150.846 50.2338 167.331 49.8708 168.5 61" stroke="#EAD8AC" stroke-width="3" stroke-linecap="round"/>
<path d="M150.103 13.0808L154.765 14.6922L154.141 16.4955L149.48 14.8841L150.103 13.0808ZM148.898 16.5683L153.559 18.1797L152.93 20L148.268 18.3886L148.898 16.5683ZM147.907 10.9502C150.255 11.7618 151.493 14.0184 150.723 16.247C149.952 18.4756 147.585 19.4853 145.237 18.6738C142.872 17.8563 141.634 15.5997 142.404 13.3711C143.174 11.1425 145.542 10.1328 147.907 10.9502ZM147.242 12.8726C146.086 12.4727 144.994 12.8761 144.564 14.118C144.141 15.3429 144.739 16.3685 145.896 16.7684C147.052 17.1683 148.156 16.7308 148.579 15.506C149.009 14.2641 148.399 13.2725 147.242 12.8726ZM154.762 12.3867L157.024 13.1689L153.837 22.3895L151.574 21.6073L154.762 12.3867ZM148.383 20.8661C151.701 22.0129 153.376 23.8872 152.7 25.8436C152.024 27.8 149.554 28.2223 146.237 27.0755C142.919 25.9287 141.238 24.0714 141.914 22.115C142.591 20.1586 145.066 19.7193 148.383 20.8661ZM147.778 22.6183C145.719 21.9067 144.46 21.9668 144.143 22.8854C143.825 23.8041 144.778 24.6287 146.837 25.3403C148.912 26.0578 150.154 25.9918 150.471 25.0732C150.789 24.1545 149.853 23.3358 147.778 22.6183ZM165.03 16.946L167.004 17.6282L166.61 18.768C165.428 22.1874 161.948 24.3746 157.589 23.7627L157.266 21.5561C161.033 22.1729 163.854 20.3484 164.636 18.0858L165.03 16.946ZM165.49 17.1048L167.446 17.7811L167.052 18.9209C166.252 21.2345 167.345 24.3547 170.706 26.2022L169.089 27.7383C165.282 25.5273 163.896 21.715 165.096 18.2446L165.49 17.1048ZM155.361 26.0207L169.617 30.949L168.982 32.7863L154.726 27.858L155.361 26.0207ZM175.104 21.0761L182.641 23.6814L179.03 34.1269L171.493 31.5215L175.104 21.0761ZM179.801 24.6803L176.721 23.6158L174.339 30.5057L177.419 31.5702L179.801 24.6803ZM185.211 22.913L187.49 23.701L182.045 39.4543L179.765 38.6662L185.211 22.913ZM184.928 29.4618L187.718 30.4263L187.071 32.2977L184.281 31.3332L184.928 29.4618ZM194.711 31.0727L197.943 32.1901L197.326 33.9764L194.093 32.859L194.711 31.0727ZM202.188 28.7818L204.331 29.5228L200.697 40.0364L198.553 39.2953L202.188 28.7818ZM198.833 27.9078L200.96 28.643L197.896 37.5063L195.769 36.7712L198.833 27.9078ZM194.373 36.898L196.312 37.5684L196.207 37.8747C195.236 40.6817 192.219 42.2478 188.083 41.4847L187.827 39.4155C191.422 40.1441 193.679 38.9054 194.267 37.2042L194.373 36.898ZM194.679 37.0039L196.619 37.6743L196.513 37.9805C195.925 39.6817 196.951 42.0555 200.195 43.691L198.733 45.1662C195.009 43.2123 193.603 40.1171 194.573 37.3101L194.679 37.0039ZM195.107 27.6673L197.285 28.4201C195.85 32.571 193.301 35.0418 188.19 35.4462L187.671 33.4765C191.893 33.1647 193.819 31.393 194.872 28.3478L195.107 27.6673ZM191.109 26.2852L195.805 27.9084L195.181 29.7117L190.486 28.0885L191.109 26.2852ZM194.174 30.6967L193.645 32.2278L189 31.1744L189.351 29.2771L194.174 30.6967Z" fill="#A25956"/>
<line x1="44.0925" y1="166.349" x2="47.3487" y2="170.908" stroke="#F7B9B9" stroke-width="3" stroke-linecap="round"/>
<line x1="201.541" y1="186.065" x2="200.395" y2="191.549" stroke="#F7B9B9" stroke-width="3" stroke-linecap="round"/>
<line x1="172.927" y1="134.636" x2="178.478" y2="135.392" stroke="#F7B9B9" stroke-width="3" stroke-linecap="round"/>
<line x1="128.092" y1="134.349" x2="131.349" y2="138.908" stroke="#F7B9B9" stroke-width="3" stroke-linecap="round"/>
<line x1="144.663" y1="92.9071" x2="149.676" y2="95.4086" stroke="#F7B9B9" stroke-width="3" stroke-linecap="round"/>
<line x1="95.0925" y1="135.349" x2="98.3487" y2="139.908" stroke="#F7B9B9" stroke-width="3" stroke-linecap="round"/>
<line x1="156.872" y1="139.772" x2="161.674" y2="142.657" stroke="#F7B9B9" stroke-width="3" stroke-linecap="round"/>
<line x1="127.092" y1="181.349" x2="130.349" y2="185.908" stroke="#F7B9B9" stroke-width="3" stroke-linecap="round"/>
<line x1="107.596" y1="70.7847" x2="103.379" y2="74.4733" stroke="#F7B9B9" stroke-width="3" stroke-linecap="round"/>
<line x1="122" y1="96.2929" x2="127.055" y2="98.7073" stroke="#F7B9B9" stroke-width="3" stroke-linecap="round"/>
<line x1="158.376" y1="88.7768" x2="162.912" y2="85.6242" stroke="#F7B9B9" stroke-width="3" stroke-linecap="round"/>
<line x1="76.0925" y1="81.3487" x2="79.3487" y2="85.9075" stroke="#F7B9B9" stroke-width="3" stroke-linecap="round"/>
<line x1="51.0925" y1="186.349" x2="54.3487" y2="190.908" stroke="#F7B9B9" stroke-width="3" stroke-linecap="round"/>
<line x1="206.945" y1="180.612" x2="212.489" y2="181.419" stroke="#F7B9B9" stroke-width="3" stroke-linecap="round"/>
<line x1="170.092" y1="180.349" x2="173.349" y2="184.908" stroke="#F7B9B9" stroke-width="3" stroke-linecap="round"/>
<line x1="212.327" y1="143.844" x2="210.844" y2="149.246" stroke="#F7B9B9" stroke-width="3" stroke-linecap="round"/>
<line x1="124.092" y1="121.349" x2="127.349" y2="125.908" stroke="#F7B9B9" stroke-width="3" stroke-linecap="round"/>
<line x1="90.4094" y1="157.224" x2="86.949" y2="161.629" stroke="#F7B9B9" stroke-width="3" stroke-linecap="round"/>
<line x1="43.0925" y1="146.349" x2="46.3487" y2="150.908" stroke="#F7B9B9" stroke-width="3" stroke-linecap="round"/>
<line x1="55.0925" y1="120.349" x2="58.3487" y2="124.908" stroke="#F7B9B9" stroke-width="3" stroke-linecap="round"/>
<line x1="189.412" y1="135.248" x2="193.589" y2="131.515" stroke="#C8DA88" stroke-width="3" stroke-linecap="round"/>
<line x1="130.092" y1="147.349" x2="133.349" y2="151.908" stroke="#C8DA88" stroke-width="3" stroke-linecap="round"/>
<line x1="174.9" y1="193.005" x2="180.169" y2="191.1" stroke="#C8DA88" stroke-width="3" stroke-linecap="round"/>
<line x1="144.492" y1="188.038" x2="149.663" y2="190.193" stroke="#C8DA88" stroke-width="3" stroke-linecap="round"/>
<line x1="142.323" y1="140.528" x2="147.239" y2="137.84" stroke="#C8DA88" stroke-width="3" stroke-linecap="round"/>
<line x1="85.0925" y1="191.349" x2="88.3487" y2="195.908" stroke="#C8DA88" stroke-width="3" stroke-linecap="round"/>
<line x1="36.0925" y1="184.349" x2="39.3487" y2="188.908" stroke="#C8DA88" stroke-width="3" stroke-linecap="round"/>
<line x1="81.3351" y1="137.786" x2="86.0157" y2="134.707" stroke="#C8DA88" stroke-width="3" stroke-linecap="round"/>
<line x1="66.8788" y1="142.704" x2="72.4479" y2="143.313" stroke="#C8DA88" stroke-width="3" stroke-linecap="round"/>
<line x1="124.092" y1="199.349" x2="127.349" y2="203.908" stroke="#C8DA88" stroke-width="3" stroke-linecap="round"/>
<line x1="197.72" y1="178.42" x2="201.497" y2="182.558" stroke="#C8DA88" stroke-width="3" stroke-linecap="round"/>
<line x1="110.323" y1="195.581" x2="115.193" y2="192.811" stroke="#C8DA88" stroke-width="3" stroke-linecap="round"/>
<line x1="92.306" y1="63.2014" x2="97.6291" y2="64.9481" stroke="#C8DA88" stroke-width="3" stroke-linecap="round"/>
<path d="M150.949 59.8134L156.254 61.6143" stroke="#C8DA88" stroke-width="3" stroke-linecap="round"/>
<line x1="81.3308" y1="98.7286" x2="86.0665" y2="95.7355" stroke="#C8DA88" stroke-width="3" stroke-linecap="round"/>
<line x1="172.092" y1="121.349" x2="175.349" y2="125.908" stroke="#FAD483" stroke-width="3" stroke-linecap="round"/>
<line x1="88.0925" y1="120.349" x2="91.3487" y2="124.908" stroke="#FAD483" stroke-width="3" stroke-linecap="round"/>
<line x1="55.0925" y1="103.349" x2="58.3487" y2="107.908" stroke="#FAD483" stroke-width="3" stroke-linecap="round"/>
<line x1="152.402" y1="195.113" x2="157.649" y2="197.078" stroke="#FAD483" stroke-width="3" stroke-linecap="round"/>
<line x1="143.078" y1="145.443" x2="148.555" y2="146.624" stroke="#FAD483" stroke-width="3" stroke-linecap="round"/>
<line x1="220.647" y1="166.9" x2="223.915" y2="162.35" stroke="#FAD483" stroke-width="3" stroke-linecap="round"/>
<line x1="157.811" y1="82.895" x2="163.256" y2="84.2131" stroke="#FAD483" stroke-width="3" stroke-linecap="round"/>
<line x1="108.886" y1="140.401" x2="106.924" y2="145.649" stroke="#FAD483" stroke-width="3" stroke-linecap="round"/>
<line x1="159.599" y1="121.115" x2="158.322" y2="126.569" stroke="#FAD483" stroke-width="3" stroke-linecap="round"/>
<line x1="203.092" y1="133.349" x2="206.349" y2="137.908" stroke="#FAD483" stroke-width="3" stroke-linecap="round"/>
<line x1="185.092" y1="181.349" x2="188.349" y2="185.908" stroke="#FAD483" stroke-width="3" stroke-linecap="round"/>
<line x1="131.351" y1="188.098" x2="128.086" y2="192.651" stroke="#FAD483" stroke-width="3" stroke-linecap="round"/>
<line x1="60.0925" y1="185.349" x2="63.3487" y2="189.908" stroke="#FAD483" stroke-width="3" stroke-linecap="round"/>
<line x1="70.0925" y1="134.349" x2="73.3487" y2="138.908" stroke="#FAD483" stroke-width="3" stroke-linecap="round"/>
<line x1="148.092" y1="175.349" x2="151.349" y2="179.908" stroke="#ABCEF8" stroke-width="3" stroke-linecap="round"/>
<line x1="111.587" y1="129.456" x2="115.539" y2="133.427" stroke="#ABCEF8" stroke-width="3" stroke-linecap="round"/>
<line x1="176.136" y1="89.6305" x2="180.645" y2="92.9547" stroke="#ABCEF8" stroke-width="3" stroke-linecap="round"/>
<line x1="117.092" y1="65.3487" x2="120.349" y2="69.9075" stroke="#ABCEF8" stroke-width="3" stroke-linecap="round"/>
<line x1="110.324" y1="102.407" x2="115.338" y2="99.9079" stroke="#ABCEF8" stroke-width="3" stroke-linecap="round"/>
<line x1="211.025" y1="132.89" x2="215.032" y2="128.975" stroke="#ABCEF8" stroke-width="3" stroke-linecap="round"/>
<line x1="215.739" y1="173.928" x2="221.339" y2="174.073" stroke="#ABCEF8" stroke-width="3" stroke-linecap="round"/>
<line x1="160.092" y1="189.349" x2="163.349" y2="193.908" stroke="#ABCEF8" stroke-width="3" stroke-linecap="round"/>
<line x1="97.0925" y1="193.349" x2="100.349" y2="197.908" stroke="#ABCEF8" stroke-width="3" stroke-linecap="round"/>
<line x1="65.0925" y1="179.349" x2="68.3487" y2="183.908" stroke="#ABCEF8" stroke-width="3" stroke-linecap="round"/>
<line x1="72.6941" y1="123.426" x2="76.5054" y2="127.533" stroke="#ABCEF8" stroke-width="3" stroke-linecap="round"/>
<line x1="136.468" y1="196.55" x2="141.972" y2="195.503" stroke="#E8BA7E" stroke-width="3" stroke-linecap="round"/>
<line x1="71" y1="187.879" x2="74.8787" y2="184" stroke="#E8BA7E" stroke-width="3" stroke-linecap="round"/>
<line x1="32.0925" y1="166.349" x2="35.3487" y2="170.908" stroke="#E8BA7E" stroke-width="3" stroke-linecap="round"/>
<line x1="26.0027" y1="171.542" x2="23.7424" y2="176.668" stroke="#E8BA7E" stroke-width="3" stroke-linecap="round"/>
<line x1="131.355" y1="64.9527" x2="135.866" y2="61.6314" stroke="#E8BA7E" stroke-width="3" stroke-linecap="round"/>
<line x1="184.715" y1="82.8711" x2="189.677" y2="85.4717" stroke="#E8BA7E" stroke-width="3" stroke-linecap="round"/>
<line x1="131.98" y1="91.2385" x2="138.238" y2="94.0201" stroke="#E8BA7E" stroke-width="3" stroke-linecap="round"/>
<line x1="131.98" y1="91.2385" x2="138.238" y2="94.0201" stroke="#E8BA7E" stroke-width="3" stroke-linecap="round"/>
<line x1="148.092" y1="85.3487" x2="151.349" y2="89.9075" stroke="#7AD6FB" stroke-width="3" stroke-linecap="round"/>
<line x1="49.6381" y1="181.997" x2="44.3462" y2="183.836" stroke="#7AD6FB" stroke-width="3" stroke-linecap="round"/>
<line x1="116.092" y1="185.349" x2="119.349" y2="189.908" stroke="#7AD6FB" stroke-width="3" stroke-linecap="round"/>
<line x1="185.092" y1="141.349" x2="188.349" y2="145.908" stroke="#7AD6FB" stroke-width="3" stroke-linecap="round"/>
<line x1="152.092" y1="128.349" x2="155.349" y2="132.908" stroke="#7AD6FB" stroke-width="3" stroke-linecap="round"/>
<line x1="96.0925" y1="146.349" x2="99.3487" y2="150.908" stroke="#7AD6FB" stroke-width="3" stroke-linecap="round"/>
<line x1="61.0775" y1="131.642" x2="58.6172" y2="136.675" stroke="#7AD6FB" stroke-width="3" stroke-linecap="round"/>
<path d="M180.388 68.178C186.426 65.8933 190.558 68.8758 191.87 70.6526C193.744 73.5801 191.977 75.1582 190.859 75.5813C190.188 75.8351 187.842 75.2076 186.752 74.8622C185.11 74.5745 183.581 74.9257 183.022 75.1372C181.009 75.8988 180.198 76.9635 180.044 77.4007C178.934 80.5483 186.175 79.2479 189.934 78.2042C195.232 78.018 197.251 81.4969 197.599 83.2596C198.734 88.2855 194.237 92.1087 191.847 93.392C184.098 97.2336 180.405 93.5545 179.527 91.2347C177.721 86.4627 181.126 85.3259 183.054 85.3541C185.668 86.1832 187.999 85.7559 188.837 85.4386C192.191 84.1693 191.969 82.738 191.439 82.181C190.837 80.5903 184.595 80.9825 181.549 81.3774C177.894 81.8513 176.285 78.4443 175.937 76.6816C174.802 71.6557 178.432 68.9184 180.388 68.178Z" fill="#A25956" stroke="#A25956"/>
<path d="M67.5059 124.532C62.1139 118.389 63.0594 114.47 64.2062 113.279C67.2588 111.214 69.026 113.349 69.528 114.674C73.2084 122.373 77.4252 124.567 79.0736 124.701C81.6877 125.53 82.9582 123.989 83.2667 123.114C83.1035 118.63 80.884 116.818 79.7947 116.472C76.8104 116.693 76.1787 113.673 76.236 112.136C75.7026 108.701 78.0567 107.658 79.3004 107.567C81.3129 106.805 82.7619 110.803 83.2348 112.897C87.8436 131.156 87.5119 138.556 86.7699 139.973C82.9077 145.981 77.3342 145.438 75.0302 144.415C71.1429 142.249 71.404 138.211 72.0205 136.462C75.1425 132.553 78.546 135.129 79.8576 136.906C81.4313 139.038 83.5018 138.936 84.3404 138.619C85.682 138.111 85.265 135.996 84.8888 135.002C84.5879 134.207 82.8929 133.105 82.0831 132.654C75.2116 130.708 69.5019 126.428 67.5059 124.532Z" fill="#A25956" stroke="#A25956"/>
<path d="M108.102 100.079C106.898 96.8973 109.392 95.0442 110.789 94.5153C112.802 93.7538 114.308 96.2145 114.81 97.5401L119.324 109.47C120.597 110.807 122.592 110.507 123.431 110.189C125.443 109.428 126.004 107.7 126.033 106.932L121.518 95.0016C120.314 91.8202 121.69 90.3902 122.529 90.0729C124.541 89.3114 126.048 91.7721 126.549 93.0977L132.569 109.005C134.375 113.777 133.149 115.604 132.31 115.922C130.298 116.683 128.29 112.897 127.538 110.908C125.989 116.95 121.187 118.615 118.98 118.693C115.996 118.913 113.996 115.654 113.368 113.997L108.102 100.079Z" fill="#A25956" stroke="#A25956"/>
<path d="M155.772 100.956C156.975 104.137 154.481 105.99 153.084 106.519C151.071 107.28 149.565 104.82 149.063 103.494L144.549 91.564C143.276 90.2272 141.281 90.5276 140.442 90.8449C138.43 91.6065 137.869 93.334 137.84 94.1026L142.355 106.033C143.559 109.214 142.183 110.644 141.344 110.961C139.332 111.723 137.825 109.262 137.324 107.937L131.304 92.0297C129.498 87.2577 130.724 85.43 131.563 85.1127C133.575 84.3512 135.583 88.1375 136.335 90.1258C137.884 84.0845 142.686 82.419 144.893 82.3413C147.877 82.1213 149.878 85.3802 150.505 87.0371L155.772 100.956Z" fill="#A25956" stroke="#A25956"/>
<path fill-rule="evenodd" clip-rule="evenodd" d="M93.1807 101.179C89.8265 102.448 84.0963 107.571 88.0089 117.911C89.89 122.882 95.6818 131.601 103.801 126.71C107.155 125.441 112.717 120.381 108.134 110.295C106.504 105.987 101.231 98.1325 93.1807 101.179ZM96.943 111.121L91.9118 113.025L94.1691 118.99L104.232 115.182L101.974 109.217L96.943 111.121Z" fill="#A25956"/>
<path d="M103.801 126.71L103.624 126.242L103.581 126.258L103.543 126.282L103.801 126.71ZM108.134 110.295L107.666 110.472L107.672 110.487L107.679 110.502L108.134 110.295ZM91.9118 113.025L91.7348 112.557L91.2672 112.734L91.4442 113.202L91.9118 113.025ZM96.943 111.121L96.7661 110.653L96.943 111.121ZM94.1691 118.99L93.7014 119.167L93.8784 119.634L94.346 119.457L94.1691 118.99ZM104.232 115.182L104.409 115.65L104.876 115.473L104.699 115.005L104.232 115.182ZM101.974 109.217L102.442 109.04L102.265 108.572L101.797 108.749L101.974 109.217ZM88.4765 117.734C86.5615 112.673 87.0262 108.955 88.3172 106.367C89.6171 103.761 91.7835 102.242 93.3576 101.646L93.0037 100.711C91.2237 101.385 88.8479 103.062 87.4223 105.92C85.9879 108.796 85.5437 112.809 87.5413 118.088L88.4765 117.734ZM103.543 126.282C101.597 127.454 99.823 127.793 98.2326 127.601C96.6354 127.408 95.1773 126.673 93.8807 125.62C91.2756 123.506 89.3991 120.172 88.4765 117.734L87.5413 118.088C88.4998 120.621 90.4597 124.132 93.2505 126.397C94.6519 127.534 96.2816 128.372 98.1126 128.594C99.9503 128.816 101.945 128.411 104.059 127.138L103.543 126.282ZM107.679 110.502C109.923 115.44 109.654 119.072 108.49 121.599C107.316 124.146 105.198 125.646 103.624 126.242L103.978 127.178C105.757 126.504 108.098 124.84 109.398 122.018C110.707 119.176 110.928 115.236 108.589 110.088L107.679 110.502ZM93.3576 101.646C97.1754 100.202 100.319 101.328 102.743 103.362C105.188 105.413 106.872 108.373 107.666 110.472L108.602 110.118C107.766 107.909 105.998 104.788 103.386 102.596C100.753 100.387 97.2359 99.1095 93.0037 100.711L93.3576 101.646ZM92.0887 113.492L97.12 111.588L96.7661 110.653L91.7348 112.557L92.0887 113.492ZM94.6367 118.813L92.3794 112.848L91.4442 113.202L93.7014 119.167L94.6367 118.813ZM104.055 114.714L93.9921 118.522L94.346 119.457L104.409 115.65L104.055 114.714ZM101.507 109.394L103.764 115.359L104.699 115.005L102.442 109.04L101.507 109.394ZM97.12 111.588L102.151 109.684L101.797 108.749L96.7661 110.653L97.12 111.588Z" fill="#A25956"/>
<path fill-rule="evenodd" clip-rule="evenodd" d="M166.722 80.1685C165.855 81.2544 163.82 82.6308 162.616 79.4494C162.114 78.1239 160.44 75.7266 157.757 76.742C156.08 77.3766 152.841 79.9658 153.306 85.2456C153.442 88.9826 155.356 96.7443 161.927 97.8948C163.98 98.2543 168.231 97.3277 168.808 90.7449C169.116 89.8706 170.033 88.9173 171.237 92.0987C172.24 94.7498 173.559 100.767 170.806 103.627C169.688 104.05 167.302 104.499 166.7 102.908C165.765 102.125 163.709 101.085 162.969 103.183C162.074 105.037 161.329 109.487 165.517 112.448C166.732 113.125 169.924 113.962 172.978 111.898C176.052 110.734 181.466 105.958 178.526 96.1597L171.754 78.2645C171.001 76.2762 169.069 72.6886 167.357 74.2456C166.393 74.2316 164.916 75.3965 166.722 80.1685ZM162.015 84.2228L158.242 85.6507L160.123 90.6216L167.67 87.7657L165.789 82.7949L162.015 84.2228Z" fill="#A25956"/>
<path d="M166.722 80.1685L167.113 80.4806L167.291 80.258L167.19 79.9916L166.722 80.1685ZM153.306 85.2456L153.805 85.2274L153.805 85.2146L153.804 85.2018L153.306 85.2456ZM161.927 97.8948L161.84 98.3873L161.84 98.3873L161.927 97.8948ZM168.808 90.7449L168.336 90.5787L168.315 90.6383L168.309 90.7012L168.808 90.7449ZM171.237 92.0987L170.769 92.2756L170.769 92.2756L171.237 92.0987ZM170.806 103.627L170.983 104.095L171.089 104.055L171.167 103.974L170.806 103.627ZM166.7 102.908L167.167 102.731L167.121 102.608L167.021 102.524L166.7 102.908ZM162.969 103.183L163.42 103.4L163.432 103.375L163.441 103.349L162.969 103.183ZM165.517 112.448L165.228 112.856L165.25 112.872L165.273 112.885L165.517 112.448ZM172.978 111.898L172.801 111.43L172.746 111.451L172.697 111.483L172.978 111.898ZM178.526 96.1597L179.004 96.016L178.999 95.9992L178.993 95.9828L178.526 96.1597ZM171.754 78.2645L171.286 78.4415L171.286 78.4415L171.754 78.2645ZM167.357 74.2456L167.35 74.7456L167.547 74.7484L167.693 74.6155L167.357 74.2456ZM158.242 85.6507L158.065 85.1831L157.597 85.36L157.774 85.8277L158.242 85.6507ZM162.015 84.2228L161.838 83.7551L162.015 84.2228ZM160.123 90.6216L159.655 90.7985L159.832 91.2662L160.3 91.0892L160.123 90.6216ZM167.67 87.7657L167.847 88.2334L168.314 88.0564L168.137 87.5888L167.67 87.7657ZM165.789 82.7949L166.256 82.6179L166.079 82.1503L165.612 82.3272L165.789 82.7949ZM162.148 79.6264C162.467 80.4702 162.862 81.0692 163.329 81.4458C163.81 81.8331 164.337 81.9611 164.848 81.9064C165.817 81.8027 166.651 81.0585 167.113 80.4806L166.332 79.8565C165.926 80.3645 165.309 80.8513 164.742 80.912C164.486 80.9395 164.224 80.8829 163.957 80.6674C163.677 80.4413 163.366 80.0193 163.083 79.2725L162.148 79.6264ZM157.934 77.2096C159.087 76.7733 159.995 77.0636 160.696 77.6118C161.422 78.1791 161.92 79.0241 162.148 79.6264L163.083 79.2725C162.81 78.5492 162.219 77.5328 161.312 76.8239C160.381 76.0959 159.11 75.6953 157.58 76.2744L157.934 77.2096ZM153.804 85.2018C153.362 80.1819 156.429 77.7788 157.934 77.2096L157.58 76.2744C155.73 76.9744 152.321 79.7497 152.808 85.2894L153.804 85.2018ZM162.013 97.4023C158.932 96.8629 156.92 94.7765 155.648 92.3108C154.371 89.8385 153.871 87.0394 153.805 85.2274L152.806 85.2638C152.876 87.1888 153.401 90.139 154.759 92.7695C156.12 95.4065 158.351 97.7762 161.84 98.3873L162.013 97.4023ZM168.309 90.7012C168.031 93.8829 166.876 95.6124 165.627 96.5185C164.362 97.4364 162.928 97.5626 162.013 97.4023L161.84 98.3873C162.978 98.5866 164.697 98.4292 166.215 97.3279C167.749 96.2148 169.008 94.1896 169.306 90.7885L168.309 90.7012ZM171.704 91.9217C171.395 91.1053 171.092 90.5189 170.792 90.1207C170.497 89.7309 170.152 89.4531 169.746 89.4044C169.317 89.3532 168.988 89.573 168.778 89.8034C168.57 90.032 168.426 90.3222 168.336 90.5787L169.279 90.9111C169.343 90.7303 169.429 90.5735 169.517 90.4769C169.56 90.4305 169.591 90.41 169.608 90.402C169.621 90.396 169.624 90.397 169.627 90.3973C169.639 90.3988 169.768 90.4245 169.994 90.7234C170.213 91.0139 170.476 91.5014 170.769 92.2756L171.704 91.9217ZM171.167 103.974C172.689 102.391 173.042 99.9944 172.929 97.7592C172.815 95.5039 172.22 93.2853 171.704 91.9217L170.769 92.2756C171.256 93.5632 171.823 95.6787 171.931 97.8098C172.039 99.961 171.676 102.002 170.446 103.28L171.167 103.974ZM166.232 103.085C166.638 104.156 167.643 104.485 168.539 104.522C169.439 104.56 170.385 104.321 170.983 104.095L170.629 103.159C170.11 103.356 169.304 103.553 168.58 103.523C167.853 103.493 167.364 103.25 167.167 102.731L166.232 103.085ZM163.441 103.349C163.597 102.906 163.801 102.686 163.989 102.574C164.178 102.461 164.413 102.423 164.696 102.461C165.285 102.539 165.945 102.928 166.379 103.291L167.021 102.524C166.519 102.105 165.684 101.583 164.827 101.469C164.386 101.411 163.91 101.457 163.477 101.715C163.042 101.974 162.712 102.41 162.498 103.017L163.441 103.349ZM165.805 112.04C163.833 110.645 163.041 108.921 162.832 107.335C162.621 105.73 163.008 104.252 163.42 103.4L162.519 102.965C162.035 103.968 161.601 105.642 161.841 107.465C162.083 109.308 163.013 111.289 165.228 112.856L165.805 112.04ZM172.697 111.483C169.843 113.413 166.861 112.624 165.76 112.011L165.273 112.885C166.602 113.625 170.005 114.511 173.258 112.312L172.697 111.483ZM178.047 96.3035C179.484 101.092 178.867 104.597 177.566 107.031C176.258 109.48 174.234 110.888 172.801 111.43L173.155 112.365C174.796 111.744 177.017 110.182 178.448 107.502C179.888 104.807 180.508 101.025 179.004 96.016L178.047 96.3035ZM171.286 78.4415L178.058 96.3367L178.993 95.9828L172.221 78.0876L171.286 78.4415ZM167.693 74.6155C167.854 74.4697 167.994 74.4039 168.112 74.3785C168.229 74.3532 168.355 74.3611 168.498 74.4102C168.803 74.5144 169.156 74.7955 169.531 75.2454C170.271 76.1351 170.919 77.4707 171.286 78.4415L172.221 78.0876C171.836 77.07 171.141 75.6176 170.3 74.6058C169.883 74.1048 169.385 73.6567 168.822 73.4641C168.532 73.3647 168.22 73.3322 167.901 73.401C167.583 73.4696 167.288 73.6323 167.021 73.8757L167.693 74.6155ZM167.19 79.9916C166.3 77.6393 166.263 76.2826 166.48 75.5551C166.681 74.8808 167.094 74.7418 167.35 74.7456L167.364 73.7457C166.656 73.7354 165.849 74.1718 165.522 75.2696C165.211 76.314 165.339 77.9257 166.255 80.3455L167.19 79.9916ZM158.419 86.1183L162.192 84.6904L161.838 83.7551L158.065 85.1831L158.419 86.1183ZM160.59 90.4446L158.709 85.4737L157.774 85.8277L159.655 90.7985L160.59 90.4446ZM167.493 87.2981L159.946 90.154L160.3 91.0892L167.847 88.2334L167.493 87.2981ZM165.321 82.9718L167.202 87.9427L168.137 87.5888L166.256 82.6179L165.321 82.9718ZM162.192 84.6904L165.966 83.2625L165.612 82.3272L161.838 83.7551L162.192 84.6904Z" fill="#A25956"/>
</svg>
