<svg width="448" height="174" viewBox="0 0 448 174" fill="none" xmlns="http://www.w3.org/2000/svg">
<path d="M8.46271 69.6325C17.1946 60.6581 26.6541 67.308 30.2923 71.7548C37.5689 68.1166 44.0369 68.0154 46.3613 68.4196C47.3315 53.624 57.4782 50.9357 62.4303 51.4411C70.9196 52.4113 71.0207 63.1644 70.0101 68.4196C78.4994 72.3005 80.0153 82.9727 79.7121 87.8238C79.4696 94.1301 73.7494 99.1428 70.9196 100.861C70.192 103.044 73.042 102.781 74.5579 102.377C75.5 102 82.8451 95.1003 85.7759 93.2812C79.227 79.4557 77.5898 64.0739 77.5898 58.1112C79.0451 23.9115 107.909 11.319 122.159 9.2978C154.175 -1.61701 198.158 -0.707441 216.147 1.11169C250.104 2.32445 273.551 12.5318 281.03 17.4839C292.187 10.4499 306.902 7.47867 312.865 6.87229C368.894 -3.07231 396.04 5.55847 402.609 11.1169C437.051 21.0615 446.874 37.0902 447.481 43.8614C449.421 64.4782 445.459 73.4729 443.236 75.3931C443.236 84.61 433.332 110.967 428.38 122.994C425.954 128.087 425.55 129.967 425.651 130.27C424.923 134.879 421.912 138.861 420.497 140.276C419.284 141.488 418.374 142.6 418.071 143.004C414.19 149.796 407.156 147.047 404.125 144.823C387.874 134.151 371.481 130.675 365.316 130.27C344.214 129.785 309.226 124.409 294.37 121.781C286.123 120.811 272.743 120.568 267.083 120.568C259.564 120.811 240.908 121.478 232.519 121.781C171.397 120.811 130.648 134.515 117.914 141.488C109.91 144.884 104.877 139.265 103.361 136.031L92.4461 112.079C84.4419 113.777 84.6642 121.478 85.7759 125.116C94.7503 131.422 98.6109 140.68 99.4194 144.52C100.632 154.465 93.2546 159.579 89.4142 160.892C81.8951 163.56 75.1643 157.557 72.7388 154.222C68.6154 150.584 65.3612 150.887 64.2495 151.494C62.5516 151.979 61.3186 157.557 60.9144 160.286C58.974 169.503 54.4464 172.818 52.4251 173.323C37.1443 175.991 34.3348 150.786 34.8401 137.85C21.2572 139.79 12.404 137.446 9.67522 136.031C-1.7247 130.695 -0.734277 121.276 1.18592 117.233C3.61143 113.352 8.66459 114.606 10.888 115.717C13.556 119.113 20.0847 118.749 23.0155 118.143C30.7772 116.687 31.9091 113.09 31.5048 111.473C13.556 109.29 15.3348 92.978 18.4677 85.0951C13.3741 85.3376 10.0796 82.7706 9.06909 81.4568C4.94572 77.0909 6.94676 71.7548 8.46271 69.6325Z" fill="#765546"/>
<path d="M48.8037 126.686C45.6505 116.014 51.5324 111.931 54.8675 111.224C65.5399 107.343 68.0056 117.49 67.9043 123.048C66.9341 131.537 61.6384 133.862 59.1118 133.963C52.3204 135.418 49.41 129.718 48.8037 126.686Z" fill="#E9CFAF"/>
<path fill-rule="evenodd" clip-rule="evenodd" d="M40.2028 92.2897C40.506 93.1992 41.5374 94.9139 43.8409 94.7152C45.0512 94.6107 46.0853 92.7916 46.0853 90.6693C46.0853 88.8501 44.9326 86.1046 42.0219 86.8323C41.1123 87.0345 39.4752 88.409 40.2028 92.2897ZM43.0921 89.7884C42.5868 89.6874 41.6368 89.9097 41.8793 91.6075C41.9803 92.2139 42.3643 93.4267 43.0921 93.4267C43.5974 93.5278 44.6082 93.3054 44.6082 91.6076C44.507 90.9001 44.0622 89.5459 43.0921 89.7884Z" fill="#E9CFAF"/>
<path d="M52.2578 94.6435C54.1982 94.6435 53.2684 97.069 52.561 98.2818C52.561 99.252 54.5822 100.303 55.5928 100.707C55.8354 100.95 56.9067 99.5956 57.412 98.8882C58.1396 97.6754 58.9279 97.5743 59.2311 97.6754C60.6864 97.9179 60.2417 99.1913 59.8375 99.7977C57.6545 102.466 56.0982 103.133 55.5928 103.133C54.6226 103.618 52.3588 101.718 51.3482 100.707C49.6503 103.133 47.4067 104.952 46.4972 105.558C45.0419 106.529 43.8695 105.963 43.4653 105.558C42.4951 104.588 43.4653 103.941 44.0717 103.739C46.7398 102.769 48.2153 100.505 48.6195 99.4946C47.1642 99.4946 47.0025 98.2818 47.1036 97.6754C48.0738 94.7648 50.944 94.4414 52.2578 94.6435Z" fill="#E9CFAF"/>
<path fill-rule="evenodd" clip-rule="evenodd" d="M51.7233 89.8638C52.0265 90.7733 53.0579 92.488 55.3615 92.2893C56.5717 92.1848 57.6058 90.3657 57.6058 88.2434C57.6058 86.4242 56.4531 83.6787 53.5424 84.4064C52.6329 84.6086 50.9957 85.9831 51.7233 89.8638ZM54.6126 87.3627C54.1073 87.2617 53.1573 87.484 53.3998 89.1819C53.5008 89.7882 53.8848 91.001 54.6126 91.001C55.1179 91.1021 56.1287 90.8797 56.1287 89.1819C56.0275 88.4744 55.5827 87.1202 54.6126 87.3627Z" fill="#E9CFAF"/>
<path d="M88.7949 91.6629C87.0971 91.4204 84.045 76.8067 82.7312 69.5301C80.7907 62.0111 90.0077 54.876 94.8587 52.2483C107.229 42.3037 137.002 36.9878 150.342 35.5729C179.206 30.7219 202.39 32.7431 210.374 34.3601C229.05 36.7857 249.485 47.4983 257.368 52.5515C260.279 54.7345 266.868 52.6526 269.799 51.3388C298.905 41.6367 349.234 43.8601 370.761 46.1845C398.654 50.5505 426.245 64.7802 436.553 71.3493C440.191 73.1684 437.159 78.6258 437.463 78.929C433.097 93.9672 430.388 101.971 429.58 104.094C425.456 115.251 422.606 124.104 421.697 127.136C419.878 135.929 414.723 140.173 413.814 141.386C412.601 144.782 407.043 142.801 404.415 141.386C391.075 133.382 382.686 130.168 380.16 129.562C365.849 126.408 349.133 125.014 342.564 124.711C326.556 123.255 316.086 121.679 312.852 121.072C290.052 116.464 274.65 116.322 269.799 116.828C261.795 117.313 241.4 118.04 232.203 118.344C217.408 117.373 195.922 119.556 187.028 120.769C182.905 121.497 171.363 122.891 166.108 123.498C140.398 127.136 121.843 135.322 115.779 138.96C111.17 140.658 107.997 137.242 106.986 135.322C105.046 133.139 98.497 117.636 95.4651 110.157C103.954 105.064 104.055 99.5459 103.045 97.4235C101.104 91.3597 92.7364 91.0566 88.7949 91.6629Z" fill="#E9CFAF"/>
<path d="M118.082 71.3181C118.325 73.9862 121.62 77.6851 123.237 79.201C123.722 80.4138 124.854 73.0362 125.359 69.1957C125.844 66.0425 127.38 65.4564 128.088 65.5575C130.028 65.0725 130.311 67.7809 130.21 69.1957C130.21 72.1063 128.391 79.7063 127.481 83.1424C126.754 86.7807 123.742 93.1477 122.327 95.8764C120.872 98.5444 118.891 97.5945 118.082 96.7859C116.87 95.0881 120.003 89.0041 121.721 86.1743C122.206 85.2041 121.923 84.5573 121.721 84.3552C115.657 79.7467 113.332 73.5415 112.928 71.0149C112.201 66.1639 114.444 65.3554 115.657 65.5575C118.082 65.2543 118.082 70.7117 118.082 71.3181Z" fill="#765546"/>
<path d="M156.891 85.5679C154.223 81.9297 154.162 75.1585 154.465 72.2276C154.95 70.2872 156.486 69.8021 157.194 69.8021C159.134 69.5596 159.417 71.3181 159.316 72.2276C158.831 74.4106 158.912 77.584 159.013 78.8978C159.983 82.7786 161.843 84.5573 162.651 84.9616C164.834 86.1743 166.391 84.052 166.896 82.8392C167.624 81.3839 167.603 74.9563 167.502 71.9244C167.26 69.2564 169.22 68.5894 170.231 68.5894C172.171 68.5894 172.657 70.4085 172.657 71.3181C172.353 76.1691 172.657 79.5042 172.657 80.1105C172.899 81.5659 174.779 83.5467 175.688 84.3552C176.659 86.5382 175.082 87.6903 174.172 87.9935C172.475 88.7211 171.242 87.0839 170.837 86.1743C170.595 85.6892 170.332 85.9722 170.231 86.1743C169.261 89.0849 165.784 90.0147 164.167 90.1158C161.499 90.3583 158.205 87.185 156.891 85.5679Z" fill="#765546"/>
<path d="M181.753 84.9617C180.783 79.6255 179.529 76.0681 179.024 74.9564C177.811 72.5309 178.519 71.3181 179.024 71.0149C181.692 69.0745 182.359 70.2064 182.359 71.0149C182.359 71.7426 182.763 71.7224 182.966 71.6213C187.332 67.498 192.263 68.4884 194.184 69.499C197.822 71.682 200.551 79.7064 201.46 83.4457C201.763 85.0627 201.885 88.3574 199.944 88.5999C198.004 88.8425 197.114 87.2861 196.912 86.4776L196.306 83.4457C194.123 74.9564 191.556 73.2383 190.545 73.4405C185.391 73.4405 185.997 76.4724 185.694 77.6851C185.452 78.6553 186.2 82.9404 186.604 84.9617C187.513 88.9031 185.391 88.5999 185.088 88.9031C182.905 89.6308 181.955 86.5787 181.753 84.9617Z" fill="#765546"/>
<path d="M235.72 77.6851C234.993 72.8341 239.055 69.6001 241.178 68.5894C248.697 66.8916 251.991 70.3075 252.699 72.2277C252.699 73.9256 251.486 74.5521 250.88 74.6532C250.637 74.8958 248.757 73.9458 247.848 73.4405C243.239 71.7426 240.874 73.7436 240.571 75.2596C239.116 76.9574 241.784 78.5947 243.3 79.201C249.43 81.1415 251.918 84.6585 252.396 86.1744C254.215 91.6318 250.88 94.3605 250.88 94.6637C247.969 97.5743 241.177 97.0892 238.145 96.4828C233.052 94.785 232.587 92.1371 232.991 91.0254C233.961 88.5999 235.619 89.0042 236.326 89.5095C238.752 91.6924 241.986 92.2382 243.3 92.2382C247.423 92.2382 248.252 90.419 248.151 89.5095C248.151 86.8414 244.512 84.7595 242.693 84.0521C237.357 82.8393 235.821 79.3021 235.72 77.6851Z" fill="#765546"/>
<path d="M267.251 81.3232C269.07 81.9296 270.586 82.2328 271.496 82.2328C272.951 82.7179 275.134 82.0307 276.044 81.6264C278.469 81.3839 278.874 82.9403 278.772 83.7488C278.772 84.9615 277.56 85.8711 276.953 86.1743C274.043 87.387 268.868 86.6796 266.645 86.1743C263.734 85.4466 263.411 83.8498 263.613 83.1424C264.098 80.9594 266.241 81.0201 267.251 81.3232Z" fill="#765546"/>
<path fill-rule="evenodd" clip-rule="evenodd" d="M288.636 73.3946C288.838 80.1659 289.97 94.3147 292.88 96.7402C293.386 97.3466 295.306 98.0136 298.944 95.8306C301.471 94.719 306.403 91.3434 305.918 86.735C305.918 84.5116 304.765 79.7616 300.157 78.5489C298.843 78.2457 295.73 78.0031 293.79 79.4584C293.487 78.0435 292.941 74.6074 293.184 72.1819C293.285 71.2723 293.062 69.5138 291.364 69.7564C290.455 69.7564 288.636 70.484 288.636 73.3946ZM294.701 85.1628C294.701 86.5777 294.943 89.8319 295.914 91.5298C296.116 91.8329 296.884 92.1361 298.339 90.9234C299.855 90.0138 302.523 87.5277 301.068 84.8596C300.663 83.849 298.945 82.1915 295.307 83.6468C295.091 83.7479 294.666 84.1926 294.701 85.1628Z" fill="#765546"/>
<path d="M335.165 83.7488C335.165 76.9573 337.388 75.0574 338.5 74.9563C342.138 74.9563 340.622 78.5946 340.622 78.8978C340.016 81.9297 340.319 83.1424 340.319 83.4456C341.289 82.7179 343.755 81.3233 344.867 80.7169C348.02 78.5339 349.819 79.2009 350.324 79.8073C351.537 81.2626 351.032 82.2328 350.628 82.536C343.351 86.6594 342.138 88.0945 342.442 88.2966C342.199 88.7817 348.404 93.5519 351.537 95.8764C352.507 96.8466 351.942 98.3019 351.537 98.9082C349.354 101.334 344.968 97.4934 343.048 95.27C341.593 93.087 341.027 93.1477 340.926 93.4508C340.441 95.8764 341.936 98.0997 342.745 98.9082C342.502 100.121 342.037 100.828 341.835 101.031C341.108 102.001 339.713 101.637 339.106 101.334C335.953 99.6359 335.165 88.903 335.165 83.7488Z" fill="#765546"/>
<path d="M375.187 88.5997C374.702 84.2338 376.602 82.738 377.613 82.5359C379.796 82.0508 380.139 83.7487 380.038 84.6582C379.795 84.9008 379.735 86.9827 379.735 87.9933C383.373 84.1125 387.315 85.7699 388.83 87.0838C390.286 88.054 390.043 89.7114 389.74 90.4188C389.255 91.6316 387.719 91.3284 387.011 91.0252C386.041 90.055 384.788 90.0146 384.283 90.1156C383.07 90.4188 381.857 92.5412 381.857 92.8443C381.857 93.572 383.07 97.3922 383.676 99.2113C383.919 99.939 383.373 100.929 383.07 101.334C381.615 103.274 380.038 102.344 379.432 101.637C378.219 100.424 376.097 92.4401 375.187 88.5997Z" fill="#765546"/>
<path d="M400.655 93.4507C402.11 95.3911 402.878 93.2486 403.08 91.9348C403.323 90.4795 403.99 88.2965 404.293 87.387C405.02 85.9316 406.415 85.3657 407.021 85.2646C408.719 84.7795 408.942 87.8923 408.84 89.5093C406.658 99.4539 400.857 107.397 398.229 110.126C396.046 112.552 394.085 112.552 393.378 112.248C391.195 110.066 392.266 108.307 393.075 107.701C397.198 105.275 399.037 101.03 399.442 99.2113C396.774 96.7858 394.49 92.5412 393.681 90.722C392.954 86.8412 394.793 85.4668 395.804 85.2646C397.259 84.537 398.027 87.3869 398.229 88.9029C398.472 89.8731 399.947 92.339 400.655 93.4507Z" fill="#765546"/>
<path fill-rule="evenodd" clip-rule="evenodd" d="M140.983 66.0952C138.052 66.3984 132.19 69.2484 132.19 78.2228C132.696 81.9621 135.586 89.2589 143.105 88.5312C145.733 88.3291 151.049 86.0451 151.291 78.526C151.291 76.2015 150.624 71.0069 147.956 68.8239C147.148 67.9144 144.621 66.0952 140.983 66.0952ZM141.242 70.9784C139.423 71.4837 136.088 73.7677 137.301 78.8613C137.907 80.7815 139.909 84.5006 143.062 84.0155C144.274 83.8134 146.7 82.3783 146.7 78.2549C146.801 75.6273 145.851 70.4933 141.242 70.9784Z" fill="#765546"/>
<path fill-rule="evenodd" clip-rule="evenodd" d="M203.752 74.3502C204.237 66.346 209.209 65.1534 211.635 65.5577C216.486 65.5577 219.518 75.4619 220.427 80.414C222.853 77.9884 225.48 77.5842 226.491 77.6852C228.431 77.9278 228.714 79.6054 228.613 80.414C228.613 81.8693 225.177 83.2437 223.459 83.749C222.004 83.9916 221.842 85.0629 221.943 85.5682C224.369 91.8745 224.167 100.323 223.762 103.76C223.277 106.913 219.518 107.903 217.699 108.004C209.209 107.519 208.3 99.3127 208.906 95.2702C209.634 89.2064 213.252 85.6692 214.97 84.6586C216.183 84.1735 216.284 83.2437 216.183 82.8395C215.94 79.6863 215.071 77.8874 214.667 77.3821C212.241 80.2927 209.614 80.6161 208.603 80.414C204.48 80.414 203.651 76.3714 203.752 74.3502ZM208.075 74.3102C208.56 71.1571 210.097 70.3688 210.804 70.3688C211.774 70.1262 211.815 71.4805 211.714 72.1879C211.714 73.4007 210.299 74.7145 209.591 75.2198C207.893 76.4325 207.873 75.1187 208.075 74.3102ZM218.052 88.6322C215.525 90.3503 211.321 95.3024 214.717 101.366C215.222 102.074 216.536 103.488 217.749 103.488C218.254 103.59 219.265 103.549 219.265 102.579C219.366 97.4247 219.265 87.4195 218.052 88.6322Z" fill="#765546"/>
<path fill-rule="evenodd" clip-rule="evenodd" d="M316.662 79.39C313.731 82.2197 308.537 89.2133 311.205 94.5494C312.519 96.6718 316.48 99.2185 321.816 92.4271C323.029 94.3473 326 98.0058 328.183 97.2781C328.992 97.1771 330.609 96.4898 330.609 94.5494C330.508 94.2462 330.003 93.5186 328.79 93.0335C327.678 92.225 325.394 90.1229 325.152 88.1825C324.848 87.0708 324.303 84.4836 324.545 83.0282C323.13 81.007 319.573 77.4496 316.662 79.39ZM318.692 83.7707C316.57 86.3984 312.992 91.6537 315.66 91.6537C316.166 91.6537 317.601 90.8654 319.299 87.7122V87.7122C319.299 87.4089 319.299 82.9985 318.692 83.7707Z" fill="#765546"/>
<path fill-rule="evenodd" clip-rule="evenodd" d="M362.918 83.0737C359.785 83.1748 353.52 85.1354 353.52 92.1694C353.621 94.2917 355.157 98.9002 360.493 100.356C363.222 100.962 369.467 101.568 372.62 99.1428C373.227 98.6374 374.076 97.263 372.62 95.8077C372.216 95.3024 370.801 94.7162 368.376 96.4141C366.961 96.8183 363.525 97.2023 361.099 95.5045C360.998 95.3024 361.039 94.8981 362.009 94.8981C363.929 94.5949 367.769 92.7758 367.769 87.9248C367.769 86.4088 366.799 83.3163 362.918 83.0737ZM358.989 90.5921C358.887 89.3793 359.413 87.1963 362.324 88.1665C362.728 88.3687 363.294 88.9548 362.323 89.6825C361.717 90.0867 360.201 90.8346 358.989 90.5921Z" fill="#765546"/>
</svg>
