<svg width="469" height="295" viewBox="0 0 469 295" fill="none" xmlns="http://www.w3.org/2000/svg">
<path d="M28.8921 114.892C37.2991 111.432 45.2926 117.299 48.2386 120.666C59.7112 119.876 66.5384 127.005 68.518 130.668C77.9936 130.686 84.4537 136.594 86.4992 139.545C94.3627 139.083 101.494 145.191 104.077 148.303C113.972 148.095 125.995 158.208 130.77 163.291C141.343 164.339 149.982 169.024 152.98 171.236L369.402 252.06L385.795 247.734C385.057 246.716 384.304 245.9 383.694 245.352L210.254 105.806C197.193 100.152 191.741 91.3559 190.648 87.6645C172.37 85.3705 165.855 76.608 164.882 72.5135C154.502 70.8204 147.627 64.1453 145.487 61.0194C133.076 59.0714 127.895 51.8191 126.856 48.4365C111.124 45.8487 106.079 38.1396 105.523 34.6085C91.0474 31.3421 86.6658 23.2748 86.2845 19.6495C84.3836 20.1357 80.3309 16.556 78.5421 14.7054C74.4363 6.10589 83.5165 9.31303 88.5698 11.9915C93.4712 11.2775 113.094 22.0555 136.211 36.2075C161.576 51.7349 191.149 71.324 210.102 84.252L416.263 256.827C423.911 262.972 425.398 267.892 425.186 269.585C425.479 272.131 420.588 275.675 418.106 277.129C418.371 282.124 413.709 282.547 411.345 282.134L149.54 188.645C138.143 185.244 121.974 178.224 106.169 170.711C93.4661 164.673 80.9979 158.316 71.4313 153.265C68.3181 151.622 65.5122 150.116 63.1055 148.805C52.8212 146.79 44.0094 139.742 40.889 136.469C30.8934 133.486 25.35 126.272 23.8278 123.038C18.3125 120.339 16.6606 116.656 16.5241 115.152C16.3552 109.834 24.699 112.763 28.8921 114.892Z" fill="url(#paint0_linear_912_2759)"/>
<path d="M418.106 277.129C418.371 282.124 413.709 282.547 411.345 282.134L149.54 188.645C138.143 185.244 121.974 178.224 106.169 170.711M418.106 277.129C420.588 275.675 425.479 272.131 425.186 269.585M418.106 277.129C414.021 282.582 400.277 271.662 393.916 265.521C389.272 263.433 388.376 260.063 388.508 258.64M425.186 269.585C425.398 267.892 423.911 262.972 416.263 256.827L210.102 84.252C191.149 71.324 161.576 51.7349 136.211 36.2075M425.186 269.585L200.273 84.8303C161.564 62.7445 136.691 42.4461 129.092 35.0577C127.831 32.2233 133.313 34.6432 136.211 36.2075M388.508 258.64L375.376 259.988L165.565 182.014C159.695 180.263 146.444 176.928 134.138 175.538M388.508 258.64C389.525 254.382 387.709 250.375 385.795 247.734M106.169 170.711L127.282 174.98C129.495 175.079 131.8 175.273 134.138 175.538M106.169 170.711C93.4661 164.673 80.9979 158.316 71.4313 153.265M71.4313 153.265C68.3181 151.622 65.5122 150.116 63.1055 148.805C52.8212 146.79 44.0094 139.742 40.889 136.469C30.8934 133.486 25.35 126.272 23.8278 123.038C18.3125 120.339 16.6606 116.656 16.5241 115.152C16.3552 109.834 24.699 112.763 28.8921 114.892C37.2991 111.432 45.2927 117.299 48.2385 120.666C59.7112 119.876 66.5384 127.005 68.518 130.668C77.9936 130.686 84.4537 136.594 86.4992 139.545C94.3627 139.083 101.494 145.191 104.077 148.303C113.972 148.095 125.995 158.208 130.77 163.291C141.343 164.339 149.982 169.024 152.98 171.236L369.402 252.06L385.795 247.734M71.4313 153.265C66.9074 149.794 59.1973 143.074 64.5488 143.969C82.2905 151.197 121.047 167.631 134.138 175.538M136.211 36.2075C113.094 22.0555 93.4712 11.2775 88.5698 11.9915C83.5165 9.31303 74.4363 6.10589 78.5421 14.7054C80.3309 16.556 84.3836 20.1357 86.2845 19.6495C86.6658 23.2748 91.0474 31.3421 105.524 34.6085C106.079 38.1396 111.124 45.8487 126.856 48.4365C127.895 51.8191 133.076 59.0714 145.487 61.0194C147.627 64.1453 154.502 70.8204 164.882 72.5135C165.855 76.608 172.37 85.3705 190.648 87.6645C191.741 91.3559 197.193 100.152 210.254 105.806L383.694 245.352C384.304 245.9 385.057 246.716 385.795 247.734" stroke="black"/>
<path d="M389.555 285.283L382.768 272.723L385.993 273.685L390.114 281.938C390.827 284.258 392.023 283.386 392.533 282.66L408.857 260.317C410.656 256.64 410.112 255.131 409.614 254.837L404.043 247.029C402.946 245.999 404.336 245.068 405.168 244.731C405.875 243.537 409.903 249.948 411.828 253.302C413.445 257.297 412.133 260.124 411.275 261.038L393.02 285.439C391.702 287.504 390.161 286.195 389.555 285.283Z" fill="#E0DFE4" stroke="black"/>
<path d="M404.586 270.219L409.452 264.209C411.228 266.494 409.955 268.895 409.097 269.809C407.649 271.133 405.486 270.634 404.586 270.219Z" fill="#7E7F84" stroke="black"/>
<defs>
<linearGradient id="paint0_linear_912_2759" x1="31.1302" y1="117.29" x2="461.301" y2="255.649" gradientUnits="userSpaceOnUse">
<stop stop-color="#AEACB4"/>
<stop offset="1" stop-color="#4B4B4E"/>
</linearGradient>
</defs>
</svg>
