<svg width="445" height="248" viewBox="0 0 445 248" fill="none" xmlns="http://www.w3.org/2000/svg">
<path fill-rule="evenodd" clip-rule="evenodd" d="M34.1095 4.87206C33.5816 7.58086 36.004 15.2721 49.9162 24.3665C59.9314 33.3572 76.9333 47.7709 95.3839 61.7863C113.823 75.7925 133.708 89.4011 149.513 96.8021L368.02 217.556L400.78 234.518C403.599 236.002 409.377 236.823 409.938 228.232C413.604 226.971 420.376 222.962 418.142 217.019C417.444 214.322 414.997 208.546 410.791 207.015L190.927 71.1099L164.823 54.7382C147.203 45.9433 121.249 33.5999 97.0324 23.2787C96.8707 23.2049 96.6952 23.1299 96.509 23.0558C66.5932 10.3286 39.4449 0.755459 34.1095 4.87206ZM125.335 55.0022L118.385 55.2207C124.55 58.8386 137.437 67.5601 139.671 73.5033C147.54 76.2145 163.52 82.733 164.489 87.1166L359.207 196.464C360.997 197.42 365.289 199.135 368.143 198.342L175.964 80.7583C169.836 79.1384 156.837 74.1629 153.868 67.2192C145.618 66.8123 128.363 63.7992 125.335 55.0022Z" fill="url(#paint0_linear_912_2769)"/>
<path d="M49.9162 24.3665L50.2502 23.9944L50.2218 23.9689L50.1898 23.948L49.9162 24.3665ZM34.1095 4.87206L33.8041 4.4762L33.6548 4.59137L33.6188 4.77642L34.1095 4.87206ZM95.3839 61.7863L95.6863 61.3881L95.3839 61.7863ZM149.513 96.8021L149.755 96.3645L149.74 96.3564L149.725 96.3493L149.513 96.8021ZM368.02 217.556L367.778 217.994L367.79 218L368.02 217.556ZM400.78 234.518L401.013 234.076L401.01 234.074L400.78 234.518ZM409.938 228.232L409.776 227.76L409.461 227.868L409.44 228.2L409.938 228.232ZM418.142 217.019L417.658 217.144L417.665 217.17L417.674 217.195L418.142 217.019ZM410.791 207.015L410.528 207.44L410.571 207.467L410.62 207.484L410.791 207.015ZM190.927 71.1099L190.662 71.5335L190.664 71.5352L190.927 71.1099ZM164.823 54.7382L165.089 54.3146L165.068 54.3017L165.047 54.2908L164.823 54.7382ZM97.0324 23.2787L96.8248 23.7337L96.8363 23.7387L97.0324 23.2787ZM96.509 23.0558L96.3132 23.5161L96.3242 23.5204L96.509 23.0558ZM118.385 55.2207L118.369 54.721L116.638 54.7754L118.132 55.652L118.385 55.2207ZM125.335 55.0022L125.808 54.8394L125.688 54.4908L125.32 54.5024L125.335 55.0022ZM139.671 73.5033L139.203 73.6792L139.286 73.8994L139.508 73.976L139.671 73.5033ZM164.489 87.1166L164.001 87.2246L164.049 87.443L164.244 87.5526L164.489 87.1166ZM359.207 196.464L358.962 196.9L358.972 196.905L359.207 196.464ZM368.143 198.342L368.277 198.824L369.385 198.515L368.404 197.915L368.143 198.342ZM175.964 80.7583L176.225 80.3318L176.163 80.2936L176.092 80.2749L175.964 80.7583ZM153.868 67.2192L154.327 67.0227L154.204 66.7353L153.892 66.7199L153.868 67.2192ZM43.2634 13.7003L43.7543 13.6052L43.6873 13.2593L43.339 13.206L43.2634 13.7003ZM62.9333 26.356L63.3721 26.1163L63.233 25.8618L62.943 25.8561L62.9333 26.356ZM85.9132 37.4683L86.3358 37.2011L86.1724 36.9427L85.8679 36.9704L85.9132 37.4683ZM104.739 46.1523L105.17 45.899L105.005 45.6184L104.681 45.6556L104.739 46.1523ZM153.861 67.2378L154.308 67.0129L154.18 66.7598L153.898 66.7391L153.861 67.2378ZM380.524 213.404L381.015 213.309L381.011 213.29L381.006 213.27L380.524 213.404ZM397.62 225.581L397.831 225.128L397.825 225.125L397.62 225.581ZM112.233 70.8661L111.851 71.1892L111.937 71.2905L112.062 71.3359L112.233 70.8661ZM134.514 82.64L134.181 83.0128L134.195 83.0257L134.211 83.0375L134.514 82.64ZM152.31 89.1173L152.225 89.6099L152.236 89.6119L152.247 89.6133L152.31 89.1173ZM201.101 112.372L201.362 111.946L201.362 111.946L201.101 112.372ZM364.752 202.625L365.044 202.219L365.017 202.2L364.988 202.184L364.752 202.625ZM371.225 199.943L370.964 200.369L370.993 200.387L371.025 200.401L371.225 199.943ZM118.02 54.9657L118.11 54.4739L118.11 54.4739L118.02 54.9657ZM139.665 73.5218L139.205 73.7184L139.29 73.9169L139.493 73.9913L139.665 73.5218ZM368.601 198.341L368.862 197.915L368.862 197.915L368.601 198.341ZM76.3607 39.8029L76.3674 40.3029L76.4528 40.3018L76.533 40.2723L76.3607 39.8029ZM85.0285 44.933L85.324 44.5297L85.322 44.5282L85.0285 44.933ZM96.509 23.0558L96.705 22.5957L96.6939 22.5913L96.509 23.0558ZM90.7712 24.1211L90.2739 24.0691L90.2643 24.1611L90.2883 24.2504L90.7712 24.1211ZM162.615 60.8051L162.698 60.312L162.36 61.2353L162.615 60.8051ZM297.107 141.819L296.829 142.235L296.836 142.239L296.843 142.244L297.107 141.819ZM50.1898 23.948C43.2743 19.4273 39.2453 15.2751 37.0131 11.9462C34.768 8.59799 34.3727 6.13555 34.6003 4.9677L33.6188 4.77642C33.3185 6.31737 33.8704 9.05493 36.1825 12.5031C38.5076 15.9706 42.6459 20.2112 49.6426 24.785L50.1898 23.948ZM95.6863 61.3881C77.2476 47.3818 60.2562 32.977 50.2502 23.9944L49.5822 24.7385C59.6065 33.7375 76.6189 48.16 95.0815 62.1844L95.6863 61.3881ZM149.725 96.3493C133.971 88.972 114.12 75.3909 95.6863 61.3881L95.0815 62.1844C113.525 76.1942 133.445 89.8302 149.301 97.2549L149.725 96.3493ZM368.262 217.118L149.755 96.3645L149.271 97.2397L367.778 217.994L368.262 217.118ZM401.01 234.074L368.25 217.112L367.79 218L400.55 234.962L401.01 234.074ZM409.44 228.2C409.166 232.385 407.645 234.094 406.034 234.683C404.356 235.297 402.363 234.786 401.013 234.076L400.547 234.96C402.016 235.734 404.322 236.375 406.378 235.623C408.501 234.846 410.149 232.67 410.437 228.265L409.44 228.2ZM417.674 217.195C418.7 219.923 417.684 222.213 415.896 224.031C414.095 225.862 411.562 227.145 409.776 227.76L410.101 228.705C411.981 228.058 414.666 226.707 416.609 224.732C418.565 222.744 419.819 220.058 418.61 216.843L417.674 217.195ZM410.62 207.484C412.569 208.194 414.157 209.91 415.357 211.843C416.552 213.768 417.32 215.838 417.658 217.144L418.626 216.894C418.266 215.503 417.462 213.337 416.207 211.316C414.957 209.304 413.218 207.366 410.962 206.545L410.62 207.484ZM190.664 71.5352L410.528 207.44L411.053 206.589L191.19 70.6846L190.664 71.5352ZM164.558 55.1618L190.662 71.5335L191.193 70.6863L165.089 54.3146L164.558 55.1618ZM96.8363 23.7387C121.041 34.0549 146.986 46.3938 164.6 55.1855L165.047 54.2908C147.42 45.4928 121.457 33.1449 97.2284 22.8187L96.8363 23.7387ZM96.3242 23.5204C96.5029 23.5915 96.6709 23.6633 96.8249 23.7336L97.2399 22.8238C97.0705 22.7465 96.8874 22.6683 96.6939 22.5913L96.3242 23.5204ZM34.415 5.26793C34.9706 4.83925 35.8652 4.55186 37.1364 4.4478C38.3978 4.34454 39.9732 4.4261 41.8353 4.68216C45.5584 5.19414 50.3569 6.39341 55.9436 8.1251C67.1127 11.5872 81.3604 17.1545 96.3133 23.5159L96.7048 22.5958C81.7418 16.23 67.4575 10.6471 56.2396 7.16993C50.6329 5.43201 45.7742 4.2144 41.9715 3.69148C40.0707 3.43009 38.4161 3.3397 37.0548 3.45113C35.7032 3.56177 34.5823 3.87572 33.8041 4.4762L34.415 5.26793ZM118.401 55.7205L125.351 55.5019L125.32 54.5024L118.369 54.721L118.401 55.7205ZM140.139 73.3273C139.545 71.7473 138.266 70.0295 136.633 68.3044C134.992 66.5709 132.959 64.794 130.812 63.0977C126.519 59.705 121.736 56.6074 118.638 54.7895L118.132 55.652C121.199 57.452 125.942 60.524 130.192 63.8823C132.317 65.5615 134.31 67.3055 135.907 68.9918C137.511 70.6866 138.68 72.2877 139.203 73.6792L140.139 73.3273ZM164.977 87.0087C164.829 86.3398 164.41 85.6818 163.838 85.049C163.261 84.4107 162.497 83.7628 161.602 83.1162C159.812 81.8227 157.449 80.4979 154.889 79.2344C149.764 76.7058 143.781 74.3906 139.834 73.0305L139.508 73.976C143.43 75.3272 149.371 77.6269 154.446 80.1312C156.985 81.3842 159.291 82.6804 161.016 83.9267C161.879 84.55 162.583 85.1517 163.096 85.7196C163.614 86.293 163.906 86.7975 164.001 87.2246L164.977 87.0087ZM359.452 196.028L164.734 86.6807L164.244 87.5526L358.963 196.9L359.452 196.028ZM368.009 197.86C366.714 198.22 365.035 198.019 363.407 197.577C361.794 197.138 360.309 196.486 359.443 196.023L358.972 196.905C359.895 197.399 361.451 198.081 363.145 198.542C364.824 198.998 366.718 199.257 368.277 198.824L368.009 197.86ZM175.703 81.1848L367.882 198.768L368.404 197.915L176.225 80.3318L175.703 81.1848ZM153.408 67.4158C154.966 71.059 159.1 74.1071 163.498 76.4274C167.925 78.7627 172.743 80.4241 175.836 81.2417L176.092 80.2749C173.057 79.4727 168.312 77.8363 163.965 75.543C159.589 73.2346 155.739 70.3232 154.327 67.0227L153.408 67.4158ZM124.862 55.1649C125.665 57.4966 127.398 59.4114 129.623 60.9742C131.849 62.5376 134.596 63.7705 137.485 64.7314C143.263 66.6531 149.686 67.5136 153.843 67.7186L153.892 66.7199C149.8 66.518 143.471 65.6684 137.801 63.7825C134.967 62.8397 132.317 61.6444 130.198 60.1559C128.078 58.667 126.519 56.9062 125.808 54.8394L124.862 55.1649ZM33.6105 4.90371C33.7801 7.57702 35.9569 13.0893 43.1879 14.1946L43.339 13.206C36.6851 12.189 34.7562 7.16833 34.6085 4.84041L33.6105 4.90371ZM42.7726 13.7954C43.6124 18.1307 48.8584 26.5825 62.9236 26.856L62.943 25.8561C49.355 25.5919 44.5055 17.483 43.7543 13.6052L42.7726 13.7954ZM62.4945 26.5958C64.8538 30.9136 72.8235 39.1619 85.9586 37.9663L85.8679 36.9704C73.2317 38.1206 65.5948 30.1842 63.3721 26.1163L62.4945 26.5958ZM85.4906 37.7355C87.6854 41.2065 94.597 47.8228 104.796 46.649L104.681 45.6556C94.9924 46.7706 88.4048 40.4732 86.3358 37.2011L85.4906 37.7355ZM124.836 55.1053C125.166 57.0292 127.097 59.7963 131.542 62.262C136.006 64.7385 143.069 66.9502 153.825 67.7365L153.898 66.7391C143.237 65.9599 136.327 63.7731 132.027 61.3875C127.706 58.991 126.079 56.4323 125.822 54.9361L124.836 55.1053ZM153.415 67.4627C155.004 70.6186 161.677 77.5841 175.832 81.2608L176.084 80.2929C162.117 76.6654 155.732 69.8396 154.308 67.0129L153.415 67.4627ZM380.033 213.499C380.136 214.027 380.495 214.706 381.123 215.496C381.76 216.297 382.704 217.249 384.035 218.323C386.698 220.471 390.932 223.126 397.415 226.037L397.825 225.125C391.396 222.238 387.241 219.625 384.663 217.545C383.374 216.505 382.486 215.603 381.905 214.873C381.315 214.131 381.072 213.603 381.015 213.309L380.033 213.499ZM397.409 226.034C398.93 226.743 401.376 227.726 403.783 228.377C404.987 228.703 406.195 228.95 407.281 229.035C408.355 229.118 409.372 229.049 410.15 228.685L409.727 227.779C409.183 228.034 408.374 228.117 407.359 228.038C406.357 227.96 405.215 227.729 404.045 227.412C401.705 226.779 399.314 225.818 397.831 225.128L397.409 226.034ZM112.062 71.3359C114.608 72.2626 118.779 73.9631 123 76.0467C127.23 78.1349 131.469 80.588 134.181 83.0128L134.847 82.2673C132.03 79.7481 127.69 77.2465 123.443 75.15C119.186 73.0488 114.981 71.3342 112.404 70.3962L112.062 71.3359ZM152.247 89.6133C154.433 89.8924 159.531 91.3761 167.633 94.9618C175.72 98.5408 186.767 104.199 200.841 112.799L201.362 111.946C187.258 103.327 176.171 97.647 168.038 94.0474C159.919 90.4545 154.711 88.9198 152.374 88.6214L152.247 89.6133ZM200.841 112.799C229.034 130.026 321.713 180.159 364.516 203.066L364.988 202.184C322.172 179.271 229.525 129.154 201.362 111.946L200.841 112.799ZM371.025 200.401C372.321 200.967 374.875 202.874 377.129 206.627L377.987 206.113C375.651 202.224 372.953 200.151 371.425 199.484L371.025 200.401ZM377.129 206.627C378.236 208.471 379.269 210.756 380.043 213.538L381.006 213.27C380.209 210.402 379.141 208.034 377.987 206.113L377.129 206.627ZM364.46 203.031C365.988 204.13 368.472 205.64 370.971 206.6C372.219 207.08 373.495 207.431 374.669 207.515C375.842 207.599 376.966 207.419 377.852 206.774L377.264 205.966C376.639 206.42 375.783 206.592 374.741 206.518C373.701 206.443 372.528 206.127 371.329 205.666C368.933 204.746 366.525 203.284 365.044 202.219L364.46 203.031ZM104.307 46.4056C106.021 49.321 110.69 54.1355 117.93 55.4576L118.11 54.4739C111.209 53.2137 106.765 48.6144 105.17 45.899L104.307 46.4056ZM117.93 55.4576C118.436 55.55 118.955 55.6253 119.485 55.6817L119.591 54.6873C119.085 54.6336 118.592 54.5618 118.11 54.4739L117.93 55.4576ZM117.779 55.4037C120.749 57.0392 125.394 59.9279 129.663 63.2682C133.953 66.6262 137.775 70.3747 139.205 73.7184L140.125 73.3252C138.585 69.7252 134.574 65.8418 130.279 62.4807C125.961 59.1019 121.269 56.1844 118.261 54.5278L117.779 55.4037ZM139.493 73.9913C143.321 75.3945 149.154 77.7484 154.21 80.2463C156.739 81.4959 159.059 82.7752 160.834 83.9836C161.721 84.5879 162.462 85.1674 163.02 85.7094C163.585 86.2577 163.931 86.7361 164.078 87.1329L165.016 86.786C164.793 86.1841 164.324 85.5815 163.717 84.9917C163.102 84.3955 162.311 83.7798 161.397 83.157C159.567 81.9112 157.2 80.6084 154.653 79.3498C149.556 76.8313 143.687 74.4638 139.837 73.0524L139.493 73.9913ZM189.958 89.9065L368.341 198.768L368.862 197.915L190.479 89.0529L189.958 89.9065ZM368.341 198.768L370.964 200.369L371.485 199.516L368.862 197.915L368.341 198.768ZM95.2376 62.2644C96.1143 62.5326 97.2248 62.9084 98.4638 63.3754L98.8165 62.4396C97.5598 61.966 96.4291 61.5832 95.5302 61.3081L95.2376 62.2644ZM98.4638 63.3754C100.721 64.2264 103.393 65.3754 105.845 66.7208C108.306 68.0715 110.504 69.5974 111.851 71.1892L112.615 70.543C111.147 68.8101 108.821 67.2134 106.326 65.8442C103.821 64.4697 101.104 63.3018 98.8165 62.4396L98.4638 63.3754ZM98.9497 62.5149C94.091 58.6836 87.1541 52.9369 82.1262 48.1444C79.6047 45.741 77.594 43.6062 76.5569 42.0839C76.2995 41.706 76.1108 41.3784 75.9897 41.1036C75.8655 40.8219 75.829 40.6326 75.8329 40.5197C75.836 40.4323 75.8585 40.4154 75.8812 40.3995C75.9317 40.364 76.0677 40.3069 76.3674 40.3029L76.354 39.303C75.9633 39.3082 75.5932 39.3798 75.3065 39.5811C74.9918 39.8021 74.8459 40.1302 74.8335 40.4849C74.8221 40.814 74.9234 41.1637 75.0746 41.5069C75.2288 41.8569 75.4531 42.2398 75.7305 42.647C76.833 44.2652 78.9134 46.4636 81.4362 48.8683C86.4969 53.692 93.4614 59.4607 98.3305 63.3001L98.9497 62.5149ZM76.533 40.2723C76.4446 40.3048 76.4049 40.2807 76.4953 40.2971C76.5634 40.3095 76.6736 40.339 76.835 40.3984C77.1563 40.5165 77.6339 40.7353 78.3032 41.1024C79.6397 41.8353 81.6998 43.137 84.735 45.3378L85.322 44.5282C82.2688 42.3144 80.1713 40.9863 78.7841 40.2256C78.0916 39.8458 77.5658 39.6017 77.1802 39.4599C76.9881 39.3892 76.8189 39.3395 76.674 39.3132C76.5513 39.2909 76.3649 39.2688 76.1884 39.3336L76.533 40.2723ZM134.211 83.0375C134.946 83.5988 136.256 84.4006 138.085 85.2726L138.516 84.37C136.724 83.516 135.48 82.7483 134.817 82.2426L134.211 83.0375ZM138.085 85.2726C141.266 86.7889 146.057 88.5363 152.225 89.6099L152.396 88.6248C146.321 87.5673 141.617 85.8485 138.516 84.37L138.085 85.2726ZM84.733 45.3363C93.5314 51.7834 106.753 61.5141 117.822 69.7529C123.357 73.8726 128.352 77.6182 131.987 80.3935C133.804 81.7815 135.28 82.9248 136.311 83.7503C136.827 84.1635 137.228 84.4938 137.505 84.7338C137.643 84.8543 137.745 84.9473 137.812 85.0138C137.846 85.0475 137.865 85.0688 137.875 85.0798C137.894 85.1035 137.862 85.0719 137.836 85.006L138.765 84.6366C138.727 84.5406 138.666 84.4667 138.64 84.4361C138.603 84.3929 138.561 84.348 138.516 84.3038C138.426 84.2146 138.306 84.1051 138.161 83.979C137.869 83.7256 137.455 83.3854 136.936 82.9695C135.895 82.1368 134.413 80.9879 132.593 79.5987C128.954 76.8195 123.954 73.071 118.419 68.9508C107.347 60.7099 94.1236 50.9776 85.324 44.5297L84.733 45.3363ZM97.2283 22.8187L96.7049 22.5958L96.3131 23.5159L96.8365 23.7387L97.2283 22.8187ZM96.6939 22.5913C95.6322 22.1689 94.1885 21.7579 92.9437 21.8075C92.3183 21.8325 91.6927 21.9756 91.1939 22.3425C90.6777 22.7223 90.3543 23.3 90.2739 24.0691L91.2685 24.173C91.3235 23.6464 91.5257 23.3399 91.7865 23.148C92.0648 22.9433 92.4678 22.8273 92.9836 22.8067C94.0215 22.7653 95.3112 23.1174 96.3242 23.5204L96.6939 22.5913ZM90.2883 24.2504C90.3796 24.5915 90.6495 24.959 91.0158 25.3413C91.3979 25.7399 91.9424 26.2123 92.6706 26.7612C94.1283 27.8599 96.3595 29.2931 99.5923 31.0864C106.06 34.674 116.574 39.7234 133.012 46.4397L133.39 45.514C116.972 38.8057 106.497 33.7731 100.077 30.2119C96.8664 28.4308 94.6791 27.0229 93.2725 25.9626C92.5686 25.4321 92.0696 24.9955 91.7378 24.6493C91.3903 24.2868 91.2761 24.0736 91.2542 23.9918L90.2883 24.2504ZM133.012 46.4397C149.442 53.1528 157.739 57.0118 161.44 59.1044C162.365 59.6275 162.986 60.0308 163.371 60.3324C163.564 60.484 163.682 60.598 163.747 60.6772C163.825 60.7713 163.782 60.7586 163.779 60.6643C163.774 60.4997 163.889 60.406 163.927 60.3859C163.939 60.3794 163.905 60.3981 163.78 60.4066C163.545 60.4226 163.173 60.3916 162.698 60.312L162.532 61.2982C163.028 61.3813 163.493 61.4284 163.848 61.4043C164.02 61.3926 164.219 61.3616 164.391 61.2716C164.589 61.1679 164.787 60.9569 164.779 60.6368C164.772 60.3871 164.635 60.1809 164.518 60.0392C164.388 59.8827 164.208 59.7186 163.988 59.5456C163.545 59.1981 162.873 58.7661 161.932 58.234C158.169 56.106 149.816 52.2254 133.39 45.514L133.012 46.4397ZM162.36 61.2353C201.183 84.2233 282.403 132.591 296.829 142.235L297.385 141.403C282.929 131.74 201.674 83.3516 162.87 60.3749L162.36 61.2353ZM296.843 142.244L417.878 217.444L418.406 216.594L297.371 141.394L296.843 142.244Z" fill="black"/>
<path d="M395.709 195.596C392.944 193.124 391.738 194.761 391.48 195.889C393.245 195.066 397.558 202.681 399.493 206.592C399.905 207.475 399.517 209.044 399.272 209.718L389.888 234.243C389.269 236.949 387.987 235.689 387.424 234.72L381.837 224.9L378.749 223.318L386.503 238.507C389.032 241.627 390.842 239.171 391.431 237.553L401.699 210.601C402.847 208.454 402.251 206.985 401.81 206.519L395.709 195.596Z" fill="#D3D2D8" stroke="black"/>
<path d="M398.18 220.268L400.389 214.201C403.624 215.378 403.379 217.732 402.851 218.761C401.585 221.232 399.21 220.795 398.18 220.268Z" fill="#707173" stroke="black"/>
<defs>
<linearGradient id="paint0_linear_912_2769" x1="285.281" y1="116.424" x2="259.232" y2="162.824" gradientUnits="userSpaceOnUse">
<stop stop-color="#C8C9CB"/>
<stop offset="1" stop-color="#2F2F31"/>
</linearGradient>
</defs>
</svg>
