<svg width="85" height="103" viewBox="0 0 85 103" fill="none" xmlns="http://www.w3.org/2000/svg">
<path d="M85 51.5C85 79.9427 65.9721 103 42.5 103C19.0279 103 0 79.9427 0 51.5C0 23.0573 19.0279 0 42.5 0C65.9721 0 85 23.0573 85 51.5Z" fill="#FF0000"/>
<path d="M15.051 51.1747H69.4293V58.1354H15.051V51.1747ZM37.8548 43.4985H46.4955V52.6709H37.8548V43.4985ZM21.093 62.2337H62.8675V81.6844H54.2268V69.0642H21.093V62.2337ZM22.0025 22.9419H30.5134V28.2762H53.9669V22.9419H62.5427V46.2307H22.0025V22.9419ZM30.5134 34.7164V39.4653H53.9669V34.7164H30.5134Z" fill="white"/>
</svg>
