<svg width="868" height="337" viewBox="0 0 868 337" fill="none" xmlns="http://www.w3.org/2000/svg">
<ellipse cx="145.664" cy="310.901" rx="49.8851" ry="25.0763" fill="#FF7D35"/>
<ellipse cx="242.441" cy="310.901" rx="49.8851" ry="25.0763" fill="#FF7D35"/>
<ellipse cx="338.22" cy="310.901" rx="49.8851" ry="25.0763" fill="#FF7D35"/>
<ellipse cx="434" cy="310.901" rx="49.8851" ry="25.0763" fill="#FF7D35"/>
<ellipse cx="529.779" cy="310.901" rx="49.8851" ry="25.0763" fill="#FF7D35"/>
<ellipse cx="625.558" cy="310.901" rx="49.8851" ry="25.0763" fill="#FF7D35"/>
<ellipse cx="721.337" cy="310.65" rx="49.8851" ry="24.8256" fill="#FF7D35"/>
<path fill-rule="evenodd" clip-rule="evenodd" d="M0.411621 317.345C5.72025 328.326 25.4099 336.479 48.8876 336.479C76.4383 336.479 98.7726 325.252 98.7726 311.402C98.7726 297.553 76.4383 286.326 48.8876 286.326C33.4876 286.326 19.7175 289.834 10.5668 295.347L0.411621 317.345Z" fill="#FF7D35"/>
<path fill-rule="evenodd" clip-rule="evenodd" d="M859.108 297.242C850.234 290.374 834.743 285.824 817.117 285.824C789.566 285.824 767.232 296.939 767.232 310.65C767.232 324.361 789.566 335.476 817.117 335.476C841.916 335.476 862.489 326.47 866.351 314.672L859.108 297.242Z" fill="#FF7D35"/>
<path fill-rule="evenodd" clip-rule="evenodd" d="M85.6543 113.299H782.317L866.468 314.263C866.287 315.3 865.45 317.03 865.007 317.922L868 317.922H0L85.6543 113.299Z" fill="#FF7D35"/>
<path d="M164.122 113.299L98.2733 317.922C107.053 332.366 133.525 335.977 145.664 335.977C174.398 336.579 189.896 324.191 194.053 317.922L247.43 113.299H164.122Z" fill="#3F3F3F"/>
<path d="M315.772 113.299L290.331 318.424C299.111 332.868 325.583 336.479 337.722 336.479C366.455 337.08 381.953 324.693 386.11 318.424L394.058 113.299H315.772Z" fill="#3F3F3F"/>
<path d="M473.908 112.797L481.889 317.922C490.669 332.366 518.139 336.478 530.278 336.478C559.012 337.08 574.676 323.94 577.669 317.922L556.218 112.797H473.908Z" fill="#3F3F3F"/>
<path d="M623.064 113.299L674.446 318.424C683.225 332.868 710.695 336.98 722.834 336.98C751.568 337.582 767.232 324.442 770.225 318.424L706.871 113.299H623.064Z" fill="#3F3F3F"/>
<path fill-rule="evenodd" clip-rule="evenodd" d="M81.3521 0H793.731V0.0787125L793.73 0.000116431L775.876 0.0760267C785.951 14.3517 792.55 33.4681 793.731 54.7222V68.4932C792.78 85.5769 788.323 101.283 781.363 114.19H86.3327C75.5713 98.4482 68.9276 76.873 68.9091 53.0677V52.8675C68.9246 32.9912 73.5587 14.6695 81.3521 0Z" fill="#3F3F3F"/>
<path d="M127.022 24.482C109.597 42.8958 119.761 53.1131 127.022 55.9201C127.022 46.4886 137.537 32.1544 142.795 26.1662C149.405 18.9804 155.563 19.0552 157.817 19.9909C154.061 30.6574 147.301 39.4526 142.795 42.4467C131.979 54.5728 130.778 71.4521 131.529 78.376C138.138 94.5442 160.32 87.7326 170.585 82.3058C189.362 74.4462 204.635 46.5636 208.14 32.903C211.144 14.4893 199.377 11.7571 193.118 12.6928C194.92 31.5556 184.856 49.3705 179.598 55.9201C159.169 86.0109 149.555 86.0484 147.301 82.3058C141.894 69.7305 153.06 51.2419 159.319 43.5695C176.143 24.7066 169.333 16.2482 163.825 14.3769C147.001 9.43659 132.28 19.0552 127.022 24.482Z" fill="#F2F2F2"/>
<path fill-rule="evenodd" clip-rule="evenodd" d="M203.876 75.3032C203.669 69.7354 207.357 57.9782 223.768 55.4921C228.741 55.2332 238.189 57.046 236.2 66.3688C235.164 71.0303 229.735 80.1977 216.308 79.5762C215.48 83.0723 216.433 89.5206 226.876 87.3452C230.813 86.4389 239.93 82.373 244.902 73.3609L249.875 72.584C247.182 77.8929 238.935 88.8991 227.497 90.4529C220.038 90.9708 204.871 88.6661 203.876 75.3032ZM216.579 76.8339C215.543 72.6904 216.828 63.8596 230.255 61.6843C230.876 65.8278 229.011 74.6586 216.579 76.8339Z" fill="#F2F2F2"/>
<path fill-rule="evenodd" clip-rule="evenodd" d="M712.001 71.1556C711.794 65.5878 715.482 53.8306 731.892 51.3445C736.865 51.0855 746.314 52.8983 744.324 62.2212C743.288 66.8826 737.86 76.0501 724.433 75.4285C723.604 78.9246 724.557 85.3729 735 83.1976C738.937 82.2912 748.054 78.2254 753.027 69.2133L758 68.4364C755.306 73.7452 747.06 84.7514 735.622 86.3052C728.163 86.8232 712.995 84.5184 712.001 71.1556ZM724.704 72.6862C723.668 68.5427 724.953 59.7119 738.38 57.5366C739.001 61.6801 737.137 70.5109 724.704 72.6862Z" fill="#F2F2F2"/>
<path d="M252.047 90.4602C238.333 89.8811 244.207 74.2942 248.858 66.5731C252.047 61.9404 252.844 58.3694 252.844 57.163C255.714 57.4525 256.963 58.9726 257.229 59.6965C258.186 62.8814 256.033 68.2621 254.837 70.5543C253.881 71.4229 252.578 77.9134 252.047 81.0501C260.02 62.5195 267.594 57.6455 270.385 57.5249C275.169 57.2353 277.428 59.8171 277.959 61.1442C279.235 65.7768 276.099 74.8974 274.371 78.8786C271.501 85.538 274.504 86.479 276.365 86.1171C281.786 85.538 286.863 76.9483 288.723 72.7258H292.71C289.839 79.6748 286.996 83.5836 285.932 84.6694C283.062 88.723 277.561 89.7364 275.169 89.7364C267.834 87.7096 266.265 80.4469 266.398 77.0689C266.398 73.0154 270.651 65.246 272.777 61.868C273.415 59.2621 271.448 59.5758 270.385 60.0584C268.152 62.3747 262.545 70.1923 260.02 73.8116C256.831 77.7928 253.641 88.2887 253.641 89.3744C253.641 90.2431 252.578 90.4602 252.047 90.4602Z" fill="#F2F2F2"/>
<path d="M359.926 90.4602C346.212 89.8811 352.085 74.2942 356.736 66.5731C359.926 61.9404 360.723 58.3694 360.723 57.163C363.593 57.4525 364.842 58.9726 365.108 59.6965C366.065 62.8814 363.912 68.2621 362.716 70.5543C361.759 71.4229 360.457 77.9134 359.926 81.0501C367.899 62.5195 375.473 57.6455 378.264 57.5249C383.048 57.2353 385.307 59.8171 385.838 61.1442C387.114 65.7768 383.978 74.8974 382.25 78.8786C379.38 85.538 382.383 86.479 384.244 86.1171C389.665 85.538 394.741 76.9483 396.602 72.7258H400.588C397.718 79.6748 394.874 83.5836 393.811 84.6694C390.941 88.723 385.44 89.7364 383.048 89.7364C375.712 87.7096 374.144 80.4469 374.277 77.0689C374.277 73.0154 378.529 65.246 380.656 61.868C381.293 59.2621 379.327 59.5758 378.264 60.0584C376.031 62.3747 370.423 70.1923 367.899 73.8116C364.709 77.7928 361.52 88.2887 361.52 89.3744C361.52 90.2431 360.457 90.4602 359.926 90.4602Z" fill="#F2F2F2"/>
<path d="M675.296 86.3712C661.582 85.7921 667.456 70.2051 672.107 62.484C675.296 57.8513 676.093 54.2803 676.093 53.0739C678.964 53.3635 680.213 54.8835 680.478 55.6074C681.435 58.7924 679.282 64.173 678.086 66.4652C677.13 67.3338 675.827 73.8244 675.296 76.9611C683.269 58.4304 690.843 53.5565 693.634 53.4358C698.418 53.1463 700.677 55.728 701.209 57.0551C702.484 61.6878 699.348 70.8083 697.621 74.7895C694.75 81.449 697.753 82.39 699.614 82.0281C705.036 81.449 710.112 72.8592 711.972 68.6368H715.959C713.088 75.5858 710.245 79.4946 709.182 80.5803C706.311 84.6339 700.81 85.6473 698.418 85.6473C691.083 83.6205 689.515 76.3579 689.647 72.9799C689.647 68.9263 693.9 61.1569 696.026 57.779C696.664 55.1731 694.697 55.4868 693.634 55.9693C691.402 58.2857 685.794 66.1033 683.269 69.7225C680.08 73.7037 676.89 84.1996 676.89 85.2854C676.89 86.154 675.827 86.3712 675.296 86.3712Z" fill="#F2F2F2"/>
<path fill-rule="evenodd" clip-rule="evenodd" d="M313.438 57.8758C309.94 54.4836 300.846 50.4613 292.451 61.5104C288.661 68.6584 284.493 83.9719 298.135 88.0427C301.05 88.6484 307.842 88.2607 311.689 81.8639C313.875 84.2869 319.035 88.9876 322.183 88.4061C325.389 88.4061 333.027 85.135 337.924 72.0506H333.551C331.386 76.2909 325.818 84.7715 320.871 84.7715C318.977 84.7715 315.712 82.3727 317.811 72.7775C319.909 63.1823 318.685 68.5372 317.811 72.414C319.414 64.5392 323.67 47.9171 327.867 44.4279C327.576 42.6107 326.206 38.758 323.057 37.8857C321.892 38.9761 318.335 44.5007 313.438 57.8758ZM310.005 58.264C306.507 58.6274 299.336 61.6805 298.637 70.9849C297.762 82.6155 299.074 84.4328 301.26 85.1597C302.863 85.6443 307.119 83.924 311.317 73.1657C311.754 73.1657 315.252 57.5371 310.005 58.264Z" fill="#F2F2F2"/>
<path d="M341.493 53.0784C342.128 49.3358 345.459 48.816 347.046 49.0239C349.267 49.2734 348.5 53.0784 347.839 54.9497C346.252 58.6923 343.741 58.7962 342.683 58.3804C341.097 57.3824 341.229 54.4299 341.493 53.0784Z" fill="#F2F2F2"/>
<path d="M342.683 66.4893C344.27 63.2458 340.171 60.9794 337.924 60.2517C338.558 62.7468 336.073 66.4893 334.751 68.0488C333.164 70.2943 332.503 73.9745 332.371 75.5339C332.371 79.526 333.957 82.8112 334.751 83.9547C336.337 88.4458 341.757 88.9449 344.269 88.633C349.981 86.6369 355.11 78.4448 356.961 74.5983C355.692 74.3488 354.053 74.7022 353.392 74.9102C348.632 83.1438 344.269 85.6181 342.683 85.826C339.51 87.3231 338.452 81.2518 338.32 78.029C338.637 72.5399 341.361 68.0488 342.683 66.4893Z" fill="#F2F2F2"/>
<path d="M655.277 50.7416C655.911 46.9991 659.243 46.4793 660.829 46.6872C663.05 46.9367 662.284 50.7417 661.622 52.613C660.036 56.3556 657.524 56.4595 656.467 56.0437C654.88 55.0457 655.012 52.0931 655.277 50.7416Z" fill="#F2F2F2"/>
<path d="M656.467 64.1526C658.053 60.909 653.955 58.6427 651.707 57.915C652.342 60.41 649.856 64.1526 648.534 65.712C646.948 67.9576 646.287 71.6378 646.155 73.1972C646.155 77.1893 647.741 80.4744 648.534 81.618C650.121 86.1091 655.541 86.6081 658.053 86.2962C663.764 84.3002 668.894 76.1081 670.745 72.2615C669.475 72.012 667.836 72.3655 667.175 72.5734C662.416 80.8071 658.053 83.2814 656.467 83.4893C653.294 84.9863 652.236 78.915 652.104 75.6923C652.421 70.2031 655.145 65.712 656.467 64.1526Z" fill="#F2F2F2"/>
<path fill-rule="evenodd" clip-rule="evenodd" d="M418.35 59.7701C417.16 58.4071 413.432 56.0899 408.038 57.7255C405.129 58.115 398.757 61.1137 396.536 69.9929C396.007 73.8874 396.298 82.0267 401.692 83.4287C403.146 83.8181 406.927 84.3633 410.418 83.4287C410.153 84.1102 408.355 85.5901 403.279 86.0574C398.651 86.8363 389 89.504 387.414 93.9436C386.621 96.1829 386.859 100.837 394.156 101.538C394.223 101.538 394.346 101.548 394.52 101.563C396.407 101.721 404.276 102.384 410.814 95.6961C410.814 95.6961 414.47 93.6731 416.453 88.1236L417.16 84.8891C421.39 84.7917 430.724 81.5009 434.214 69.1167C433.95 69.0193 432.786 68.883 430.248 69.1167C430.248 69.4088 426.282 79.3395 417.953 81.6762C419.672 79.3395 423.506 71.8623 425.092 60.6463C424.828 59.478 423.426 57.2582 419.936 57.7255C419.407 57.8229 418.508 58.4849 419.143 60.3543L418.35 59.7701ZM414.228 58.9586C410.79 59.1533 403.836 61.7042 403.519 70.3498C402.99 73.4653 402.805 79.93 406.295 80.8647C408.146 81.4489 412.8 80.1637 416.607 70.3498C417.533 66.2606 418.352 58.2576 414.228 58.9586ZM407.882 88.4588C402.197 89.4324 391.858 92.7232 395.983 98.0975C399.024 98.9738 405.661 98.2728 407.882 88.4588Z" fill="#F2F2F2"/>
<path d="M450.475 45.3434C453.974 39.2048 454.484 32.9809 454.302 30.6362C458.238 29.1015 461.408 34.6861 462.502 37.6702C461.627 43.8088 458.857 50.459 457.582 53.0168C454.083 62.2247 453.937 68.3633 454.302 70.2816C466.11 33.4497 477.809 28.5047 482.182 30.6362C488.099 31.5589 486.159 46.0748 483.984 55.3251C487.777 41.6393 495.166 33.234 498.583 30.6362C508.204 27.0554 512.067 34.686 512.796 38.949C514.108 42.5299 511.885 49.8195 510.61 53.0167C507.986 56.5976 506.236 67.2976 505.69 72.2C505.252 82.9426 510.245 83.9231 512.796 83.0705C519.794 78.9781 524.094 67.2976 525.37 61.9689C527.119 60.9458 530.472 61.5426 531.93 61.9689C525.37 83.9657 515.712 88.6123 511.703 88.186C493.772 83.0705 495.485 64.3135 498.583 55.5745C505.58 39.7163 505.143 34.8992 504.05 34.4729C498.801 34.4729 488.742 56.6402 484.369 67.7239C480.433 77.4434 479.084 85.4151 478.902 88.186C473.217 89.2091 470.338 80.5127 469.609 76.0366C468.297 66.3171 471.613 58.3454 473.435 55.5745C479.121 44.8319 480.542 37.0307 480.542 34.4729C473.982 31.4036 463.595 57.0665 459.222 70.2816C454.848 80.5127 453.755 86.4808 453.755 88.186C443.259 91.7669 442.457 76.0366 443.368 67.7239C444.68 55.9581 448.653 47.9012 450.475 45.3434Z" fill="#F2F2F2"/>
<path fill-rule="evenodd" clip-rule="evenodd" d="M557.995 61.3346C556.642 57.7792 550.958 52.4138 539.049 59.3953C536.042 61.5501 530.478 67.9282 532.283 76.2026C533.034 79.3271 536.072 85.7052 542.207 86.2224C544.913 86.5456 551.409 85.8345 555.74 80.4045C556.943 82.667 560.973 86.9981 567.468 86.2224C571.679 85.6837 580.46 82.0852 581.904 72.0008C581.452 71.7853 579.919 71.4836 577.393 72.0008C576.641 75.1252 573.242 81.762 565.664 83.3134C564.01 83.6366 560.792 83.0549 561.153 78.1419C561.454 75.4484 562.777 68.704 565.664 63.2739C566.115 62.5197 566.927 60.8821 566.566 60.3649C565.814 59.2875 563.408 57.1327 559.8 57.1327C559.8 57.9947 559.439 60.0418 557.995 61.3346ZM552.708 59.9182C549.55 59.8105 542.513 62.3747 539.626 73.4934C538.874 76.9411 538.453 83.901 542.784 84.1596C545.34 84.6983 551.264 83.3192 554.512 73.4934C555.414 68.6451 556.317 59.1425 552.708 59.9182Z" fill="#F2F2F2"/>
<path d="M577.232 71.9877C578.829 58.4157 586.151 55.688 589.613 56.0207C596.003 56.0207 597.068 59.5689 596.802 61.343C596.802 63.4719 594.139 67.3306 592.808 68.9938L592.408 67.9959C595.923 62.1414 595.204 61.1212 594.405 61.343C588.015 61.343 584.96 68.4394 584.231 71.9877C581.842 81.3017 587.356 83.1867 590.411 82.965C599.677 79.2393 602.26 73.4291 602.393 70.9897H606.786C607.425 70.9897 607.319 71.655 607.186 71.9877C602.074 84.7612 593.074 86.8458 589.213 86.2914C578.35 85.2269 576.699 76.312 577.232 71.9877Z" fill="#F2F2F2"/>
<path d="M601.167 74.6783C602.857 63.7148 610.884 48.4952 614.686 42.2558C615.362 41.122 614.967 40.4464 614.686 40.2503C616.714 39.9829 619.192 41.6987 620.178 42.59C621.192 43.927 620.6 46.044 620.178 46.9353C614.432 54.9574 609.335 70.7787 607.504 77.6866C619.333 56.5618 628.486 54.4003 631.584 55.9602C638.344 57.0298 635.246 66.4334 632.852 71.0015C629.134 81.4302 632.148 83.3689 634.119 83.0346C639.865 83.3021 644.962 75.3468 646.793 71.3358C647.807 71.0684 648.905 71.0015 649.328 71.0015C647.638 76.617 645.807 79.3579 645.103 80.0264C640.372 86.1766 634.119 85.9315 631.584 85.0402C618.741 79.1573 624.262 67.4362 628.627 62.311C630.655 59.9043 630.317 58.4113 629.894 57.9657C627.867 57.4309 626.233 59.3027 625.67 60.3054L614.686 74.3441C612.658 76.7507 609.898 82.9232 608.771 85.7087C600.998 88.9175 600.463 79.6921 601.167 74.6783Z" fill="#F2F2F2"/>
</svg>
