<svg width="869" height="448" viewBox="0 0 869 448" fill="none" xmlns="http://www.w3.org/2000/svg">
<circle cx="146" cy="395" r="50" fill="#FF7D35"/>
<circle cx="243" cy="395" r="50" fill="#FF7D35"/>
<circle cx="339" cy="395" r="50" fill="#FF7D35"/>
<circle cx="435" cy="395" r="50" fill="#FF7D35"/>
<circle cx="531" cy="395" r="50" fill="#FF7D35"/>
<circle cx="627" cy="395" r="50" fill="#FF7D35"/>
<ellipse cx="723" cy="394.5" rx="50" ry="49.5" fill="#FF7D35"/>
<path fill-rule="evenodd" clip-rule="evenodd" d="M0.412598 407.85C5.73394 429.745 25.4686 446 48.9999 446C76.6141 446 98.9999 423.614 98.9999 396C98.9999 368.386 76.6141 346 48.9999 346C33.5649 346 19.7635 352.994 10.5917 363.985L0.412598 407.85Z" fill="#FF7D35"/>
<path fill-rule="evenodd" clip-rule="evenodd" d="M861.087 367.765C852.193 354.071 836.667 345 819 345C791.386 345 769 367.162 769 394.5C769 421.838 791.386 444 819 444C843.856 444 864.476 426.044 868.347 402.52L861.087 367.765Z" fill="#FF7D35"/>
<path fill-rule="evenodd" clip-rule="evenodd" d="M85.8516 1H784.12L868.465 401.706C868.284 403.773 867.444 407.223 867 409H0L85.8516 1Z" fill="#FF7D35"/>
<path d="M164.5 1L98.5 409C107.3 437.8 133.833 445 146 445C174.8 446.2 190.333 421.5 194.5 409L248 1H164.5Z" fill="#3F3F3F"/>
<path d="M316.5 1L291 410C299.8 438.8 326.333 446 338.5 446C367.3 447.2 382.833 422.5 387 410L390.5 1H316.5Z" fill="#3F3F3F"/>
<path d="M475 0L483 409C491.8 437.8 519.333 446 531.5 446C560.3 447.2 576 421 579 409L557.5 0H475Z" fill="#3F3F3F"/>
<path d="M624.5 1L676 410C684.8 438.8 712.333 447 724.5 447C753.3 448.2 769 422 772 410L708.5 1H624.5Z" fill="#3F3F3F"/>
<path d="M120.544 99.4548C97.8253 130.976 111.078 148.467 120.544 153.272C120.544 137.127 134.254 112.589 141.109 102.338C149.727 90.0368 157.757 90.165 160.695 91.7667C155.798 110.026 146.985 125.082 141.109 130.208C127.008 150.966 125.441 179.861 126.42 191.713C135.038 219.391 163.959 207.73 177.342 198.441C201.824 184.986 221.736 137.255 226.306 113.87C230.223 82.3487 214.881 77.6717 206.721 79.2733C209.071 111.564 195.949 142.06 189.094 153.272C162.457 204.783 149.923 204.847 146.985 198.441C139.934 176.914 154.493 145.264 162.653 132.13C184.589 99.8393 175.71 85.3598 168.529 82.1563C146.593 73.6993 127.399 90.1649 120.544 99.4548Z" fill="#F2F2F2"/>
<path fill-rule="evenodd" clip-rule="evenodd" d="M213.501 177.953C213.23 168.422 218.039 148.295 239.435 144.04C245.919 143.596 258.238 146.699 255.644 162.659C254.294 170.638 247.216 186.332 229.71 185.268C228.629 191.253 229.872 202.291 243.488 198.567C248.62 197.016 260.507 190.056 266.991 174.628L273.474 173.298C269.962 182.386 259.21 201.227 244.298 203.887C234.572 204.774 214.797 200.828 213.501 177.953ZM230.063 180.574C228.712 173.48 230.387 158.363 247.893 154.64C248.703 161.733 246.272 176.85 230.063 180.574Z" fill="#F2F2F2"/>
<path fill-rule="evenodd" clip-rule="evenodd" d="M713.026 300.953C712.756 291.422 717.565 271.295 738.961 267.04C745.444 266.596 757.763 269.699 755.17 285.659C753.819 293.638 746.741 309.332 729.235 308.268C728.155 314.253 729.398 325.291 743.013 321.567C748.146 320.016 760.033 313.056 766.516 297.628L773 296.298C769.488 305.386 758.736 324.227 743.824 326.887C734.098 327.774 714.323 323.828 713.026 300.953ZM729.589 303.574C728.238 296.48 729.913 281.363 747.419 277.64C748.229 284.733 745.798 299.85 729.589 303.574Z" fill="#F2F2F2"/>
<path d="M276.306 204C258.425 203.009 266.083 176.326 272.147 163.109C276.306 155.178 277.345 149.065 277.345 147C281.087 147.496 282.716 150.098 283.062 151.337C284.31 156.789 281.503 166 279.944 169.924C278.696 171.411 276.999 182.522 276.306 187.891C286.701 156.17 296.577 147.826 300.215 147.62C306.452 147.124 309.397 151.543 310.09 153.815C311.754 161.746 307.665 177.359 305.413 184.174C301.67 195.574 305.586 197.185 308.011 196.565C315.08 195.574 321.699 180.87 324.124 173.641H329.322C325.58 185.537 321.872 192.228 320.486 194.087C316.744 201.026 309.571 202.761 306.452 202.761C296.888 199.291 294.844 186.859 295.017 181.076C295.017 174.137 300.561 160.837 303.333 155.054C304.165 150.593 301.601 151.13 300.215 151.957C297.304 155.922 289.993 169.304 286.701 175.5C282.543 182.315 278.385 200.283 278.385 202.141C278.385 203.628 276.999 204 276.306 204Z" fill="#F2F2F2"/>
<path d="M416.959 204C399.078 203.009 406.736 176.326 412.8 163.109C416.959 155.178 417.998 149.065 417.998 147C421.74 147.496 423.369 150.098 423.716 151.337C424.963 156.789 422.156 166 420.597 169.924C419.349 171.411 417.652 182.522 416.959 187.891C427.354 156.17 437.23 147.826 440.868 147.62C447.105 147.124 450.051 151.543 450.744 153.815C452.407 161.746 448.318 177.359 446.066 184.174C442.323 195.574 446.239 197.185 448.664 196.565C455.733 195.574 462.352 180.87 464.777 173.641H469.975C466.233 185.537 462.525 192.228 461.139 194.087C457.397 201.026 450.224 202.761 447.105 202.761C437.541 199.291 435.497 186.859 435.67 181.076C435.67 174.137 441.214 160.837 443.987 155.054C444.818 150.593 442.254 151.13 440.868 151.957C437.957 155.922 430.646 169.304 427.354 175.5C423.196 182.315 419.038 200.283 419.038 202.141C419.038 203.628 417.652 204 416.959 204Z" fill="#F2F2F2"/>
<path d="M665.17 327C647.29 326.009 654.948 299.326 661.012 286.109C665.17 278.178 666.21 272.065 666.21 270C669.952 270.496 671.581 273.098 671.927 274.337C673.175 279.789 670.368 289 668.809 292.924C667.561 294.411 665.863 305.522 665.17 310.891C675.566 279.17 685.441 270.826 689.08 270.62C695.317 270.124 698.262 274.543 698.955 276.815C700.619 284.746 696.53 300.359 694.277 307.174C690.535 318.574 694.451 320.185 696.876 319.565C703.945 318.574 710.563 303.87 712.989 296.641H718.187C714.444 308.537 710.737 315.228 709.351 317.087C705.608 324.026 698.435 325.761 695.317 325.761C685.753 322.291 683.709 309.859 683.882 304.076C683.882 297.137 689.426 283.837 692.198 278.054C693.03 273.593 690.466 274.13 689.08 274.957C686.169 278.922 678.857 292.304 675.566 298.5C671.407 305.315 667.249 323.283 667.249 325.141C667.249 326.628 665.863 327 665.17 327Z" fill="#F2F2F2"/>
<path fill-rule="evenodd" clip-rule="evenodd" d="M356.348 148.22C351.787 142.413 339.93 135.528 328.984 154.442C324.044 166.678 318.609 192.893 336.395 199.861C340.196 200.898 349.051 200.235 354.068 189.284C356.918 193.432 363.645 201.479 367.749 200.483C371.93 200.483 381.887 194.884 388.272 172.485H382.571C379.748 179.744 372.488 194.262 366.039 194.262C363.569 194.262 359.312 190.155 362.049 173.73C364.785 157.304 363.189 166.471 362.049 173.107C364.139 159.627 369.688 131.172 375.16 125.199C374.78 122.088 372.994 115.493 368.89 114C367.369 115.867 362.733 125.324 356.348 148.22ZM351.871 148.884C347.311 149.507 337.962 154.733 337.05 170.661C335.909 190.571 337.62 193.682 340.47 194.926C342.56 195.755 348.109 192.81 353.582 174.394C354.152 174.394 358.712 147.64 351.871 148.884Z" fill="#F2F2F2"/>
<path d="M392.926 140.008C393.754 133.601 398.097 132.711 400.166 133.067C403.062 133.494 402.062 140.008 401.2 143.211C399.131 149.618 395.857 149.796 394.478 149.084C392.409 147.375 392.582 142.321 392.926 140.008Z" fill="#F2F2F2"/>
<path d="M394.478 162.965C396.546 157.413 391.203 153.533 388.272 152.287C389.1 156.558 385.859 162.965 384.135 165.635C382.067 169.479 381.205 175.779 381.033 178.448C381.033 185.282 383.101 190.906 384.135 192.863C386.204 200.551 393.271 201.406 396.546 200.872C403.992 197.455 410.68 183.431 413.093 176.846C411.439 176.419 409.301 177.024 408.439 177.38C402.234 191.475 396.546 195.711 394.478 196.067C390.341 198.629 388.962 188.236 388.789 182.719C389.203 173.323 392.754 165.635 394.478 162.965Z" fill="#F2F2F2"/>
<path d="M639.069 266.008C639.897 259.601 644.24 258.711 646.309 259.067C649.205 259.494 648.205 266.008 647.343 269.211C645.275 275.618 642 275.796 640.621 275.084C638.552 273.375 638.725 268.321 639.069 266.008Z" fill="#F2F2F2"/>
<path d="M640.621 288.965C642.689 283.413 637.346 279.533 634.415 278.287C635.243 282.558 632.002 288.965 630.278 291.635C628.21 295.479 627.348 301.779 627.176 304.448C627.176 311.282 629.244 316.906 630.278 318.863C632.347 326.551 639.414 327.406 642.689 326.872C650.135 323.455 656.823 309.431 659.236 302.846C657.582 302.419 655.444 303.024 654.582 303.38C648.377 317.475 642.689 321.711 640.621 322.067C636.484 324.629 635.105 314.236 634.932 308.719C635.346 299.323 638.897 291.635 640.621 288.965Z" fill="#F2F2F2"/>
<path fill-rule="evenodd" clip-rule="evenodd" d="M493.132 151.463C491.581 149.13 486.72 145.163 479.688 147.963C475.896 148.63 467.587 153.763 464.692 168.963C464.002 175.63 464.381 189.563 471.414 191.963C473.31 192.63 478.24 193.563 482.79 191.963C482.446 193.13 480.101 195.663 473.482 196.463C467.45 197.796 454.867 202.363 452.798 209.963C451.764 213.796 452.074 221.763 461.589 222.963C461.676 222.963 461.836 222.981 462.062 223.006C464.523 223.278 474.783 224.411 483.307 212.963C483.307 212.963 488.074 209.5 490.659 200L491.581 194.463C497.097 194.296 509.266 188.663 513.817 167.463C513.472 167.296 511.955 167.063 508.646 167.463C508.646 167.963 503.475 184.963 492.615 188.963C494.856 184.963 499.855 172.163 501.923 152.963C501.579 150.963 499.751 147.163 495.201 147.963C494.511 148.13 493.339 149.263 494.167 152.463L493.132 151.463ZM487.758 150.074C483.276 150.407 474.21 154.774 473.796 169.574C473.107 174.907 472.865 185.974 477.416 187.574C479.829 188.574 485.896 186.374 490.86 169.574C492.067 162.574 493.136 148.874 487.758 150.074ZM479.484 200.574C472.072 202.241 458.593 207.874 463.971 217.074C467.935 218.574 476.588 217.374 479.484 200.574Z" fill="#F2F2F2"/>
<path d="M372.047 256.767C376.609 246.258 377.274 235.604 377.036 231.59C382.168 228.963 386.302 238.523 387.728 243.631C386.587 254.14 382.976 265.524 381.313 269.902C376.751 285.665 376.561 296.173 377.036 299.457C392.432 236.407 407.685 227.941 413.387 231.59C421.101 233.17 418.573 258.019 415.736 273.854C420.682 250.426 430.315 236.037 434.77 231.59C447.315 225.46 452.352 238.523 453.302 245.82C455.013 251.95 452.114 264.429 450.451 269.902C447.03 276.032 444.749 294.349 444.036 302.741C443.466 321.131 449.976 322.809 453.302 321.35C462.425 314.344 468.032 294.349 469.696 285.227C471.976 283.476 476.348 284.497 478.249 285.227C469.696 322.882 457.103 330.837 451.876 330.107C428.498 321.35 430.731 289.241 434.77 274.281C443.893 247.134 443.323 238.888 441.898 238.158C435.055 238.158 421.94 276.105 416.238 295.079C411.106 311.717 409.348 325.364 409.111 330.107C401.698 331.858 397.944 316.971 396.994 309.309C395.283 292.671 399.607 279.024 401.983 274.281C409.396 255.891 411.249 242.537 411.249 238.158C402.696 232.904 389.153 276.835 383.451 299.457C377.749 316.971 376.323 327.188 376.323 330.107C362.638 336.237 361.593 309.309 362.781 295.079C364.492 274.938 369.671 261.145 372.047 256.767Z" fill="#F2F2F2"/>
<path fill-rule="evenodd" clip-rule="evenodd" d="M512.232 284.141C510.468 278.055 503.057 268.87 487.53 280.821C483.609 284.51 476.356 295.428 478.708 309.593C479.688 314.942 483.649 325.86 491.647 326.745C495.176 327.299 503.646 326.081 509.292 316.786C510.86 320.659 516.114 328.073 524.584 326.745C530.073 325.823 541.522 319.663 543.404 302.4C542.816 302.031 540.816 301.515 537.523 302.4C536.543 307.749 532.112 319.11 522.231 321.766C520.075 322.319 515.879 321.323 516.35 312.913C516.742 308.302 518.467 296.756 522.231 287.461C522.819 286.17 523.878 283.366 523.407 282.481C522.427 280.637 519.29 276.948 514.585 276.948C514.585 278.424 514.114 281.928 512.232 284.141ZM505.339 281.716C501.222 281.532 492.047 285.921 488.283 304.955C487.303 310.857 486.754 322.771 492.4 323.214C495.733 324.136 503.457 321.775 507.692 304.955C508.868 296.655 510.045 280.388 505.339 281.716Z" fill="#F2F2F2"/>
<path d="M537.313 302.378C539.396 279.144 548.943 274.475 553.455 275.044C561.787 275.044 563.176 281.119 562.829 284.156C562.829 287.8 559.357 294.405 557.621 297.253L557.101 295.544C561.683 285.522 560.746 283.776 559.704 284.156C551.373 284.156 547.389 296.304 546.438 302.378C543.324 318.322 550.513 321.549 554.497 321.169C566.578 314.791 569.945 304.845 570.119 300.669H575.847C576.68 300.669 576.541 301.808 576.367 302.378C569.702 324.244 557.968 327.813 552.935 326.864C538.771 325.041 536.619 309.78 537.313 302.378Z" fill="#F2F2F2"/>
<path d="M568.52 306.984C570.724 288.216 581.189 262.162 586.146 251.481C587.028 249.54 586.513 248.384 586.146 248.048C588.79 247.59 592.022 250.527 593.307 252.053C594.629 254.342 593.858 257.966 593.307 259.492C585.816 273.224 579.169 300.308 576.783 312.133C592.205 275.971 604.139 272.271 608.179 274.941C616.992 276.772 612.952 292.87 609.831 300.69C604.984 318.542 608.913 321.861 611.484 321.288C618.975 321.746 625.621 308.128 628.008 301.262C629.33 300.804 630.762 300.69 631.313 300.69C629.109 310.302 626.723 314.994 625.805 316.139C619.636 326.667 611.484 326.247 608.179 324.722C591.434 314.651 598.631 294.586 604.323 285.813C606.967 281.693 606.526 279.137 605.975 278.374C603.332 277.459 601.202 280.663 600.467 282.379L586.146 306.411C583.502 310.531 579.904 321.098 578.435 325.866C568.3 331.359 567.602 315.567 568.52 306.984Z" fill="#F2F2F2"/>
</svg>
